<svg id="Layer_1" data-name="Layer 1" xmlns="http://www.w3.org/2000/svg" xmlns:xlink="http://www.w3.org/1999/xlink" viewBox="0 0 388 266"><defs><style>.cls-1,.cls-11,.cls-12,.cls-14,.cls-17,.cls-18,.cls-22,.cls-24,.cls-26,.cls-28,.cls-5,.cls-6,.cls-7,.cls-8,.cls-9{fill:none;}.cls-2{fill:#f7f6e7;}.cls-3{clip-path:url(#clip-path);}.cls-4{fill:#babbba;}.cls-17,.cls-5,.cls-6,.cls-7{stroke:#231f20;}.cls-11,.cls-12,.cls-14,.cls-17,.cls-22,.cls-24,.cls-26,.cls-28,.cls-5,.cls-6,.cls-7,.cls-8,.cls-9{stroke-miterlimit:10;}.cls-18,.cls-5,.cls-6,.cls-7{stroke-width:0.33px;}.cls-6{stroke-dasharray:1.68 1.68;}.cls-7{stroke-dasharray:1.69 1.69;}.cls-18,.cls-8{stroke:#000;}.cls-17,.cls-26,.cls-28,.cls-8,.cls-9{stroke-width:0.67px;}.cls-11,.cls-9{stroke:#ec1c25;}.cls-12,.cls-14,.cls-22,.cls-24,.cls-28,.cls-9{stroke-dasharray:1.67 1.67;}.cls-10{fill:#ec1c25;}.cls-11,.cls-12{stroke-width:2.01px;}.cls-12{stroke:#0b9147;}.cls-13{fill:#0b9147;}.cls-14,.cls-24,.cls-28{stroke:#0b9146;}.cls-14{stroke-width:1px;}.cls-15{fill:#0b9146;}.cls-16{fill:#ec1c24;}.cls-18{stroke-linecap:round;stroke-miterlimit:2;}.cls-19{fill:#3f5ca9;}.cls-20{fill:#faae25;}.cls-21{fill:#76bf43;}.cls-22{stroke:#555ca8;}.cls-22,.cls-24{stroke-width:1.34px;}.cls-23{fill:#555ca8;}.cls-25{font-size:8.99px;font-family:TimesNewRomanPS-ItalicMT, Times New Roman;font-style:italic;}.cls-25,.cls-29,.cls-36{fill:#231f20;}.cls-26{stroke:#4652a2;}.cls-27{fill:#4652a2;}.cls-29{font-size:19.84px;font-family:MyriadPro-Regular, Myriad Pro;}.cls-30{fill:#6cbd45;}.cls-31{fill:#ffebce;}.cls-32{fill:#ced0e9;}.cls-33{fill:#e1eed3;}.cls-34{font-size:4.28px;}.cls-34,.cls-35{font-family:ArialMT, Arial;}.cls-35{font-size:3.21px;}.cls-36{font-size:7.01px;font-family:Helvetica;}.cls-37{letter-spacing:-0.03em;}</style><clipPath id="clip-path"><rect class="cls-1" x="-0.11" y="3.74" width="386.51" height="256"/></clipPath></defs><rect class="cls-2" width="388" height="266"/><g class="cls-3"><path class="cls-4" d="M297.23,182.65c-3.15,0-3.15-16-6.29-16h-5.86c-3.15,0-3.15,10.88-6.29,10.88v-.19c3.15,0,3.15-18.2,6.29-18.2h5.86c3.14,0,3.14,23.34,6.29,23.34"/><path class="cls-5" d="M297.23,182.65a1.08,1.08,0,0,1-.75-.34"/><path class="cls-6" d="M295.63,180.88c-1.68-4.17-2.2-14.25-4.69-14.25h-5.86c-2.61,0-3.05,7.46-4.92,10"/><path class="cls-5" d="M279.58,177.25a1.34,1.34,0,0,1-.79.26v-.19a1,1,0,0,0,.73-.36"/><path class="cls-7" d="M280.33,175.49c1.73-4.62,2.22-16.37,4.75-16.37h5.86c2.72,0,3.09,17.5,5.18,22.19"/><path class="cls-5" d="M296.54,182.05a.89.89,0,0,0,.69.41"/><path class="cls-8" d="M307.8,198.87c-12.47,10.15-31.06,18.88-55,24.87"/><polyline points="311.37 195.77 304.55 198.03 307.51 199.07 308.08 202.17 311.37 195.77"/><path class="cls-9" d="M118.57,110.18c-23.89,6-42.49,14.72-55,24.87"/><polyline class="cls-10" points="60.04 138.15 63.33 131.75 63.9 134.85 66.86 135.89 60.04 138.15"/><path class="cls-8" d="M252.82,110.15c22.94,5.75,42.68,14.51,56.11,25.87"/><polyline points="248.22 109.05 254.02 113.31 253.15 110.29 255.34 108.03 248.22 109.05"/><path class="cls-8" d="M62.48,197.9c13.44,11.36,33.17,20.12,56.11,25.87"/><polyline points="123.19 224.87 116.07 225.89 118.26 223.64 117.39 220.61 123.19 224.87"/><path class="cls-8" d="M57.31,202.21c13.89,10.76,34.31,19.9,60.31,26"/><polyline points="53.66 199.21 57.12 205.51 57.61 202.4 60.55 201.28 53.66 199.21"/><path class="cls-8" d="M253.79,105.68c26,6.13,46.42,15.28,60.31,26"/><polyline points="317.75 134.71 310.87 132.64 313.81 131.52 314.29 128.41 317.75 134.71"/><path class="cls-8" d="M111.15,107.28c-24.19,6.4-44.76,16-58.44,28.3"/><polyline points="115.73 106.11 108.59 105.2 110.82 107.42 109.99 110.45 115.73 106.11"/><path class="cls-11" d="M318.69,198.34c-13.68,12.31-34.27,21.91-58.47,28.32"/><polyline class="cls-10" points="255.68 227.81 261.36 223.51 260.54 226.52 262.75 228.72 255.68 227.81"/><path class="cls-12" d="M161.56,135.5V131a8.64,8.64,0,0,1,17.28,0v.79"/><path class="cls-13" d="M178.84,136.61a24.2,24.2,0,0,0-3.82-6.87l3.82,1.38,3.82-1.38a24.2,24.2,0,0,0-3.82,6.87"/><path class="cls-14" d="M161.56,135.26V122.08a8.64,8.64,0,0,0-16.81-2.8"/><polyline class="cls-15" points="144.28 122.08 143.42 117.85 144.85 119.08 146.63 118.45 144.28 122.08"/><path class="cls-16" d="M164.44,134.83a2.55,2.55,0,1,1-2.54-2.55,2.55,2.55,0,0,1,2.54,2.55"/><path class="cls-17" d="M227.13,116.64h-2.84c-3.14,0-3.14,18.86-6.29,18.86s-2.35-14.6-5.5-14.6h-8.15c-3.15,0-3.93,23.34-7.07,23.34S194.13,120.9,191,120.9h-5.86c-3.15,0-3.15,18.2-6.29,18.2s-3.14-9.29-6.29-9.29h-4.64c-3.15,0-3.15,11.07-6.29,11.07s-3.14-24.24-6.29-24.24h-4.26"/><line class="cls-18" x1="163.04" y1="98.04" x2="169.56" y2="98.03"/><line class="cls-18" x1="169.56" y1="98.03" x2="172.81" y2="103.68"/><line class="cls-18" x1="170.57" y1="97.44" x2="173.49" y2="102.5"/><line class="cls-18" x1="172.81" y1="103.68" x2="179.33" y2="103.67"/><line class="cls-18" x1="195.08" y1="103.74" x2="201.6" y2="103.74"/><line class="cls-18" x1="201.6" y1="103.74" x2="204.85" y2="109.38"/><line class="cls-18" x1="202.61" y1="103.15" x2="205.53" y2="108.21"/><line class="cls-18" x1="204.85" y1="109.38" x2="211.37" y2="109.37"/><path class="cls-19" d="M163.38,98.29c0,1.8-3.43,3.26-7.67,3.26S148,100.09,148,98.29,151.47,95,155.71,95s7.67,1.46,7.67,3.27"/><path class="cls-20" d="M194.81,103.81c0,1.8-3.43,3.26-7.67,3.26s-7.67-1.46-7.67-3.26,3.44-3.26,7.67-3.26,7.67,1.46,7.67,3.26"/><path class="cls-21" d="M223.37,109.38a6.88,6.88,0,1,0-6.88,6.88,6.88,6.88,0,0,0,6.88-6.88"/><path class="cls-22" d="M194.34,253.34v-11.8a9.67,9.67,0,1,0-19.33,0v6.81"/><path class="cls-23" d="M175,251.58a16.06,16.06,0,0,0-2.55-4.57l2.55.92,2.55-.92a16.06,16.06,0,0,0-2.55,4.57"/><path class="cls-22" d="M194.34,250v-7.1a10.25,10.25,0,0,1,20.5,0v1.81"/><path class="cls-23" d="M214.84,247.93a16.3,16.3,0,0,0-2.55-4.57l2.55.92,2.54-.92a16,16,0,0,0-2.54,4.57"/><path class="cls-17" d="M223.73,231.25H220.9c-3.15,0-3.15,18.85-6.29,18.85s-2.36-14.6-5.5-14.6H201c-3.14,0-3.93,23.35-7.07,23.35s-3.14-23.35-6.29-23.35h-5.86c-3.14,0-3.14,18.21-6.29,18.21s-3.14-9.29-6.28-9.29h-4.65c-3.14,0-3.14,11.06-6.29,11.06s-3.14-24.23-6.28-24.23h-4.26"/><line class="cls-18" x1="188.79" y1="210.52" x2="192.05" y2="204.87"/><line class="cls-18" x1="192.05" y1="204.87" x2="198.56" y2="204.88"/><line class="cls-18" x1="192.73" y1="206.05" x2="197.89" y2="206.05"/><line class="cls-18" x1="198.56" y1="204.88" x2="201.82" y2="210.53"/><line class="cls-18" x1="181.12" y1="223.8" x2="177.86" y2="229.44"/><line class="cls-18" x1="177.86" y1="229.44" x2="171.35" y2="229.44"/><line class="cls-18" x1="177.19" y1="228.27" x2="172.03" y2="228.26"/><line class="cls-18" x1="171.35" y1="229.44" x2="168.09" y2="223.79"/><path class="cls-19" d="M160.4,210.13c1.56-.9,4.54,1.35,6.66,5s2.57,7.37,1,8.27-4.54-1.34-6.66-5-2.57-7.37-1-8.28"/><path class="cls-20" d="M188.86,210.55c1.56.91,1.11,4.61-1,8.28s-5.1,5.91-6.66,5-1.11-4.61,1-8.27,5.1-5.92,6.66-5"/><path class="cls-21" d="M208.49,210.61A6.88,6.88,0,1,0,211,220a6.87,6.87,0,0,0-2.52-9.4"/><path class="cls-24" d="M102,177v-8.74a10.22,10.22,0,0,1,20.43,0v2.61"/><path class="cls-15" d="M102,180.24a16,16,0,0,1,2.54-4.57l-2.54.92-2.55-.92a16.3,16.3,0,0,1,2.55,4.57"/><path class="cls-22" d="M136.4,159.45a7.34,7.34,0,0,0-13.94,3.2v8.53"/><path class="cls-23" d="M137.13,162.6a16.09,16.09,0,0,1,1.34-5.06l-2.24,1.52-2.69-.27a16.52,16.52,0,0,1,3.59,3.81"/><path class="cls-17" d="M131.9,156.77h-2.83c-3.15,0-3.15,18.85-6.29,18.85s-2.36-14.6-5.5-14.6h-8.16c-3.14,0-3.93,23.35-7.07,23.35S98.91,161,95.76,161H89.9c-3.14,0-3.14,18.21-6.29,18.21s-3.14-9.29-6.28-9.29H72.68c-3.14,0-3.14,11.06-6.29,11.06s-3.14-24.23-6.28-24.23H55.85"/><line class="cls-18" x1="25.75" y1="179.12" x2="32.26" y2="179.12"/><line class="cls-18" x1="32.26" y1="179.12" x2="35.52" y2="184.76"/><line class="cls-18" x1="33.28" y1="178.53" x2="36.19" y2="183.59"/><line class="cls-18" x1="35.52" y1="184.76" x2="42.03" y2="184.76"/><line class="cls-18" x1="10.41" y1="179.18" x2="3.89" y2="179.18"/><line class="cls-18" x1="3.89" y1="179.18" x2="0.64" y2="173.54"/><line class="cls-18" x1="4.57" y1="178.01" x2="1.99" y2="173.54"/><line class="cls-18" x1="0.64" y1="173.54" x2="3.9" y2="167.89"/><path class="cls-19" d="M11.88,154.4c1.56.91,1.11,4.61-1,8.28s-5.1,5.91-6.66,5-1.11-4.61,1-8.27,5.1-5.92,6.66-5"/><path class="cls-21" d="M55.79,184.83a6.88,6.88,0,1,0-6.88,6.88,6.88,6.88,0,0,0,6.88-6.88"/><path class="cls-20" d="M25.75,179.26c0,1.8-3.44,3.26-7.67,3.26s-7.67-1.46-7.67-3.26S13.84,176,18.08,176s7.67,1.46,7.67,3.26"/><path class="cls-22" d="M278.79,173.4a8.56,8.56,0,1,0-17.12,0v1.47"/><path class="cls-23" d="M261.67,178.11a16,16,0,0,0-2.54-4.58l2.54.92,2.55-.92a16.22,16.22,0,0,0-2.55,4.58"/><path class="cls-24" d="M297.23,177.78v-4.61a9.22,9.22,0,0,0-18.44,0v.23"/><path class="cls-15" d="M297.23,181a16.33,16.33,0,0,1,2.54-4.58l-2.54.92-2.55-.92a16.36,16.36,0,0,1,2.55,4.58"/><path class="cls-17" d="M251.13,155.2h4.26c3.14,0,3.14,24.23,6.28,24.23s3.15-11.06,6.29-11.06h4.65c3.14,0,3.14,9.29,6.29,9.29s3.14-10.88,6.28-10.88h5.87c3.14,0,3.14,16,6.28,16s3.93-23.35,7.07-23.35h8.16c3.14,0,2.36,14.6,5.5,14.6s3.14-18.85,6.29-18.85h2.83"/><line class="cls-18" x1="375.67" y1="153.61" x2="382.19" y2="153.61"/><line class="cls-18" x1="382.19" y1="153.61" x2="385.44" y2="159.25"/><line class="cls-18" x1="381.51" y1="154.78" x2="384.09" y2="159.25"/><line class="cls-18" x1="385.44" y1="159.25" x2="382.18" y2="164.9"/><line class="cls-18" x1="343.9" y1="147.91" x2="350.42" y2="147.91"/><line class="cls-18" x1="350.42" y1="147.91" x2="353.67" y2="153.55"/><line class="cls-18" x1="351.43" y1="147.32" x2="354.35" y2="152.38"/><line class="cls-18" x1="353.67" y1="153.55" x2="360.18" y2="153.55"/><path class="cls-19" d="M344.24,148.16c0,1.8-3.43,3.26-7.67,3.26s-7.67-1.46-7.67-3.26,3.43-3.26,7.67-3.26,7.67,1.46,7.67,3.26"/><path class="cls-20" d="M375.67,153.69c0,1.8-3.43,3.26-7.67,3.26s-7.67-1.46-7.67-3.26,3.44-3.27,7.68-3.27,7.66,1.46,7.66,3.27"/><path class="cls-21" d="M385.44,170.72a6.88,6.88,0,1,0-6.88,6.88,6.88,6.88,0,0,0,6.88-6.88"/><text class="cls-25" transform="translate(165.19 152.41)">(trans, trans)</text><text class="cls-25" transform="translate(173.69 186.62)">(cis, cis)</text><text class="cls-25" transform="translate(276.25 191.8)">(trans, cis)</text><text class="cls-25" transform="translate(81.05 191.8)">(cis, trans)</text><path class="cls-26" d="M254.55,94.14l-2.81,1c-.72.28-1.61-2.15-2.33-1.88s1.18,5.35.46,5.62-2.64-4.8-3.36-4.53,1.18,5.35.46,5.62-2.64-4.8-3.36-4.53,1.18,5.35.46,5.62-2.63-4.8-3.36-4.53,1.19,5.35.46,5.62-2.63-4.8-3.36-4.53,1.19,5.35.46,5.62-2.63-4.8-3.35-4.53,1.18,5.35.45,5.62-2.63-4.8-3.35-4.52,1.18,5.34.45,5.61-2.63-4.8-3.35-4.52.53,2.69-.2,3L226.11,105"/><polyline class="cls-27" points="223.46 105.97 226.62 103.04 226.31 104.9 227.77 106.09 223.46 105.97"/><path class="cls-26" d="M368.91,210.94l.71-2.92c.18-.76,2.68-.13,2.87-.88s-5.09-2-4.91-2.78,5.45.52,5.63-.23-5.08-2-4.9-2.78,5.45.52,5.63-.23-5.09-2-4.91-2.78,5.45.52,5.63-.23-5.08-2-4.9-2.78,5.45.52,5.63-.23-5.09-2-4.9-2.78,5.45.52,5.63-.23-5.09-2-4.91-2.78,5.45.52,5.63-.23-5.08-2-4.9-2.78,5.45.52,5.63-.23-2.53-1.08-2.34-1.83l.7-2.92"/><polyline class="cls-27" points="376.6 178.56 377.25 182.83 375.88 181.52 374.07 182.06 376.6 178.56"/><path class="cls-26" d="M372.17,120.74l.92,2.86c.23.74-2.23,1.51-2,2.24s5.4-.92,5.64-.18-4.93,2.39-4.69,3.13,5.4-.92,5.64-.18-4.93,2.39-4.69,3.13,5.4-.92,5.63-.19-4.92,2.4-4.68,3.14,5.39-.93,5.63-.19-4.92,2.4-4.68,3.13,5.39-.92,5.63-.18-4.92,2.4-4.68,3.13,5.39-.92,5.63-.18-4.92,2.39-4.69,3.13,5.4-.92,5.64-.18-4.92,2.39-4.69,3.13,2.72-.4,3,.34l.92,2.86"/><polyline class="cls-27" points="382.48 152.38 379.7 149.07 381.55 149.48 382.81 148.07 382.48 152.38"/><path class="cls-26" d="M228.25,191l-2.75,1.2c-.71.31-1.72-2.07-2.43-1.76s1.45,5.28.74,5.58-2.87-4.65-3.58-4.35,1.45,5.28.74,5.59-2.87-4.66-3.58-4.35,1.46,5.28.75,5.59-2.88-4.66-3.59-4.35,1.46,5.28.75,5.59-2.88-4.66-3.59-4.35,1.46,5.27.75,5.58-2.88-4.66-3.59-4.35,1.46,5.28.75,5.59-2.88-4.66-3.58-4.35,1.45,5.28.74,5.59-2.88-4.66-3.59-4.35.67,2.66,0,3l-2.75,1.2"/><polyline class="cls-27" points="197.8 204.37 200.81 201.27 200.59 203.15 202.11 204.26 197.8 204.37"/><path class="cls-26" d="M167.78,194.38l.65,2.93c.17.75-2.36,1.29-2.19,2s5.46-.41,5.62.35-5.12,1.92-5,2.68,5.46-.42,5.62.34-5.12,1.93-4.95,2.68,5.45-.41,5.62.34-5.12,1.93-5,2.69,5.46-.42,5.63.34-5.13,1.92-5,2.68,5.46-.41,5.63.34-5.13,1.93-5,2.68,5.46-.41,5.63.35-5.13,1.92-5,2.68,5.46-.42,5.63.34-5.13,1.93-5,2.68,2.74-.14,2.91.62l.65,2.93"/><polyline class="cls-27" points="175.09 226.84 172.63 223.29 174.43 223.86 175.82 222.58 175.09 226.84"/><path class="cls-26" d="M40.82,145.23l.64,2.93c.17.76-2.36,1.3-2.19,2.05s5.46-.41,5.63.34-5.13,1.93-5,2.68,5.46-.41,5.63.35-5.13,1.92-5,2.68,5.46-.42,5.62.34-5.12,1.93-4.95,2.68,5.45-.41,5.62.34-5.12,1.93-5,2.68,5.46-.41,5.63.35-5.12,1.92-5,2.68,5.46-.41,5.63.34-5.13,1.93-5,2.68,5.46-.41,5.63.35-5.13,1.92-5,2.68,2.74-.14,2.91.61l.65,2.94"/><polyline class="cls-27" points="48.12 177.69 45.66 174.15 47.46 174.72 48.85 173.44 48.12 177.69"/><path class="cls-26" d="M33.65,160,31,161.38c-.7.35-1.83-2-2.52-1.63s1.72,5.19,1,5.54-3.11-4.51-3.8-4.16,1.72,5.2,1,5.54-3.11-4.51-3.81-4.16,1.73,5.2,1,5.54-3.1-4.51-3.8-4.16,1.73,5.2,1,5.54-3.11-4.51-3.8-4.16,1.72,5.2,1,5.54-3.11-4.51-3.8-4.16,1.72,5.2,1,5.54-3.11-4.5-3.8-4.16,1.72,5.2,1,5.54-3.11-4.5-3.8-4.16.81,2.63.11,3l-2.69,1.34"/><polyline class="cls-27" points="3.93 174.99 6.77 171.75 6.65 173.63 8.23 174.67 3.93 174.99"/><path class="cls-12" d="M211.14,113.71c-7.91,8.19-25.8,3.72-13.39-4.33"/><polyline class="cls-13" points="201.32 107.06 197.63 112.38 197.49 109.55 194.96 108.27 201.32 107.06"/><path class="cls-12" d="M373.74,175.62c-11.62,10.83-35.38-10.06-25.25-20.84"/><polyline class="cls-13" points="351.4 151.68 349.08 157.72 348.27 155.01 345.51 154.37 351.4 151.68"/><path class="cls-12" d="M44.09,189.73c-8.57,9.48-25.39,9.91-13.7-3.47"/><polyline class="cls-13" points="33.19 183.05 31.09 189.18 30.18 186.5 27.4 185.96 33.19 183.05"/><path class="cls-28" d="M218.43,102.5c4.94-13.07-28.23-15.32-41.28-5.83"/><polyline class="cls-15" points="173.32 99.45 177.11 93.33 177.43 96.46 180.31 97.73 173.32 99.45"/><path class="cls-16" d="M125,170.23a2.55,2.55,0,1,1-2.55-2.54,2.55,2.55,0,0,1,2.55,2.54"/><path class="cls-16" d="M281.34,173.25a2.55,2.55,0,1,1-2.55-2.55,2.55,2.55,0,0,1,2.55,2.55"/><path class="cls-16" d="M196.89,251.05a2.55,2.55,0,1,1-2.55-2.55,2.55,2.55,0,0,1,2.55,2.55"/><path d="M268.63,31.36h8.51a.16.16,0,1,0,0-.32h-8.52a.17.17,0,0,0-.16.17.16.16,0,0,0,.17.16"/><path d="M277,31.27l4.25,7.38a.17.17,0,0,0,.23.06.16.16,0,0,0,.06-.22l-4.26-7.38a.16.16,0,1,0-.28.16"/><path d="M278.33,30.51l3.81,6.61a.16.16,0,0,0,.22.06.17.17,0,0,0,.06-.23l-3.81-6.61a.16.16,0,0,0-.22-.06.17.17,0,0,0-.06.23"/><path d="M281.4,38.73h8.51a.18.18,0,0,0,.17-.17.17.17,0,0,0-.17-.16H281.4a.17.17,0,0,0-.17.17.16.16,0,0,0,.17.16"/><path d="M310.51,38.82H319a.16.16,0,1,0,0-.32h-8.52a.17.17,0,0,0-.16.17.16.16,0,0,0,.16.16"/><path d="M318.88,38.73l4.26,7.38a.16.16,0,1,0,.28-.16l-4.25-7.38a.17.17,0,0,0-.23-.06.17.17,0,0,0-.06.22"/><path d="M320.21,38,324,44.58a.17.17,0,1,0,.29-.17L320.5,37.8a.17.17,0,0,0-.29.16"/><path d="M323.28,46.19h8.52A.17.17,0,0,0,332,46a.16.16,0,0,0-.16-.16h-8.52a.18.18,0,0,0-.17.17.17.17,0,0,0,.17.16"/><path class="cls-19" d="M269.07,31.52c0,2.36-4.49,4.27-10,4.27s-10-1.91-10-4.27,4.48-4.26,10-4.26,10,1.91,10,4.26"/><path class="cls-20" d="M310.16,38.75c0,2.35-4.49,4.26-10,4.26s-10-1.91-10-4.26,4.48-4.27,10-4.27,10,1.91,10,4.27"/><path class="cls-21" d="M347.48,46a9,9,0,1,0-9,9,9,9,0,0,0,9-9"/><text class="cls-29" transform="translate(216.59 48.11)">=</text><path class="cls-30" d="M151.27,57.16l.36-.67.05,0,0,.06,0,.09a1.74,1.74,0,0,1-.1.19c-.07.14-.15.29-.24.44-.18.32-.38.68-.62,1.08a71.48,71.48,0,0,1-4.26,6.43,51.31,51.31,0,0,1-3.28,4c-.62.68-1.27,1.37-2,2a26.84,26.84,0,0,1-2.25,1.94,20.61,20.61,0,0,1-2.58,1.71,14,14,0,0,1-3,1.23A9.44,9.44,0,0,1,130,76a8.72,8.72,0,0,1-3.26-1l-.38-.2-.36-.22c-.23-.16-.48-.3-.7-.48l-.66-.52L124,73a6.55,6.55,0,0,1-.58-.6c-.19-.2-.38-.4-.55-.61l-.51-.65-.26-.32-.23-.34a32.49,32.49,0,0,1-3-5.51,58,58,0,0,1-2-5.47c-.55-1.77-1-3.45-1.42-5-.19-.79-.39-1.53-.55-2.25s-.31-1.39-.45-2c-.26-1.28-.48-2.4-.66-3.32L113.23,44l2.59-.39s.14,1,.4,2.87c.14.91.31,2,.53,3.28q.16.95.36,2c.13.7.3,1.44.45,2.21q.5,2.33,1.2,4.94a55,55,0,0,0,1.77,5.36,30.12,30.12,0,0,0,2.66,5.33l.2.32.22.3.45.62c.15.2.32.38.48.58s.32.38.5.56l.53.53.57.48a5.13,5.13,0,0,0,.6.44l.3.22.33.18a7.36,7.36,0,0,0,2.76.94,7.9,7.9,0,0,0,2.94-.17A15.45,15.45,0,0,0,138.39,72a25.13,25.13,0,0,0,2.26-1.8c.72-.62,1.38-1.27,2-1.91,1.27-1.3,2.4-2.6,3.4-3.83a75.1,75.1,0,0,0,4.49-6.24c.25-.39.47-.74.65-1,.1-.15.18-.3.26-.43l.11-.19,0-.09,0,0v0l-.38.66"/><path class="cls-30" d="M113.61,36.87a34.9,34.9,0,0,0,6.77,9.06l-5.71-1.23-5.19,2.7a34.59,34.59,0,0,0,4.13-10.53"/><path class="cls-31" d="M86.83,19.52c-11.74,0-21.25,7.58-21.25,16.94S75.09,53.4,86.83,53.4h0c11.73,0,21.24-7.59,21.24-16.95S98.57,19.52,86.83,19.52h0"/><path class="cls-32" d="M52.77,15.39c-7.83,0-14.17,6.89-14.17,15.39s6.34,15.39,14.17,15.39,14.16-6.89,14.16-15.39S60.59,15.39,52.77,15.39"/><path class="cls-33" d="M176.53,20.08a36.48,36.48,0,0,0-16.8,4.61c-12.31,6.6-19.13,17.84-15.24,25.11,2.07,3.86,6.76,5.82,12.54,5.82A36.48,36.48,0,0,0,173.83,51c12.31-6.6,19.13-17.84,15.24-25.1-2.07-3.87-6.76-5.83-12.54-5.83"/><path class="cls-30" d="M154.68,22.11,153.76,21l-1-1.06.05-.05s.47.55.95,1.09l.9,1.13"/><polyline class="cls-30" points="150.69 17.95 148.44 16.14 148.56 16 150.77 17.86 150.69 17.95"/><polyline class="cls-30" points="146.08 14.5 143.6 13.01 143.75 12.76 146.2 14.3 146.08 14.5"/><polyline class="cls-30" points="141.05 11.69 138.42 10.49 138.6 10.12 141.2 11.37 141.05 11.69"/><polyline class="cls-30" points="135.75 9.44 133.01 8.51 133.19 8.01 135.91 9 135.75 9.44"/><polyline class="cls-30" points="130.26 7.72 127.45 7.04 127.61 6.41 130.41 7.14 130.26 7.72"/><polyline class="cls-30" points="124.65 6.48 121.79 6.04 121.92 5.29 124.76 5.78 124.65 6.48"/><polyline class="cls-30" points="118.95 5.72 116.07 5.52 116.14 4.64 119.02 4.9 118.95 5.72"/><polyline class="cls-30" points="113.22 5.44 110.33 5.49 110.32 4.48 113.21 4.5 113.22 5.44"/><polyline class="cls-30" points="107.49 5.65 104.61 5.95 104.51 4.83 107.39 4.59 107.49 5.65"/><polyline class="cls-30" points="101.81 6.38 98.97 6.95 98.74 5.73 101.58 5.22 101.81 6.38"/><polyline class="cls-30" points="96.24 7.65 93.48 8.52 93.09 7.22 95.86 6.41 96.24 7.65"/><polyline class="cls-30" points="90.85 9.51 88.22 10.69 87.63 9.34 90.29 8.21 90.85 9.51"/><polyline class="cls-30" points="85.75 11.99 83.28 13.51 82.46 12.15 84.95 10.68 85.75 11.99"/><polyline class="cls-30" points="81.03 15.13 78.81 16.98 77.73 15.66 79.99 13.85 81.03 15.13"/><path class="cls-30" d="M76.83,18.92l-1,1.06L75,21.05l-1.4-1.17,1-1.12,1-1.05,1.3,1.21"/><polyline class="cls-30" points="73.28 23.29 72.34 24.72 70.74 23.65 71.71 22.23 73.28 23.29"/><path class="cls-30" d="M69.18,28.47a24.48,24.48,0,0,0,0-7.92l2.68,3.09,4,.66a24.53,24.53,0,0,0-6.74,4.17"/><path d="M45.83,31.2l3.07,5.33a.13.13,0,0,0,.19,0,.14.14,0,0,0,.06-.19l-3.07-5.33a.15.15,0,0,0-.2,0,.13.13,0,0,0-.05.19"/><path d="M47.1,31.2l2.44,4.22a.14.14,0,0,0,.19.06.15.15,0,0,0,.06-.2l-2.44-4.22a.15.15,0,0,0-.2,0,.14.14,0,0,0,0,.19"/><path d="M49,36.6h6.15a.14.14,0,0,0,.14-.14.15.15,0,0,0-.14-.15H49a.15.15,0,0,0-.14.15.14.14,0,0,0,.14.14"/><path d="M55.29,36.53l3.07-5.33a.13.13,0,0,0,0-.19.15.15,0,0,0-.2,0L55,36.39a.13.13,0,0,0,.05.19.15.15,0,0,0,.2,0"/><path d="M54.65,35.42l2.43-4.22A.13.13,0,0,0,57,31a.15.15,0,0,0-.2,0L54.4,35.28a.16.16,0,0,0,.05.2.15.15,0,0,0,.2-.06"/><path d="M58.36,31.06l-3.07-5.33a.15.15,0,0,0-.2-.05.13.13,0,0,0-.05.19l3.07,5.33a.15.15,0,0,0,.2.06.15.15,0,0,0,0-.2"/><path d="M55.17,25.66H49a.14.14,0,0,0-.14.14A.15.15,0,0,0,49,26h6.15a.15.15,0,0,0,.14-.15.14.14,0,0,0-.14-.14"/><path d="M54.53,26.76H49.66a.15.15,0,0,0-.14.15.14.14,0,0,0,.14.14h4.87a.14.14,0,0,0,.14-.14.15.15,0,0,0-.14-.15"/><path d="M48.9,25.73l-3.07,5.33a.14.14,0,0,0,.05.2.15.15,0,0,0,.2-.06l3.07-5.33a.14.14,0,0,0-.06-.19.13.13,0,0,0-.19.05"/><text class="cls-34" transform="translate(62.84 32.06)">N</text><path d="M58.24,31.27h4.23a.14.14,0,0,0,0-.28H58.24a.14.14,0,1,0,0,.28"/><text class="cls-34" transform="translate(65.91 37.4)">N</text><path d="M65.6,33.54l.5.86a.15.15,0,0,0,.2.06.15.15,0,0,0,0-.2l-.5-.87a.15.15,0,0,0-.2,0,.16.16,0,0,0-.05.2"/><path d="M66.56,33l.5.87a.14.14,0,0,0,.19,0,.15.15,0,0,0,.06-.2l-.5-.86a.15.15,0,0,0-.2-.05.14.14,0,0,0,0,.19"/><path d="M69.31,36.6H73.6a.14.14,0,0,0,.14-.14.15.15,0,0,0-.14-.15H69.31a.15.15,0,0,0-.14.15.14.14,0,0,0,.14.14"/><path d="M73.47,36.53l3.07,5.33a.15.15,0,0,0,.2,0,.14.14,0,0,0,.05-.19l-3.07-5.33a.15.15,0,0,0-.2-.06.15.15,0,0,0,0,.2"/><path d="M74.75,36.53l2.43,4.22a.16.16,0,0,0,.2.06.15.15,0,0,0,.05-.2L75,36.39a.15.15,0,0,0-.2-.06.15.15,0,0,0,0,.2"/><path d="M76.67,41.93h6.14a.14.14,0,0,0,.14-.14.15.15,0,0,0-.14-.15H76.67a.15.15,0,0,0-.15.15.15.15,0,0,0,.15.14"/><path d="M82.93,41.86,86,36.53a.15.15,0,0,0-.06-.2.14.14,0,0,0-.19.06l-3.08,5.33a.14.14,0,0,0,.06.19.13.13,0,0,0,.19,0"/><path d="M82.3,40.75l2.43-4.22a.15.15,0,0,0,0-.2.15.15,0,0,0-.2.06l-2.43,4.22a.15.15,0,0,0,0,.2.16.16,0,0,0,.2-.06"/><path d="M86,36.39l-3.08-5.33a.13.13,0,0,0-.19,0,.14.14,0,0,0-.06.19l3.08,5.33a.13.13,0,0,0,.19,0,.14.14,0,0,0,.06-.19"/><path d="M82.81,31H76.67a.14.14,0,1,0,0,.28h6.14a.14.14,0,0,0,0-.28"/><path d="M82.17,32.09H77.3a.15.15,0,0,0-.14.15.14.14,0,0,0,.14.14h4.87a.15.15,0,0,0,.15-.14.15.15,0,0,0-.15-.15"/><path d="M76.54,31.06l-3.07,5.33a.13.13,0,0,0,0,.19.15.15,0,0,0,.2,0l3.07-5.33a.13.13,0,0,0-.05-.19.15.15,0,0,0-.2,0"/><text class="cls-34" transform="translate(72.29 26.73)">F</text><path d="M76.79,31.06l-2.38-4.14a.15.15,0,0,0-.2-.05.13.13,0,0,0,0,.19l2.38,4.14a.15.15,0,0,0,.2.06.15.15,0,0,0,.05-.2"/><text class="cls-34" transform="translate(72.29 48.05)">F</text><path d="M76.54,41.72,74.67,45a.15.15,0,0,0,0,.2.15.15,0,0,0,.2-.06l1.87-3.25a.15.15,0,0,0-.05-.2.15.15,0,0,0-.2.06"/><text class="cls-34" transform="translate(56.93 21.4)">F</text><path d="M55.29,25.87l1.77-3.07a.15.15,0,0,0-.05-.2.15.15,0,0,0-.2.06L55,25.73a.15.15,0,0,0,.05.2.15.15,0,0,0,.2-.06"/><path d="M55,36.53l1.9,3.3a.15.15,0,0,0,.2.06.15.15,0,0,0,0-.2l-1.9-3.3a.15.15,0,0,0-.2-.06.15.15,0,0,0-.05.2"/><text class="cls-34" transform="translate(56.93 42.72)">F</text><path d="M85.88,36.6H92a.15.15,0,0,0,.15-.14.15.15,0,0,0-.15-.15H85.88a.15.15,0,0,0-.14.15.14.14,0,0,0,.14.14"/><path d="M82.93,31.2,86,25.87a.14.14,0,0,0-.06-.19.13.13,0,0,0-.19.05l-3.08,5.33a.15.15,0,0,0,.06.2.14.14,0,0,0,.19-.06"/><path d="M91.9,36.54l3.51,5.28a.15.15,0,0,0,.2,0,.16.16,0,0,0,0-.2l-3.5-5.28a.15.15,0,0,0-.21,0,.15.15,0,0,0,0,.2"/><path d="M93.22,36.46,96,40.64a.15.15,0,0,0,.2,0,.14.14,0,0,0,0-.2L93.46,36.3a.14.14,0,0,0-.2,0,.14.14,0,0,0,0,.2"/><path d="M95.54,41.88l6.31-.4a.13.13,0,0,0,.13-.15.15.15,0,0,0-.15-.14l-6.31.4a.15.15,0,0,0-.14.15.16.16,0,0,0,.16.14"/><path d="M102,41.4l2.81-5.68a.14.14,0,0,0-.06-.19.15.15,0,0,0-.2.07l-2.81,5.67a.15.15,0,0,0,.07.2.15.15,0,0,0,.19-.07"/><path d="M101.24,40.3l2.23-4.49a.15.15,0,0,0-.07-.2.15.15,0,0,0-.19.07L101,40.18a.15.15,0,0,0,.07.19.14.14,0,0,0,.19-.07"/><path d="M104.77,35.58l-3.5-5.28a.15.15,0,0,0-.2,0,.15.15,0,0,0,0,.2l3.5,5.28a.15.15,0,0,0,.2,0,.14.14,0,0,0,0-.2"/><path d="M101.14,30.24l-6.31.4a.15.15,0,0,0-.14.15.16.16,0,0,0,.16.14l6.31-.4a.15.15,0,0,0,.13-.16.13.13,0,0,0-.15-.13"/><path d="M100.56,31.42l-5,.32a.15.15,0,0,0-.14.15.14.14,0,0,0,.15.13l5-.31a.16.16,0,0,0,.14-.16.14.14,0,0,0-.15-.13"/><path d="M94.71,30.72,91.9,36.39a.14.14,0,1,0,.25.13L95,30.85a.16.16,0,0,0-.07-.2.15.15,0,0,0-.19.07"/><text class="cls-34" transform="translate(108.31 37.54)">N</text><path d="M104.63,35.8l3.16.58a.14.14,0,0,0,.16-.12.13.13,0,0,0-.11-.16l-3.16-.58a.14.14,0,0,0-.17.11.15.15,0,0,0,.12.17"/><path d="M101.77,41.46l5.82,3a.15.15,0,0,0,.2-.06.14.14,0,0,0-.07-.19l-5.81-3a.15.15,0,0,0-.2.06.14.14,0,0,0,.06.19"/><text class="cls-34" transform="translate(111.21 42.72)">X</text><path d="M107.72,44.51l2.65-1.37a.16.16,0,0,0,.06-.2.15.15,0,0,0-.2-.06l-2.64,1.38a.14.14,0,0,0,.13.25"/><text class="cls-34" transform="translate(114.96 35.28)">N</text><path d="M112,36l2.44-.83a.15.15,0,0,0,.09-.19.16.16,0,0,0-.18-.09l-2.44.83a.14.14,0,0,0-.09.19A.15.15,0,0,0,112,36"/><path d="M111.57,34.84,114,34a.14.14,0,0,0,.09-.18.13.13,0,0,0-.18-.09l-2.44.83a.13.13,0,0,0-.09.18.14.14,0,0,0,.18.09"/><path d="M114.61,41.75l3.78-.35a.16.16,0,0,0,.14-.16.15.15,0,0,0-.16-.13l-3.79.35a.15.15,0,0,0-.13.16.15.15,0,0,0,.16.13"/><path d="M118.51,35.11l2.56.77a.14.14,0,1,0,.09-.27l-2.56-.78a.14.14,0,0,0-.18.1.16.16,0,0,0,.09.18"/><path d="M121,35.68l-2.74,5.51a.15.15,0,0,0,.07.19.14.14,0,0,0,.19-.06l2.73-5.51a.15.15,0,0,0-.06-.2.15.15,0,0,0-.19.07"/><path d="M118.26,41.33l3.4,5.13a.14.14,0,0,0,.2,0,.15.15,0,0,0,0-.2l-3.4-5.13a.15.15,0,0,0-.2,0,.15.15,0,0,0,0,.2"/><path d="M119.53,41.25l2.7,4.06a.15.15,0,0,0,.2,0,.17.17,0,0,0,0-.21l-2.69-4.06a.16.16,0,0,0-.2,0,.15.15,0,0,0,0,.2"/><path d="M121.79,46.52l6.13-.38a.13.13,0,0,0,.13-.15.15.15,0,0,0-.15-.14l-6.13.39a.14.14,0,1,0,0,.28"/><path d="M128,46.06l2.73-5.51a.14.14,0,0,0-.06-.19.15.15,0,0,0-.2.06l-2.73,5.51a.15.15,0,0,0,.06.2.16.16,0,0,0,.2-.07"/><path d="M127.33,45l2.17-4.37a.15.15,0,0,0-.07-.19.14.14,0,0,0-.19.06l-2.17,4.37a.15.15,0,0,0,.07.19.14.14,0,0,0,.19-.06"/><path d="M130.76,40.41l-3.39-5.13a.15.15,0,0,0-.2,0,.14.14,0,0,0,0,.2l3.39,5.13a.16.16,0,0,0,.2,0,.14.14,0,0,0,0-.2"/><path d="M127.24,35.22l-6.13.38a.15.15,0,0,0-.14.15.15.15,0,0,0,.15.14l6.14-.39a.14.14,0,0,0,.13-.15.13.13,0,0,0-.15-.13"/><path d="M126.67,36.36l-4.86.31a.14.14,0,1,0,0,.28l4.86-.3a.14.14,0,0,0,.13-.15.15.15,0,0,0-.15-.14"/><path d="M177.18,35.27l-3.07-5.33a.15.15,0,0,0-.2-.05.13.13,0,0,0,0,.19l3.07,5.33a.15.15,0,0,0,.2.05.13.13,0,0,0,.05-.19"/><path d="M175.9,35.27l-2.43-4.22a.15.15,0,0,0-.2-.06.15.15,0,0,0-.05.2l2.43,4.22a.15.15,0,0,0,.2.05.13.13,0,0,0,.05-.19"/><path d="M174,29.87h-6.14a.14.14,0,0,0-.14.14.15.15,0,0,0,.14.15H174a.15.15,0,0,0,.15-.15.15.15,0,0,0-.15-.14"/><path d="M167.72,29.94l-3.08,5.33a.14.14,0,0,0,.06.19.13.13,0,0,0,.19-.05L168,30.08a.14.14,0,0,0-.06-.19.13.13,0,0,0-.19.05"/><path d="M168.35,31.05l-2.43,4.22a.13.13,0,0,0,.05.19.15.15,0,0,0,.2-.05l2.43-4.22a.15.15,0,0,0,0-.2.15.15,0,0,0-.2.06"/><path d="M164.64,35.41l3.08,5.33a.13.13,0,0,0,.19,0,.14.14,0,0,0,.06-.19l-3.08-5.33a.14.14,0,0,0-.19-.06.15.15,0,0,0-.06.2"/><path d="M167.84,40.81H174a.15.15,0,0,0,.15-.14.15.15,0,0,0-.15-.15h-6.14a.15.15,0,0,0-.14.15.14.14,0,0,0,.14.14"/><path d="M168.48,39.71h4.87a.15.15,0,0,0,.14-.15.14.14,0,0,0-.14-.14h-4.87a.15.15,0,0,0-.15.14.15.15,0,0,0,.15.15"/><path d="M174.11,40.74l3.07-5.33a.15.15,0,0,0-.05-.2.15.15,0,0,0-.2.06l-3.07,5.33a.14.14,0,0,0,0,.19.15.15,0,0,0,.2,0"/><text class="cls-34" transform="translate(156.96 36.38)">O</text><path d="M164.77,35.19h-4a.15.15,0,0,0-.14.15.14.14,0,0,0,.14.14h4a.14.14,0,0,0,.14-.14.15.15,0,0,0-.14-.15"/><path d="M157.3,37.34l-1.87,3.26a.14.14,0,0,0,0,.19.15.15,0,0,0,.2,0l1.87-3.25a.15.15,0,1,0-.25-.15"/><path d="M155.43,40.74l3.07,5.33a.15.15,0,0,0,.25-.15l-3.07-5.32a.15.15,0,0,0-.2-.06.15.15,0,0,0,0,.2"/><path d="M158.63,46.14h6.14a.14.14,0,0,0,.14-.14.15.15,0,0,0-.14-.15h-6.14a.15.15,0,0,0-.15.15.15.15,0,0,0,.15.14"/><path d="M159.26,45h4.87a.15.15,0,0,0,.15-.14.15.15,0,0,0-.15-.15h-4.87a.15.15,0,0,0-.14.15.14.14,0,0,0,.14.14"/><path d="M164.89,46.07,168,40.74a.15.15,0,0,0-.06-.2.14.14,0,0,0-.19.06l-3.08,5.32a.15.15,0,0,0,.06.2.13.13,0,0,0,.19,0"/><text class="cls-34" transform="translate(147.74 41.71)">O</text><path d="M155.87,41.08h-4.32a.14.14,0,0,0-.14.14.15.15,0,0,0,.14.15h4.32a.15.15,0,0,0,.15-.15.15.15,0,0,0-.15-.14"/><path d="M155.87,40h-4.32a.14.14,0,0,0-.14.14.15.15,0,0,0,.14.15h4.32a.15.15,0,0,0,.15-.15.15.15,0,0,0-.15-.14"/><path d="M158.5,45.92l-3.07,5.33a.15.15,0,0,0,.25.15l3.07-5.33a.15.15,0,0,0-.05-.2.16.16,0,0,0-.2.05"/><text class="cls-34" transform="translate(175.51 25.65)">NEt</text><text class="cls-35" transform="translate(182.66 26.73)">2</text><path d="M174.11,30.08l1.69-2.93a.16.16,0,0,0-.05-.2.15.15,0,0,0-.2.06l-1.69,2.93a.15.15,0,0,0,0,.2.15.15,0,0,0,.2-.06"/><path d="M127.78,46.07l3.08,5.33a.13.13,0,0,0,.19.05.15.15,0,0,0,.06-.2L128,45.92a.14.14,0,0,0-.19-.05.15.15,0,0,0-.06.2"/><text class="cls-34" transform="translate(126.24 57.69)">O</text><path d="M131.49,51.25,129.34,55a.15.15,0,0,0,0,.2.15.15,0,0,0,.2-.06l2.15-3.74a.15.15,0,0,0-.25-.15"/><path d="M130.54,50.7l-2.16,3.74a.15.15,0,0,0,.25.15l2.16-3.75a.14.14,0,0,0-.06-.19.13.13,0,0,0-.19.05"/><text class="cls-34" transform="translate(135.58 52.26)">N</text><path d="M131,51.47h4.23a.15.15,0,0,0,.15-.14.15.15,0,0,0-.15-.15H131a.15.15,0,0,0-.14.15.14.14,0,0,0,.14.14"/><path d="M138.47,49.29l1.85-3.22a.15.15,0,0,0,0-.2.16.16,0,0,0-.2.05l-1.86,3.23a.16.16,0,0,0,.06.2.15.15,0,0,0,.2-.06"/><path d="M140.2,46.14h6.14a.14.14,0,0,0,.14-.14.15.15,0,0,0-.14-.15H140.2a.15.15,0,0,0-.15.15.15.15,0,0,0,.15.14"/><path d="M146.21,46.07l1.85,3.2a.15.15,0,0,0,.25-.15l-1.85-3.2a.14.14,0,0,0-.19-.05.15.15,0,0,0-.06.2"/><path d="M147.93,53.61l-1.72,3a.15.15,0,0,0,.06.2.13.13,0,0,0,.19-.05l1.72-3a.15.15,0,0,0-.06-.2.13.13,0,0,0-.19,0"/><path d="M146.34,56.51H140.2a.15.15,0,0,0-.15.14.15.15,0,0,0,.15.15h6.14a.15.15,0,0,0,.14-.15.14.14,0,0,0-.14-.14"/><path d="M140.32,56.58l-1.72-3a.15.15,0,0,0-.2-.06.15.15,0,0,0-.05.2l1.72,3a.15.15,0,1,0,.25-.15"/><text class="cls-34" transform="translate(156.96 57.69)">O</text><path d="M155.75,50.84l2.13,3.71a.15.15,0,0,0,.2.05.15.15,0,0,0,.06-.19L156,50.7a.15.15,0,0,0-.2-.05.13.13,0,0,0-.05.19"/><path d="M154.79,51.4l2.14,3.7a.14.14,0,0,0,.19.06.15.15,0,0,0,.06-.2L155,51.25a.15.15,0,0,0-.25.15"/><text class="cls-34" transform="translate(147.87 52.26)">N</text><path d="M155.55,51.18h-4.28a.15.15,0,0,0-.14.15.14.14,0,0,0,.14.14h4.28a.15.15,0,0,0,.15-.14.15.15,0,0,0-.15-.15"/><text class="cls-36" transform="translate(104.86 12.34)">FRET</text><text class="cls-36" transform="translate(119.31 15.68)"><tspan class="cls-37">f</tspan><tspan x="1.84" y="0">ar</tspan></text><text class="cls-36" transform="translate(121.26 82.44)">FRET</text><text class="cls-36" transform="translate(135.56 85.78)">near</text><path class="cls-27" d="M182.66,33.79l3.62-1.49a.89.89,0,0,0,.37-.29,1.15,1.15,0,0,0,.17-.4,2.33,2.33,0,0,0,0-.79c-.05-.41-.16-.83-.23-1.21a3.9,3.9,0,0,1-.08-.52,1.24,1.24,0,0,1,0-.34.31.31,0,0,1,0-.07h0l-.07-.15,0,.17a.24.24,0,0,0,.1,0l-.07-.15,0,.17v-.05l0,0h0v-.05l0,0,.08,0a3.35,3.35,0,0,1,.35.37,13.46,13.46,0,0,1,.84,1.23c.45.73.93,1.55,1.38,2.23a6.78,6.78,0,0,0,.66.87,2.48,2.48,0,0,0,.33.32,1.12,1.12,0,0,0,.41.2.73.73,0,0,0,.41,0,.66.66,0,0,0,.32-.27,1.13,1.13,0,0,0,.13-.33,2.46,2.46,0,0,0,0-.67,12.09,12.09,0,0,0-.24-1.45c-.18-.79-.41-1.67-.58-2.44-.08-.38-.14-.73-.18-1a2.6,2.6,0,0,1,0-.62v0h0l0,0h0l0,0-.15-.1.07.16a.32.32,0,0,0,.08-.06l-.15-.1.07.16-.07-.16,0,.17a.12.12,0,0,0,.1,0l-.07-.16,0,.17v0l0,0h0v0l0,0,.08.05a2.15,2.15,0,0,1,.35.37c.24.31.53.74.84,1.23.45.73.93,1.55,1.38,2.23a7.3,7.3,0,0,0,.66.87,2,2,0,0,0,.33.32,1.21,1.21,0,0,0,.41.2.74.74,0,0,0,.41,0,.66.66,0,0,0,.32-.27.88.88,0,0,0,.12-.33,2.12,2.12,0,0,0,0-.67,10.53,10.53,0,0,0-.25-1.45c-.17-.8-.4-1.68-.57-2.44-.08-.38-.15-.73-.18-1a1.82,1.82,0,0,1,0-.62v0h0l0,0h0l0,0-.15-.1.07.16.08-.06-.15-.1.07.16-.07-.16,0,.17a.15.15,0,0,0,.11,0l-.07-.16,0,.17v0h0v0a.21.21,0,0,1,.07.05,1.58,1.58,0,0,1,.35.37,11.14,11.14,0,0,1,.84,1.23c.45.72.93,1.55,1.38,2.22a9.14,9.14,0,0,0,.66.88,2.34,2.34,0,0,0,.33.31,1,1,0,0,0,.42.2.62.62,0,0,0,.4,0,.67.67,0,0,0,.32-.27.91.91,0,0,0,.13-.33,2.47,2.47,0,0,0,0-.67,10.14,10.14,0,0,0-.24-1.45c-.18-.8-.41-1.68-.57-2.44-.09-.38-.15-.74-.19-1a2.51,2.51,0,0,1,0-.61v0h0l-.14-.09.06.16s.08,0,.08-.07l-.14-.09.06.16-.06-.16,0,.17a.19.19,0,0,0,.1,0l-.06-.16,0,.17V24l0,.05h0V24l0,.05a.19.19,0,0,1,.08.05,2.15,2.15,0,0,1,.35.37,11.14,11.14,0,0,1,.84,1.23c.45.72.93,1.55,1.38,2.22a7.74,7.74,0,0,0,.66.88,2.38,2.38,0,0,0,.33.31,1,1,0,0,0,.41.2.64.64,0,0,0,.41,0h0a.72.72,0,0,0,.32-.27,1.13,1.13,0,0,0,.13-.33,2.47,2.47,0,0,0,0-.67,11.78,11.78,0,0,0-.24-1.45c-.18-.8-.41-1.68-.58-2.44-.08-.38-.15-.74-.18-1a1.83,1.83,0,0,1,0-.62v0h0l0,0,0,0h0l0,0,0,0-.15-.09.07.16a.3.3,0,0,0,.08-.07l-.15-.09.07.16-.07-.16,0,.17h.11l-.07-.16,0,.17v0h0v0a.21.21,0,0,1,.07,0,2,2,0,0,1,.36.36c.24.31.53.75.83,1.23.46.73.94,1.56,1.39,2.23a7.75,7.75,0,0,0,.65.88,2.45,2.45,0,0,0,.34.31.88.88,0,0,0,.41.2.69.69,0,0,0,.4,0,.78.78,0,0,0,.32-.27.91.91,0,0,0,.13-.33,2.47,2.47,0,0,0,0-.67A10.14,10.14,0,0,0,206,25c-.18-.8-.41-1.68-.57-2.44-.09-.38-.15-.74-.19-1a2.6,2.6,0,0,1,0-.62v0h0l0,0,0,0h0l0,0,0,0-.14-.09.06.16a.19.19,0,0,0,.08-.07l-.14-.09.06.16-.06-.16,0,.17h.1l-.06-.16,0,.17v0l0,0h0v0l0,0,.08,0a3.35,3.35,0,0,1,.35.37,13.46,13.46,0,0,1,.84,1.23c.45.73.93,1.56,1.38,2.23a7.74,7.74,0,0,0,.66.88,2.38,2.38,0,0,0,.33.31,1.12,1.12,0,0,0,.41.2.73.73,0,0,0,.41,0,.78.78,0,0,0,.32-.27,1.13,1.13,0,0,0,.13-.33,2.47,2.47,0,0,0,0-.67,11.78,11.78,0,0,0-.24-1.45c-.18-.8-.41-1.68-.58-2.44-.08-.39-.15-.74-.18-1a1.83,1.83,0,0,1,0-.62v0h0l0,0,0,0h0l0,0,0,0-.15-.09.07.15a.18.18,0,0,0,.08-.06l-.15-.09.07.15-.07-.15,0,.17a.26.26,0,0,0,.11,0l-.07-.15,0,.17,0-.05,0,.05h0l0-.05,0,.05.07,0a2.56,2.56,0,0,1,.36.37c.24.31.53.75.83,1.23.46.73.94,1.56,1.39,2.23a7.75,7.75,0,0,0,.65.88,2.45,2.45,0,0,0,.34.31,1,1,0,0,0,.41.2.73.73,0,0,0,.41,0h0a.68.68,0,0,0,.32-.28.91.91,0,0,0,.13-.33,2.82,2.82,0,0,0,0-.66,12,12,0,0,0-.25-1.45c-.18-.8-.41-1.68-.57-2.45-.08-.38-.15-.73-.19-1a2.6,2.6,0,0,1,0-.62v0h0l0,0,0,0h0l0,0,0,0-.14-.09.06.15a.14.14,0,0,0,.08-.06l-.14-.09.06.15-.06-.16,0,.18a.24.24,0,0,0,.1,0l-.06-.16,0,.18v-.05l0,0h0v-.05l0,0,.08.05a3.35,3.35,0,0,1,.35.37,13.46,13.46,0,0,1,.84,1.23c.45.73.93,1.56,1.38,2.23a7.74,7.74,0,0,0,.66.88,3.19,3.19,0,0,0,.33.31,1.12,1.12,0,0,0,.41.2.65.65,0,0,0,.41,0l-.33-.8.06.16,0-.17h-.1l.06.16,0-.17v.05l0-.05h0v.05l0-.05-.08-.05a2.42,2.42,0,0,1-.35-.36,12.47,12.47,0,0,1-.84-1.24c-.45-.72-.93-1.55-1.38-2.22a7.74,7.74,0,0,0-.66-.88,2.38,2.38,0,0,0-.33-.31,1,1,0,0,0-.41-.2.73.73,0,0,0-.41,0,.78.78,0,0,0-.32.27,1.13,1.13,0,0,0-.13.33,2.47,2.47,0,0,0,0,.67,10.28,10.28,0,0,0,.25,1.45c.17.8.4,1.68.57,2.44.08.39.15.74.18,1a1.83,1.83,0,0,1,0,.62v0h0l0,0,0,0h0l0,0,0,0L213,24l-.07-.16a.3.3,0,0,0-.08.07L213,24l-.07-.16h0L213,24l0-.17H213L213,24l0-.17v0h0v0l-.07,0a2.56,2.56,0,0,1-.36-.37c-.24-.31-.53-.75-.83-1.23-.46-.73-.94-1.56-1.39-2.23a7.75,7.75,0,0,0-.65-.88,2.45,2.45,0,0,0-.34-.31.88.88,0,0,0-.41-.2.69.69,0,0,0-.4,0,.72.72,0,0,0-.32.27.91.91,0,0,0-.13.33,2.47,2.47,0,0,0,0,.67,10.14,10.14,0,0,0,.24,1.45c.18.8.41,1.68.57,2.45.08.38.15.73.19,1a2.6,2.6,0,0,1,0,.62v0h0l0,0,0,0h0l0,0,0,0,.14.09-.06-.15a.14.14,0,0,0-.08.06l.14.09-.06-.15.06.15,0-.17a.24.24,0,0,0-.1,0l.06.15,0-.17v.05l0-.05h0v.05l0-.05-.08,0a3.35,3.35,0,0,1-.35-.37,13.46,13.46,0,0,1-.84-1.23c-.45-.73-.93-1.56-1.38-2.23a7.74,7.74,0,0,0-.66-.88,2.38,2.38,0,0,0-.33-.31,1.12,1.12,0,0,0-.41-.2.72.72,0,0,0-.41,0,.73.73,0,0,0-.32.28,1.13,1.13,0,0,0-.13.33,2.4,2.4,0,0,0,0,.66,11.78,11.78,0,0,0,.24,1.45c.18.8.41,1.68.58,2.45.08.38.15.73.18,1a2.14,2.14,0,0,1,0,.62v0h0l0,0,0,0h0l0,0,0,0,.15.1-.07-.16a.18.18,0,0,0-.08.06l.15.1-.07-.16.07.16,0-.18a.24.24,0,0,0-.1,0l.07.16,0-.18v0l0,0h0v0l0,0-.07-.05a2.56,2.56,0,0,1-.36-.37c-.24-.31-.53-.75-.83-1.23-.46-.73-.94-1.56-1.39-2.23a7.75,7.75,0,0,0-.65-.88,2.45,2.45,0,0,0-.34-.31,1,1,0,0,0-.41-.2.62.62,0,0,0-.4,0h0a.62.62,0,0,0-.32.27.91.91,0,0,0-.13.33,2.4,2.4,0,0,0,0,.66,10.14,10.14,0,0,0,.24,1.45c.18.8.41,1.68.57,2.45.09.38.15.73.19,1a2.6,2.6,0,0,1,0,.62v0h0l0,0,0,0h0l0,0,0,0,.14.1-.06-.16a.14.14,0,0,0-.08.06l.14.1-.06-.16.06.16,0-.18a.24.24,0,0,0-.1,0l.06.16,0-.18v.05l0,0h0v.05l0,0-.08,0a3.35,3.35,0,0,1-.35-.37,13.46,13.46,0,0,1-.84-1.23c-.45-.73-.93-1.55-1.38-2.23a6.78,6.78,0,0,0-.66-.87,2.48,2.48,0,0,0-.33-.32,1.31,1.31,0,0,0-.41-.2.7.7,0,0,0-.73.31,1.13,1.13,0,0,0-.13.33,2.46,2.46,0,0,0,0,.67,12.09,12.09,0,0,0,.24,1.45c.18.79.41,1.67.58,2.44.08.38.15.73.18,1a2.14,2.14,0,0,1,0,.62v0h0l0,0h0l0,0,.15.1L198,30a.18.18,0,0,0-.08.06l.15.1L198,30l.07.16,0-.17a.12.12,0,0,0-.1,0l.07.16,0-.17v0l0,0h0v0l0,0L198,30a2.15,2.15,0,0,1-.35-.37c-.24-.31-.53-.75-.83-1.23-.46-.73-.94-1.55-1.39-2.23a8.56,8.56,0,0,0-.65-.87,2.54,2.54,0,0,0-.34-.32,1.12,1.12,0,0,0-.41-.2.74.74,0,0,0-.41,0h0a.59.59,0,0,0-.31.27.91.91,0,0,0-.13.33,2.46,2.46,0,0,0,0,.67,12.3,12.3,0,0,0,.25,1.45c.17.79.41,1.68.57,2.44.08.38.15.73.18,1a2.27,2.27,0,0,1,0,.62l0,0h0l0,0h0l0,0,.14.1-.06-.16c-.05,0-.08.05-.08.06l.14.1-.06-.16.06.16,0-.17a.12.12,0,0,0-.1,0l.06.16,0-.17v0h0v0a.21.21,0,0,1-.07-.05,1.82,1.82,0,0,1-.35-.37,11.14,11.14,0,0,1-.84-1.23c-.45-.72-.93-1.55-1.38-2.23a10.31,10.31,0,0,0-.66-.87,2.34,2.34,0,0,0-.33-.31,1.11,1.11,0,0,0-.42-.21.7.7,0,0,0-.4,0,.72.72,0,0,0-.32.27.91.91,0,0,0-.13.33,2.47,2.47,0,0,0,0,.67,10.37,10.37,0,0,0,.24,1.45c.18.8.41,1.68.57,2.44.09.38.15.73.19,1a2.59,2.59,0,0,1,0,.62v0h0l.14.09-.06-.16s-.08.05-.08.07l.14.09-.06-.16h0l.06.16,0-.17a.19.19,0,0,0-.1,0l.06.16,0-.17v0l0,0h0v0l0,0-.08,0a2.15,2.15,0,0,1-.35-.37,11.14,11.14,0,0,1-.84-1.23c-.45-.72-.93-1.55-1.38-2.22a7.74,7.74,0,0,0-.66-.88,3.13,3.13,0,0,0-.33-.31,1,1,0,0,0-.41-.2.72.72,0,0,0-.41,0,.84.84,0,0,0-.37.3,1,1,0,0,0-.17.39,2.39,2.39,0,0,0,0,.8c.05.4.16.82.23,1.21a3.67,3.67,0,0,1,.08.52,1.25,1.25,0,0,1,0,.34.32.32,0,0,1,0,.06h0v0h0v0h0L182.33,33l.33.8"/><polyline class="cls-27" points="179.66 34.56 184.32 34.55 182.71 33.31 182.98 31.29 179.66 34.56"/></g></svg>