<svg id="Layer_1" data-name="Layer 1" xmlns="http://www.w3.org/2000/svg" viewBox="0 0 378 459"><defs><style>.cls-1{fill:#f4cbf1;}.cls-2{fill:#d0f2cc;}.cls-3{fill:#f7f6e7;}.cls-3,.cls-8,.cls-9{stroke:#000;}.cls-11,.cls-12,.cls-17,.cls-22,.cls-3,.cls-5,.cls-8,.cls-9{stroke-miterlimit:10;}.cls-4{opacity:0.7;}.cls-11,.cls-12,.cls-17,.cls-22,.cls-5,.cls-8,.cls-9{fill:none;}.cls-5{stroke:#fc7272;}.cls-6{fill:#fff;}.cls-7{fill:#fc7272;}.cls-11,.cls-9{stroke-width:1.78px;}.cls-10{fill:#b4b4b4;}.cls-11{stroke:#666;}.cls-12,.cls-22{stroke:red;}.cls-12{stroke-width:0.8px;stroke-dasharray:4 4;}.cls-13,.cls-24,.cls-25,.cls-27,.cls-28{fill:red;}.cls-14,.cls-16,.cls-19,.cls-23,.cls-26,.cls-27,.cls-28{font-size:12px;}.cls-14,.cls-23,.cls-24,.cls-25,.cls-26,.cls-27,.cls-28,.cls-29,.cls-35,.cls-37{font-family:Arial-ItalicMT, Arial;}.cls-14,.cls-16,.cls-23,.cls-24,.cls-25,.cls-26,.cls-27,.cls-28,.cls-29,.cls-35,.cls-37{font-style:italic;}.cls-15{letter-spacing:-0.07em;}.cls-16,.cls-18{fill:#662d91;}.cls-16{font-family:Arial-BoldItalicMT, Arial;}.cls-16,.cls-30,.cls-31,.cls-32{font-weight:700;}.cls-17{stroke:#662d91;}.cls-19,.cls-33{font-family:ArialMT, Arial;}.cls-20{letter-spacing:-0.02em;}.cls-21{letter-spacing:-0.04em;}.cls-23,.cls-27{letter-spacing:0em;}.cls-24,.cls-25,.cls-29,.cls-31,.cls-32,.cls-35,.cls-37{font-size:8px;}.cls-24,.cls-29,.cls-32{letter-spacing:0em;}.cls-25,.cls-31,.cls-37{letter-spacing:0em;}.cls-26,.cls-28{letter-spacing:0em;}.cls-30,.cls-31,.cls-32{font-family:Arial-BoldMT, Arial;}.cls-30,.cls-33{font-style:normal;}.cls-34{letter-spacing:0em;}.cls-35{letter-spacing:0em;}.cls-36{letter-spacing:0em;}</style></defs><rect class="cls-1" x="175" y="363" width="172.5" height="76.5"/><rect class="cls-2" x="26" y="363.48" width="145" height="75.54"/><rect class="cls-3" x="-0.5" y="16.5" width="377" height="128"/><rect class="cls-3" x="0.5" y="178.5" width="377" height="128"/><g class="cls-4"><line class="cls-5" x1="27" y1="273" x2="106" y2="273"/><path class="cls-6" d="M27,276.76A3.76,3.76,0,1,1,30.76,273,3.76,3.76,0,0,1,27,276.76Z"/><path class="cls-7" d="M27,277.26A4.26,4.26,0,1,0,22.74,273,4.26,4.26,0,0,0,27,277.26Zm0-7.52A3.26,3.26,0,1,1,23.74,273,3.26,3.26,0,0,1,27,269.74Z"/><polygon class="cls-7" points="113.06 273 103.11 277.06 105.47 273 103.11 268.94 113.06 273"/><line class="cls-5" x1="26.5" y1="273" x2="26.5" y2="194"/><path class="cls-6" d="M30.26,273a3.76,3.76,0,1,1-3.76-3.76A3.76,3.76,0,0,1,30.26,273Z"/><path class="cls-7" d="M30.76,273a4.26,4.26,0,1,0-4.26,4.26A4.26,4.26,0,0,0,30.76,273Zm-7.52,0a3.26,3.26,0,1,1,3.26,3.26A3.26,3.26,0,0,1,23.24,273Z"/><polygon class="cls-7" points="26.5 186.94 30.57 196.89 26.5 194.53 22.44 196.89 26.5 186.94"/></g><line class="cls-8" x1="26.53" y1="439" x2="348" y2="439"/><polygon points="355.06 439 345.11 443.06 347.47 439 345.11 434.94 355.06 439"/><line class="cls-8" x1="26.5" y1="439" x2="26.5" y2="360"/><polygon points="26.5 352.94 30.57 362.89 26.5 360.53 22.44 362.89 26.5 352.94"/><polyline class="cls-9" points="76.22 268.44 93.48 273.56 76.22 278.68"/><path class="cls-10" d="M92,273.58A1.43,1.43,0,1,1,93.44,275h0A1.43,1.43,0,0,1,92,273.58"/><polyline class="cls-11" points="21.07 260.83 33.79 273.56 21.07 286.28"/><path class="cls-10" d="M32.37,273.58A1.43,1.43,0,1,1,33.81,275h0a1.44,1.44,0,0,1-1.42-1.42"/><g class="cls-4"><line class="cls-5" x1="269" y1="269" x2="348" y2="269"/><path class="cls-6" d="M269,272.76a3.76,3.76,0,1,1,3.76-3.76A3.76,3.76,0,0,1,269,272.76Z"/><path class="cls-7" d="M269,273.26a4.26,4.26,0,1,0-4.26-4.26,4.26,4.26,0,0,0,4.26,4.26Zm0-7.52a3.26,3.26,0,1,1-3.26,3.26,3.26,3.26,0,0,1,3.26-3.26Z"/><polygon class="cls-7" points="355.06 269 345.11 273.06 347.47 269 345.11 264.94 355.06 269"/><line class="cls-5" x1="268.5" y1="269" x2="268.5" y2="190"/><path class="cls-6" d="M272.26,269a3.76,3.76,0,1,1-3.76-3.76A3.76,3.76,0,0,1,272.26,269Z"/><path class="cls-7" d="M272.76,269a4.26,4.26,0,1,0-4.26,4.26,4.26,4.26,0,0,0,4.26-4.26Zm-7.52,0a3.26,3.26,0,1,1,3.26,3.26,3.26,3.26,0,0,1-3.26-3.26Z"/><polygon class="cls-7" points="268.5 182.94 272.56 192.89 268.5 190.53 264.44 192.89 268.5 182.94"/></g><polyline class="cls-11" points="338.39 260.95 325.41 273.42 329.49 255.89"/><path class="cls-10" d="M326.12,272.13a1.43,1.43,0,1,1-1.95.55h0a1.42,1.42,0,0,1,1.94-.54"/><polyline class="cls-9" points="372.27 216.78 354.92 221.54 350.15 204.19"/><path class="cls-10" d="M355.6,220.29a1.43,1.43,0,1,1-1.94.55h0a1.42,1.42,0,0,1,1.93-.54"/><line class="cls-12" x1="32" y1="263" x2="84.35" y2="263"/><polygon class="cls-13" points="90 263 82.04 266.25 83.93 263 82.04 259.75 90 263"/><line class="cls-12" x1="325.5" y1="273.61" x2="351.71" y2="227.41"/><polygon class="cls-13" points="354.5 222.5 353.4 231.03 351.5 227.78 347.74 227.82 354.5 222.5"/><polyline class="cls-11" points="195.24 266.01 212.26 271.86 194.8 276.24"/><path class="cls-10" d="M210.78,271.82a1.43,1.43,0,1,1,1.38,1.48h0a1.44,1.44,0,0,1-1.37-1.48"/><g class="cls-4"><line class="cls-5" x1="144" y1="272" x2="223" y2="272"/><path class="cls-6" d="M144,275.76a3.76,3.76,0,1,1,3.76-3.76A3.76,3.76,0,0,1,144,275.76Z"/><path class="cls-7" d="M144,276.26a4.26,4.26,0,1,0-4.26-4.26,4.26,4.26,0,0,0,4.26,4.26Zm0-7.52a3.26,3.26,0,1,1-3.26,3.26,3.26,3.26,0,0,1,3.26-3.26Z"/><polygon class="cls-7" points="230.06 272 220.11 276.06 222.47 272 220.11 267.94 230.06 272"/><line class="cls-5" x1="143.5" y1="272" x2="143.5" y2="193"/><path class="cls-6" d="M147.26,272a3.76,3.76,0,1,1-3.76-3.76A3.76,3.76,0,0,1,147.26,272Z"/><path class="cls-7" d="M147.76,272a4.26,4.26,0,1,0-4.26,4.26,4.26,4.26,0,0,0,4.26-4.26Zm-7.52,0a3.26,3.26,0,1,1,3.26,3.26,3.26,3.26,0,0,1-3.26-3.26Z"/><polygon class="cls-7" points="143.5 185.94 147.56 195.89 143.5 193.53 139.44 195.89 143.5 185.94"/></g><polyline class="cls-9" points="213.39 263.95 200.41 276.42 204.49 258.89"/><path class="cls-10" d="M201.12,275.13a1.43,1.43,0,1,1-2,.55h0a1.42,1.42,0,0,1,1.94-.54"/><path class="cls-12" d="M194.5,271.5c-1-5,4-14,12-9"/><polygon class="cls-13" points="211.29 265.49 202.82 264.03 206.14 262.28 206.26 258.52 211.29 265.49"/><text class="cls-14" transform="translate(26.93 300.4)">Forward stroke</text><text class="cls-14" transform="translate(163.71 301.4)"><tspan class="cls-15">T</tspan><tspan x="6.44" y="0">umbling</tspan></text><g class="cls-4"><line class="cls-5" x1="27" y1="110" x2="106" y2="110"/><path class="cls-6" d="M27,113.76A3.76,3.76,0,1,1,30.76,110,3.76,3.76,0,0,1,27,113.76Z"/><path class="cls-7" d="M27,114.26A4.26,4.26,0,1,0,22.74,110,4.26,4.26,0,0,0,27,114.26Zm0-7.52A3.26,3.26,0,1,1,23.74,110,3.26,3.26,0,0,1,27,106.74Z"/><polygon class="cls-7" points="113.06 110 103.11 114.06 105.47 110 103.11 105.94 113.06 110"/><line class="cls-5" x1="26.5" y1="110" x2="26.5" y2="31"/><path class="cls-6" d="M30.26,110a3.76,3.76,0,1,1-3.76-3.76A3.76,3.76,0,0,1,30.26,110Z"/><path class="cls-7" d="M30.76,110a4.26,4.26,0,1,0-4.26,4.26A4.26,4.26,0,0,0,30.76,110Zm-7.52,0a3.26,3.26,0,1,1,3.26,3.26A3.26,3.26,0,0,1,23.24,110Z"/><polygon class="cls-7" points="26.5 23.94 30.57 33.89 26.5 31.53 22.44 33.89 26.5 23.94"/></g><polyline class="cls-9" points="76.22 105.44 93.48 110.56 76.22 115.68"/><path class="cls-10" d="M92,110.58A1.43,1.43,0,1,1,93.44,112h0A1.43,1.43,0,0,1,92,110.58"/><polyline class="cls-11" points="21.07 97.83 33.79 110.56 21.07 123.28"/><path class="cls-10" d="M32.37,110.58A1.43,1.43,0,1,1,33.81,112h0a1.44,1.44,0,0,1-1.42-1.42"/><line class="cls-12" x1="32" y1="100" x2="84.35" y2="100"/><polygon class="cls-13" points="90 100 82.04 103.25 83.93 100 82.04 96.75 90 100"/><g class="cls-4"><line class="cls-5" x1="274" y1="110" x2="353" y2="110"/><path class="cls-6" d="M274,113.76a3.76,3.76,0,1,1,3.76-3.76A3.76,3.76,0,0,1,274,113.76Z"/><path class="cls-7" d="M274,114.26a4.26,4.26,0,1,0-4.26-4.26,4.26,4.26,0,0,0,4.26,4.26Zm0-7.52a3.26,3.26,0,1,1-3.26,3.26,3.26,3.26,0,0,1,3.26-3.26Z"/><polygon class="cls-7" points="360.06 110 350.11 114.06 352.47 110 350.11 105.94 360.06 110"/><line class="cls-5" x1="273.5" y1="110" x2="273.5" y2="31"/><path class="cls-6" d="M277.26,110a3.76,3.76,0,1,1-3.76-3.76A3.76,3.76,0,0,1,277.26,110Z"/><path class="cls-7" d="M277.76,110a4.26,4.26,0,1,0-4.26,4.26,4.26,4.26,0,0,0,4.26-4.26Zm-7.52,0a3.26,3.26,0,1,1,3.26,3.26,3.26,3.26,0,0,1-3.26-3.26Z"/><polygon class="cls-7" points="273.5 23.94 277.56 33.89 273.5 31.53 269.44 33.89 273.5 23.94"/></g><polyline class="cls-11" points="323.22 105.44 340.48 110.56 323.22 115.68"/><path class="cls-10" d="M339,110.58a1.43,1.43,0,1,1,1.44,1.42h0a1.43,1.43,0,0,1-1.43-1.42"/><polyline class="cls-9" points="268.07 97.83 280.79 110.56 268.07 123.28"/><path class="cls-10" d="M279.37,110.58a1.43,1.43,0,1,1,1.44,1.42h0a1.44,1.44,0,0,1-1.42-1.42"/><line class="cls-12" x1="284.65" y1="100" x2="337" y2="100"/><polygon class="cls-13" points="279 100 286.96 103.25 285.07 100 286.96 96.75 279 100"/><g class="cls-4"><line class="cls-5" x1="144" y1="109" x2="223" y2="109"/><path class="cls-6" d="M144,112.76a3.76,3.76,0,1,1,3.76-3.76A3.76,3.76,0,0,1,144,112.76Z"/><path class="cls-7" d="M144,113.26a4.26,4.26,0,1,0-4.26-4.26,4.26,4.26,0,0,0,4.26,4.26Zm0-7.52a3.26,3.26,0,1,1-3.26,3.26,3.26,3.26,0,0,1,3.26-3.26Z"/><polygon class="cls-7" points="230.06 109 220.11 113.06 222.47 109 220.11 104.94 230.06 109"/><line class="cls-5" x1="143.5" y1="109" x2="143.5" y2="30"/><path class="cls-6" d="M147.26,109a3.76,3.76,0,1,1-3.76-3.76A3.76,3.76,0,0,1,147.26,109Z"/><path class="cls-7" d="M147.76,109a4.26,4.26,0,1,0-4.26,4.26,4.26,4.26,0,0,0,4.26-4.26Zm-7.52,0a3.26,3.26,0,1,1,3.26,3.26,3.26,3.26,0,0,1-3.26-3.26Z"/><polygon class="cls-7" points="143.5 22.94 147.56 32.89 143.5 30.53 139.44 32.89 143.5 22.94"/></g><polyline class="cls-9" points="197.43 102.7 214.25 109.13 196.65 112.91"/><path class="cls-10" d="M212.77,109a1.44,1.44,0,0,1,1.53-1.33,1.42,1.42,0,0,1,1.32,1.53,1.41,1.41,0,0,1-1.52,1.32h0a1.43,1.43,0,0,1-1.32-1.52"/><text class="cls-14" transform="translate(26.93 138.4)">Forward stroke</text><text class="cls-14" transform="translate(284.59 138.4)">Back stroke</text><text class="cls-14" transform="translate(284.59 299.4)">Back stroke</text><text class="cls-16" transform="translate(305.6 242.4)">r</text><line class="cls-17" x1="269" y1="269" x2="352.89" y2="220.53"/><polygon class="cls-18" points="359 217 352.42 225.5 352.43 220.8 348.35 218.46 359 217"/><text class="cls-19" transform="translate(3.15 12.08)">Reciprocal swimming without rotational di<tspan class="cls-20" x="220.09" y="0">f</tspan><tspan x="223.21" y="0">fusion</tspan></text><text class="cls-19" transform="translate(3.15 174.08)">Reciprocal swimming with rotational di<tspan class="cls-20" x="203.41" y="0">f</tspan><tspan x="206.53" y="0">fusion</tspan></text><text class="cls-19" transform="translate(3.15 346.08)">‘Enhanced di<tspan class="cls-20" x="69.39" y="0">f</tspan><tspan x="72.5" y="0">fusion</tspan><tspan class="cls-21" x="104.53" y="0">’</tspan><tspan x="106.75" y="0" xml:space="preserve"> through tumbling reciprocal swimming</tspan></text><path class="cls-22" d="M26.5,417.64c4.45-2.9,64-52.14,145-54.14,30.88-.76,140.49-.95,169.44-1"/><polygon class="cls-13" points="348 362.5 338.06 366.59 340.41 362.52 338.04 358.46 348 362.5"/><text class="cls-23" transform="translate(14.5 398.34)">D</text><text class="cls-24" transform="translate(16.65 421.34)">D</text><text class="cls-25" transform="translate(22.41 424) scale(0.58)">0</text><text class="cls-23" transform="translate(175.02 447.34)"><tspan xml:space="preserve"> ω</tspan></text><text class="cls-26" transform="translate(187.65 451.34) scale(0.58)">stroke</text><text class="cls-27" transform="translate(155.5 356.03)"><tspan xml:space="preserve"> ω</tspan></text><text class="cls-28" transform="translate(168.13 360.03) scale(0.58)">tumble</text><text class="cls-27" transform="translate(180.37 248.03)"><tspan xml:space="preserve"> ω</tspan></text><text class="cls-28" transform="translate(193.01 252.03) scale(0.58)">tumble</text><text class="cls-27" transform="translate(213.92 248.03)"><tspan xml:space="preserve"> &gt;&gt; 0</tspan></text><text class="cls-27" transform="translate(179.87 94.03)"><tspan xml:space="preserve"> ω</tspan></text><text class="cls-28" transform="translate(192.5 98.03) scale(0.58)">tumble</text><text class="cls-27" transform="translate(213.41 94.03)"><tspan xml:space="preserve"> ~ 0</tspan></text><line class="cls-12" x1="172.5" y1="368" x2="172.5" y2="439"/><text class="cls-29" transform="translate(190.77 396.62)"> <tspan class="cls-30" x="2.21" y="0">ω</tspan></text><text class="cls-31" transform="translate(199.71 399.29) scale(0.58)">tumble</text><text class="cls-32" transform="translate(214.95 396.62)"><tspan xml:space="preserve"> &lt; ω</tspan></text><text class="cls-31" transform="translate(230.76 399.29) scale(0.58)">stroke</text><text class="cls-29" transform="translate(244.7 396.62)"> <tspan class="cls-33" x="-53.93" y="11">Reciprocal swimming limited by </tspan><tspan class="cls-34" x="59.38" y="11">ω</tspan></text><text class="cls-35" transform="translate(310.29 410.29) scale(0.58)">tumble</text><text class="cls-29" transform="translate(190.77 418.62)">D <tspan class="cls-33" x="7.97" y="0">does not increase further with</tspan><tspan class="cls-34" x="112.43" y="0"> </tspan><tspan class="cls-36" x="114.64" y="0">ω</tspan></text><text class="cls-35" transform="translate(311.62 421.29) scale(0.58)">stroke</text><text class="cls-29" transform="translate(70.62 396.62)"> <tspan class="cls-30" x="2.21" y="0">ω</tspan></text><text class="cls-31" transform="translate(79.57 399.29) scale(0.58)">tumble</text><text class="cls-32" transform="translate(94.8 396.62)"><tspan xml:space="preserve"> &gt; ω</tspan></text><text class="cls-31" transform="translate(110.61 399.29) scale(0.58)">stroke</text><text class="cls-29" transform="translate(124.55 396.62)"> <tspan class="cls-33" x="-53.93" y="11">Reversibility of reciprocal </tspan><tspan class="cls-33" x="-53.93" y="22">swimming broken by</tspan><tspan x="18.69" y="22"> </tspan><tspan x="20.9" y="22">ω</tspan></text><text class="cls-37" transform="translate(151.66 421.29) scale(0.58)">tumble</text><text class="cls-29" transform="translate(165.61 418.62)">.<tspan x="-94.99" y="11">D </tspan><tspan class="cls-33" x="-87.02" y="11">increases with</tspan><tspan x="-36.56" y="11"> </tspan><tspan x="-34.35" y="11">ω</tspan></text><text class="cls-37" transform="translate(137.47 432.29) scale(0.58)">stroke</text><text class="cls-29" transform="translate(150.11 429.62)"> </text></svg>