<svg id="Layer_1" data-name="Layer 1" xmlns="http://www.w3.org/2000/svg" viewBox="0 0 378 397"><defs><style>.cls-1{fill:#f7f6e7;}.cls-2{fill:#f4cbf1;}.cls-3{fill:#d0f2cc;}.cls-4{fill:#e6f2f4;}.cls-10,.cls-4,.cls-9{stroke:#000;}.cls-10,.cls-12,.cls-13,.cls-18,.cls-23,.cls-4,.cls-6,.cls-9{stroke-miterlimit:10;}.cls-5{opacity:0.7;}.cls-10,.cls-12,.cls-13,.cls-18,.cls-23,.cls-6,.cls-9{fill:none;}.cls-6{stroke:#fc7272;}.cls-7{fill:#fff;}.cls-8{fill:#fc7272;}.cls-10,.cls-12{stroke-width:1.78px;}.cls-11{fill:#b4b4b4;}.cls-12{stroke:#666;}.cls-13,.cls-23{stroke:red;}.cls-13{stroke-width:0.8px;stroke-dasharray:4 4;}.cls-14,.cls-25,.cls-26,.cls-28{fill:red;}.cls-15,.cls-17,.cls-20,.cls-24,.cls-25,.cls-26,.cls-27,.cls-28,.cls-30,.cls-31,.cls-34{font-size:9px;}.cls-15,.cls-24,.cls-25,.cls-26,.cls-27,.cls-28,.cls-34{font-family:Arial-ItalicMT, Arial;}.cls-15,.cls-17,.cls-24,.cls-25,.cls-26,.cls-27,.cls-28,.cls-34{font-style:italic;}.cls-16{letter-spacing:-0.07em;}.cls-17,.cls-19{fill:#662d91;}.cls-17{font-family:Arial-BoldItalicMT, Arial;}.cls-17,.cls-29,.cls-30,.cls-31{font-weight:700;}.cls-18{stroke:#662d91;}.cls-20,.cls-32{font-family:ArialMT, Arial;}.cls-21{letter-spacing:-0.02em;}.cls-22{letter-spacing:-0.04em;}.cls-24,.cls-25,.cls-31{letter-spacing:0em;}.cls-26,.cls-27,.cls-30{letter-spacing:0em;}.cls-28,.cls-34{letter-spacing:0em;}.cls-29,.cls-30,.cls-31{font-family:Arial-BoldMT, Arial;}.cls-29,.cls-32{font-style:normal;}.cls-33{letter-spacing:0em;}.cls-35{letter-spacing:0em;}</style></defs><rect class="cls-1" x="-0.5" y="0.5" width="379" height="397"/><rect class="cls-2" x="175" y="307" width="172.5" height="76.5"/><rect class="cls-3" x="26" y="307.48" width="145" height="75.54"/><rect class="cls-4" x="-0.5" y="11.5" width="377" height="117"/><rect class="cls-4" x="0.5" y="151.5" width="377" height="120"/><g class="cls-5"><line class="cls-6" x1="27" y1="246" x2="106" y2="246"/><path class="cls-7" d="M27,249.76A3.76,3.76,0,1,1,30.76,246,3.76,3.76,0,0,1,27,249.76Z"/><path class="cls-8" d="M27,250.26A4.26,4.26,0,1,0,22.74,246,4.26,4.26,0,0,0,27,250.26Zm0-7.52A3.26,3.26,0,1,1,23.74,246,3.26,3.26,0,0,1,27,242.74Z"/><polygon class="cls-8" points="113.06 246 103.11 250.06 105.47 246 103.11 241.94 113.06 246"/><line class="cls-6" x1="26.5" y1="246" x2="26.5" y2="167"/><path class="cls-7" d="M30.26,246a3.76,3.76,0,1,1-3.76-3.76A3.76,3.76,0,0,1,30.26,246Z"/><path class="cls-8" d="M30.76,246a4.26,4.26,0,1,0-4.26,4.26A4.26,4.26,0,0,0,30.76,246Zm-7.52,0a3.26,3.26,0,1,1,3.26,3.26A3.26,3.26,0,0,1,23.24,246Z"/><polygon class="cls-8" points="26.5 159.94 30.57 169.89 26.5 167.53 22.44 169.89 26.5 159.94"/></g><line class="cls-9" x1="26.53" y1="383" x2="348" y2="383"/><polygon points="355.06 383 345.11 387.06 347.47 383 345.11 378.94 355.06 383"/><line class="cls-9" x1="26.5" y1="383" x2="26.5" y2="304"/><polygon points="26.5 296.94 30.57 306.89 26.5 304.53 22.44 306.89 26.5 296.94"/><polyline class="cls-10" points="76.22 241.44 93.48 246.56 76.22 251.68"/><path class="cls-11" d="M92,246.58A1.43,1.43,0,1,1,93.44,248h0A1.43,1.43,0,0,1,92,246.58"/><polyline class="cls-12" points="21.07 233.83 33.79 246.56 21.07 259.28"/><path class="cls-11" d="M32.37,246.58A1.43,1.43,0,1,1,33.81,248h0a1.44,1.44,0,0,1-1.42-1.42"/><g class="cls-5"><line class="cls-6" x1="269" y1="242" x2="348" y2="242"/><path class="cls-7" d="M269,245.76a3.76,3.76,0,1,1,3.76-3.76A3.76,3.76,0,0,1,269,245.76Z"/><path class="cls-8" d="M269,246.26a4.26,4.26,0,1,0-4.26-4.26,4.26,4.26,0,0,0,4.26,4.26Zm0-7.52a3.26,3.26,0,1,1-3.26,3.26,3.26,3.26,0,0,1,3.26-3.26Z"/><polygon class="cls-8" points="355.06 242 345.11 246.06 347.47 242 345.11 237.94 355.06 242"/><line class="cls-6" x1="268.5" y1="242" x2="268.5" y2="163"/><path class="cls-7" d="M272.26,242a3.76,3.76,0,1,1-3.76-3.76A3.76,3.76,0,0,1,272.26,242Z"/><path class="cls-8" d="M272.76,242a4.26,4.26,0,1,0-4.26,4.26,4.26,4.26,0,0,0,4.26-4.26Zm-7.52,0a3.26,3.26,0,1,1,3.26,3.26,3.26,3.26,0,0,1-3.26-3.26Z"/><polygon class="cls-8" points="268.5 155.94 272.56 165.89 268.5 163.53 264.44 165.89 268.5 155.94"/></g><polyline class="cls-12" points="338.39 233.95 325.41 246.42 329.49 228.89"/><path class="cls-11" d="M326.12,245.13a1.43,1.43,0,1,1-1.95.55h0a1.42,1.42,0,0,1,1.94-.54"/><polyline class="cls-10" points="372.27 189.78 354.92 194.54 350.15 177.19"/><path class="cls-11" d="M355.6,193.29a1.43,1.43,0,1,1-1.94.55h0a1.42,1.42,0,0,1,1.93-.54"/><line class="cls-13" x1="32" y1="236" x2="84.35" y2="236"/><polygon class="cls-14" points="90 236 82.04 239.25 83.93 236 82.04 232.75 90 236"/><line class="cls-13" x1="325.5" y1="246.61" x2="351.71" y2="200.41"/><polygon class="cls-14" points="354.5 195.5 353.4 204.03 351.5 200.78 347.74 200.82 354.5 195.5"/><polyline class="cls-12" points="195.24 239.01 212.26 244.86 194.8 249.24"/><path class="cls-11" d="M210.78,244.82a1.43,1.43,0,1,1,1.38,1.48h0a1.44,1.44,0,0,1-1.37-1.48"/><g class="cls-5"><line class="cls-6" x1="144" y1="245" x2="223" y2="245"/><path class="cls-7" d="M144,248.76a3.76,3.76,0,1,1,3.76-3.76A3.76,3.76,0,0,1,144,248.76Z"/><path class="cls-8" d="M144,249.26a4.26,4.26,0,1,0-4.26-4.26,4.26,4.26,0,0,0,4.26,4.26Zm0-7.52a3.26,3.26,0,1,1-3.26,3.26,3.26,3.26,0,0,1,3.26-3.26Z"/><polygon class="cls-8" points="230.06 245 220.11 249.06 222.47 245 220.11 240.94 230.06 245"/><line class="cls-6" x1="143.5" y1="245" x2="143.5" y2="166"/><path class="cls-7" d="M147.26,245a3.76,3.76,0,1,1-3.76-3.76A3.76,3.76,0,0,1,147.26,245Z"/><path class="cls-8" d="M147.76,245a4.26,4.26,0,1,0-4.26,4.26,4.26,4.26,0,0,0,4.26-4.26Zm-7.52,0a3.26,3.26,0,1,1,3.26,3.26,3.26,3.26,0,0,1-3.26-3.26Z"/><polygon class="cls-8" points="143.5 158.94 147.56 168.89 143.5 166.53 139.44 168.89 143.5 158.94"/></g><polyline class="cls-10" points="213.39 236.95 200.41 249.42 204.49 231.89"/><path class="cls-11" d="M201.12,248.13a1.43,1.43,0,1,1-2,.55h0a1.42,1.42,0,0,1,1.94-.54"/><path class="cls-13" d="M194.5,244.5c-1-5,4-14,12-9"/><polygon class="cls-14" points="211.29 238.49 202.82 237.03 206.14 235.28 206.26 231.52 211.29 238.49"/><text class="cls-15" transform="translate(36.93 265.25)">Forward stroke</text><text class="cls-15" transform="translate(169.76 266.25)"><tspan class="cls-16">T</tspan><tspan x="4.83" y="0">umbling</tspan></text><g class="cls-5"><line class="cls-6" x1="27" y1="102" x2="106" y2="102"/><path class="cls-7" d="M27,105.76A3.76,3.76,0,1,1,30.76,102,3.76,3.76,0,0,1,27,105.76Z"/><path class="cls-8" d="M27,106.26A4.26,4.26,0,1,0,22.74,102,4.26,4.26,0,0,0,27,106.26Zm0-7.52A3.26,3.26,0,1,1,23.74,102,3.26,3.26,0,0,1,27,98.74Z"/><polygon class="cls-8" points="113.06 102 103.11 106.06 105.47 102 103.11 97.94 113.06 102"/><line class="cls-6" x1="26.5" y1="102" x2="26.5" y2="23"/><path class="cls-7" d="M30.26,102a3.76,3.76,0,1,1-3.76-3.76A3.76,3.76,0,0,1,30.26,102Z"/><path class="cls-8" d="M30.76,102a4.26,4.26,0,1,0-4.26,4.26A4.26,4.26,0,0,0,30.76,102Zm-7.52,0a3.26,3.26,0,1,1,3.26,3.26A3.26,3.26,0,0,1,23.24,102Z"/><polygon class="cls-8" points="26.5 15.94 30.57 25.89 26.5 23.53 22.44 25.89 26.5 15.94"/></g><polyline class="cls-10" points="76.22 97.44 93.48 102.56 76.22 107.68"/><path class="cls-11" d="M92,102.58A1.43,1.43,0,1,1,93.44,104h0A1.43,1.43,0,0,1,92,102.58"/><polyline class="cls-12" points="21.07 89.83 33.79 102.56 21.07 115.28"/><path class="cls-11" d="M32.37,102.58A1.43,1.43,0,1,1,33.81,104h0a1.44,1.44,0,0,1-1.42-1.42"/><line class="cls-13" x1="32" y1="92" x2="84.35" y2="92"/><polygon class="cls-14" points="90 92 82.04 95.25 83.93 92 82.04 88.75 90 92"/><g class="cls-5"><line class="cls-6" x1="274" y1="102" x2="353" y2="102"/><path class="cls-7" d="M274,105.76a3.76,3.76,0,1,1,3.76-3.76A3.76,3.76,0,0,1,274,105.76Z"/><path class="cls-8" d="M274,106.26a4.26,4.26,0,1,0-4.26-4.26,4.26,4.26,0,0,0,4.26,4.26Zm0-7.52a3.26,3.26,0,1,1-3.26,3.26A3.26,3.26,0,0,1,274,98.74Z"/><polygon class="cls-8" points="360.06 102 350.11 106.06 352.47 102 350.11 97.94 360.06 102"/><line class="cls-6" x1="273.5" y1="102" x2="273.5" y2="23"/><path class="cls-7" d="M277.26,102a3.76,3.76,0,1,1-3.76-3.76A3.76,3.76,0,0,1,277.26,102Z"/><path class="cls-8" d="M277.76,102a4.26,4.26,0,1,0-4.26,4.26,4.26,4.26,0,0,0,4.26-4.26Zm-7.52,0a3.26,3.26,0,1,1,3.26,3.26,3.26,3.26,0,0,1-3.26-3.26Z"/><polygon class="cls-8" points="273.5 15.94 277.56 25.89 273.5 23.53 269.44 25.89 273.5 15.94"/></g><polyline class="cls-12" points="323.22 97.44 340.48 102.56 323.22 107.68"/><path class="cls-11" d="M339,102.58a1.43,1.43,0,1,1,1.44,1.42h0a1.43,1.43,0,0,1-1.43-1.42"/><polyline class="cls-10" points="268.07 89.83 280.79 102.56 268.07 115.28"/><path class="cls-11" d="M279.37,102.58a1.43,1.43,0,1,1,1.44,1.42h0a1.44,1.44,0,0,1-1.42-1.42"/><line class="cls-13" x1="284.65" y1="92" x2="337" y2="92"/><polygon class="cls-14" points="279 92 286.96 95.25 285.07 92 286.96 88.75 279 92"/><g class="cls-5"><line class="cls-6" x1="144" y1="101" x2="223" y2="101"/><path class="cls-7" d="M144,104.76a3.76,3.76,0,1,1,3.76-3.76A3.76,3.76,0,0,1,144,104.76Z"/><path class="cls-8" d="M144,105.26a4.26,4.26,0,1,0-4.26-4.26,4.26,4.26,0,0,0,4.26,4.26Zm0-7.52a3.26,3.26,0,1,1-3.26,3.26A3.26,3.26,0,0,1,144,97.74Z"/><polygon class="cls-8" points="230.06 101 220.11 105.06 222.47 101 220.11 96.94 230.06 101"/><line class="cls-6" x1="143.5" y1="101" x2="143.5" y2="22"/><path class="cls-7" d="M147.26,101a3.76,3.76,0,1,1-3.76-3.76A3.76,3.76,0,0,1,147.26,101Z"/><path class="cls-8" d="M147.76,101a4.26,4.26,0,1,0-4.26,4.26,4.26,4.26,0,0,0,4.26-4.26Zm-7.52,0a3.26,3.26,0,1,1,3.26,3.26,3.26,3.26,0,0,1-3.26-3.26Z"/><polygon class="cls-8" points="143.5 14.94 147.56 24.89 143.5 22.53 139.44 24.89 143.5 14.94"/></g><polyline class="cls-10" points="197.43 94.7 214.25 101.13 196.65 104.91"/><path class="cls-11" d="M212.77,101a1.44,1.44,0,0,1,1.53-1.33,1.42,1.42,0,0,1,1.32,1.53,1.41,1.41,0,0,1-1.52,1.32h0a1.43,1.43,0,0,1-1.32-1.52"/><text class="cls-15" transform="translate(36.93 121.25)">Forward stroke</text><text class="cls-15" transform="translate(292.43 121.25)">Back stroke</text><text class="cls-15" transform="translate(292.43 264.25)">Back stroke</text><text class="cls-17" transform="translate(306.18 213.25)">r</text><line class="cls-18" x1="269" y1="242" x2="352.89" y2="193.53"/><polygon class="cls-19" points="359 190 352.42 198.5 352.43 193.8 348.35 191.46 359 190"/><text class="cls-20" transform="translate(3.15 8.08)">Reciprocal swimming without rotational di<tspan class="cls-21" x="165.07" y="0">f</tspan><tspan x="167.41" y="0">fusion</tspan></text><text class="cls-20" transform="translate(3.15 147.08)">Reciprocal swimming with rotational di<tspan class="cls-21" x="152.56" y="0">f</tspan><tspan x="154.89" y="0">fusion</tspan></text><text class="cls-20" transform="translate(3.15 290.08)">‘Enhanced di<tspan class="cls-21" x="52.04" y="0">f</tspan><tspan x="54.38" y="0">fusion</tspan><tspan class="cls-22" x="78.39" y="0">’</tspan><tspan x="80.06" y="0" xml:space="preserve"> through tumbling reciprocal swimming</tspan></text><path class="cls-23" d="M26.5,361.64c4.45-2.9,64-52.14,145-54.14,30.88-.76,140.49-.95,169.44-1"/><polygon class="cls-14" points="348 306.5 338.06 310.59 340.41 306.52 338.04 302.46 348 306.5"/><text class="cls-24" transform="translate(15.58 342.34)">D</text><text class="cls-25" transform="translate(16.13 365.34)">D</text><text class="cls-26" transform="translate(22.61 368.34) scale(0.58)">0</text><text class="cls-24" transform="translate(178.97 391.34)"><tspan xml:space="preserve"> ω</tspan></text><text class="cls-27" transform="translate(188.45 394.34) scale(0.58)">stroke</text><text class="cls-25" transform="translate(159.69 303.03)"><tspan xml:space="preserve"> ω</tspan></text><text class="cls-28" transform="translate(169.17 306.03) scale(0.58)">tumble</text><text class="cls-25" transform="translate(187.98 221.03)"><tspan xml:space="preserve"> ω</tspan></text><text class="cls-28" transform="translate(197.45 224.03) scale(0.58)">tumble</text><text class="cls-25" transform="translate(213.13 221.03)"><tspan xml:space="preserve"> &gt;&gt; 0</tspan></text><text class="cls-25" transform="translate(186.59 86.03)"><tspan xml:space="preserve"> ω</tspan></text><text class="cls-28" transform="translate(196.07 89.03) scale(0.58)">tumble</text><text class="cls-25" transform="translate(211.75 86.03)"><tspan xml:space="preserve"> ~ 0</tspan></text><line class="cls-13" x1="172.5" y1="312" x2="172.5" y2="383"/><text class="cls-24" transform="translate(183.77 346.34)"> <tspan class="cls-29" x="2.48" y="0">ω</tspan></text><text class="cls-30" transform="translate(193.83 349.33) scale(0.58)">tumble</text><text class="cls-31" transform="translate(210.97 346.34)"><tspan xml:space="preserve"> &lt; ω</tspan></text><text class="cls-30" transform="translate(228.76 349.33) scale(0.58)">stroke</text><text class="cls-24" transform="translate(244.44 346.34)"> <tspan class="cls-32" x="-60.68" y="11">Reciprocal swimming limited by </tspan><tspan class="cls-33" x="66.8" y="11">ω</tspan></text><text class="cls-34" transform="translate(318.23 360.33) scale(0.58)">tumble</text><text class="cls-24" transform="translate(183.77 368.34)">D <tspan class="cls-32" x="8.96" y="0">does not increase further with</tspan><tspan class="cls-33" x="126.49" y="0"> </tspan><tspan class="cls-35" x="128.97" y="0">ω</tspan></text><text class="cls-34" transform="translate(319.73 371.33) scale(0.58)">stroke</text><text class="cls-24" transform="translate(62.62 346.34)"> <tspan class="cls-29" x="2.48" y="0">ω</tspan></text><text class="cls-30" transform="translate(72.68 349.33) scale(0.58)">tumble</text><text class="cls-31" transform="translate(89.82 346.34)"><tspan xml:space="preserve"> &gt; ω</tspan></text><text class="cls-30" transform="translate(107.61 349.33) scale(0.58)">stroke</text><text class="cls-24" transform="translate(123.29 346.34)"> <tspan class="cls-32" x="-60.68" y="11">Reversibility of reciprocal </tspan><tspan class="cls-32" x="-60.68" y="22">swimming broken by</tspan><tspan x="21.03" y="22"> </tspan><tspan x="23.51" y="22">ω</tspan></text><text class="cls-27" transform="translate(153.79 371.33) scale(0.58)">tumble</text><text class="cls-24" transform="translate(169.48 368.34)">.<tspan x="-106.86" y="11">D </tspan><tspan class="cls-32" x="-97.9" y="11">increases with</tspan><tspan x="-41.13" y="11"> </tspan><tspan x="-38.65" y="11">ω</tspan></text><text class="cls-27" transform="translate(137.83 382.33) scale(0.58)">stroke</text><text class="cls-24" transform="translate(152.05 379.34)"> </text></svg>