<svg id="Layer_1" data-name="Layer 1" xmlns="http://www.w3.org/2000/svg" xmlns:xlink="http://www.w3.org/1999/xlink" viewBox="0 0 434.7 77.75"><defs><style>.cls-1,.cls-10,.cls-11,.cls-12,.cls-13,.cls-4,.cls-6{fill:none;}.cls-2{clip-path:url(#clip-path);}.cls-3{clip-path:url(#clip-path-2);}.cls-4{stroke:#000;stroke-width:1.78px;}.cls-10,.cls-11,.cls-12,.cls-13,.cls-4,.cls-6{stroke-miterlimit:10;}.cls-5{fill:#b4b4b4;}.cls-13,.cls-6{stroke:#ec2f2a;}.cls-10,.cls-11,.cls-12,.cls-6{stroke-width:0.59px;}.cls-7{fill:#ec2f2a;}.cls-8{font-size:9.52px;fill:#231f20;font-family:Helvetica;}.cls-9{fill:#fdf6b7;}.cls-10,.cls-11,.cls-12{stroke:#231f20;}.cls-11{stroke-dasharray:7.34 7.34;}.cls-12{stroke-dasharray:8.39 8.39;}.cls-13{stroke-width:2px;}</style><clipPath id="clip-path"><rect class="cls-1" width="434.7" height="77.75"/></clipPath><clipPath id="clip-path-2"><rect class="cls-1" x="0.5" y="0.85" width="433.16" height="76.4"/></clipPath></defs><g class="cls-2"><g class="cls-3"><polyline class="cls-4" points="1.13 30.8 10.16 21.77 26.82 21.77 35.85 12.74"/><path class="cls-5" d="M11.59,21.77a1.43,1.43,0,1,1-2.85,0,1.43,1.43,0,0,1,2.85,0"/><path class="cls-5" d="M28,21.7a1.43,1.43,0,1,1-1.43-1.43A1.42,1.42,0,0,1,28,21.7"/><polyline class="cls-4" points="55.33 51.32 64.36 60.35 81.02 60.35 90.05 69.38"/><path class="cls-5" d="M65.79,60.35a1.43,1.43,0,1,0-1.43,1.43,1.42,1.42,0,0,0,1.43-1.43"/><path class="cls-5" d="M82.15,60.43a1.43,1.43,0,1,0-1.43,1.42,1.43,1.43,0,0,0,1.43-1.42"/><polyline class="cls-4" points="55.33 12.74 64.36 21.77 81.02 21.77 90.05 12.74"/><path class="cls-5" d="M65.79,21.77a1.43,1.43,0,1,0-1.43,1.43,1.42,1.42,0,0,0,1.43-1.43"/><path class="cls-5" d="M82.15,21.7a1.43,1.43,0,1,1-1.43-1.43,1.42,1.42,0,0,1,1.43,1.43"/><polyline class="cls-4" points="1.13 69.38 10.16 60.35 26.82 60.35 35.85 69.38"/><path class="cls-5" d="M11.59,60.35a1.43,1.43,0,1,1-2.85,0,1.43,1.43,0,0,1,2.85,0"/><path class="cls-5" d="M28,60.43a1.43,1.43,0,1,0-1.43,1.42A1.43,1.43,0,0,0,28,60.43"/><path class="cls-6" d="M79,50.31a34.49,34.49,0,0,0-1.39-22.55"/><polyline class="cls-7" points="77.63 54.29 81.77 49.42 79.04 50 77.18 47.91 77.63 54.29"/><path class="cls-6" d="M32.29,9.05a34.56,34.56,0,0,1,22.56-1.4"/><polyline class="cls-7" points="58.82 9.01 52.44 9.47 54.53 7.61 53.94 4.88 58.82 9.01"/><path class="cls-6" d="M12.18,31.81a34.51,34.51,0,0,0,1.39,22.56"/><polyline class="cls-7" points="13.55 27.84 9.41 32.71 12.14 32.13 14 34.21 13.55 27.84"/><path class="cls-6" d="M36.33,74.48a34.5,34.5,0,0,0,22.56-1.41"/><polyline class="cls-7" points="32.36 73.11 37.23 77.25 36.65 74.51 38.74 72.65 32.36 73.11"/><text class="cls-8" transform="translate(1.13 9.03)">a)</text><line class="cls-4" x1="186.78" y1="21.71" x2="210.88" y2="21.71"/><line class="cls-4" x1="210.88" y1="21.71" x2="222.93" y2="21.71"/><path class="cls-5" d="M190.85,21.71a4.07,4.07,0,1,1-4.07-4.06,4.07,4.07,0,0,1,4.07,4.06"/><path class="cls-5" d="M227,21.71a4.07,4.07,0,1,1-4.06-4.06A4.07,4.07,0,0,1,227,21.71"/><path class="cls-5" d="M214.94,21.71a4.07,4.07,0,1,1-4.06-4.06,4.07,4.07,0,0,1,4.06,4.06"/><line class="cls-4" x1="125.98" y1="21.71" x2="138.03" y2="21.71"/><line class="cls-4" x1="138.03" y1="21.71" x2="150.07" y2="21.71"/><path class="cls-5" d="M130.05,21.71A4.07,4.07,0,1,1,126,17.65a4.07,4.07,0,0,1,4.07,4.06"/><path class="cls-5" d="M154.14,21.71a4.07,4.07,0,1,1-4.07-4.06,4.07,4.07,0,0,1,4.07,4.06"/><path class="cls-5" d="M142.09,21.71A4.07,4.07,0,1,1,138,17.65a4.07,4.07,0,0,1,4.06,4.06"/><line class="cls-4" x1="156.1" y1="60.41" x2="132" y2="60.41"/><line class="cls-4" x1="132" y1="60.41" x2="119.96" y2="60.41"/><path class="cls-5" d="M124,60.41A4.07,4.07,0,1,1,120,56.35,4.07,4.07,0,0,1,124,60.41"/><path class="cls-5" d="M160.16,60.41a4.07,4.07,0,1,1-4.06-4.06,4.07,4.07,0,0,1,4.06,4.06"/><path class="cls-5" d="M127.94,60.41A4.07,4.07,0,1,0,132,56.35a4.07,4.07,0,0,0-4.06,4.06"/><line class="cls-4" x1="204.52" y1="60.41" x2="228.61" y2="60.41"/><line class="cls-4" x1="180.43" y1="60.41" x2="204.52" y2="60.41"/><path class="cls-5" d="M184.49,60.41a4.07,4.07,0,1,1-4.06-4.06,4.07,4.07,0,0,1,4.06,4.06"/><path class="cls-5" d="M233.35,60.41a4.07,4.07,0,1,1-4.07-4.06,4.07,4.07,0,0,1,4.07,4.06"/><path class="cls-5" d="M208.59,60.41a4.07,4.07,0,1,1-4.07-4.06,4.07,4.07,0,0,1,4.07,4.06"/><path class="cls-6" d="M208,50.31a34.49,34.49,0,0,0-1.39-22.55"/><polyline class="cls-7" points="206.66 54.29 210.8 49.42 208.07 50 206.21 47.91 206.66 54.29"/><path class="cls-6" d="M161.31,9.05a34.59,34.59,0,0,1,22.57-1.4"/><polyline class="cls-7" points="187.85 9.01 181.47 9.47 183.56 7.61 182.97 4.88 187.85 9.01"/><path class="cls-6" d="M141.21,31.81a34.51,34.51,0,0,0,1.39,22.56"/><polyline class="cls-7" points="142.58 27.84 138.44 32.71 141.17 32.13 143.03 34.21 142.58 27.84"/><path class="cls-6" d="M165.36,74.48a34.53,34.53,0,0,0,22.57-1.41"/><polyline class="cls-7" points="161.39 73.11 166.26 77.25 165.68 74.51 167.77 72.65 161.39 73.11"/><text class="cls-8" transform="translate(115.89 9.03)">b)</text><line class="cls-4" x1="264.74" y1="16.48" x2="276.79" y2="16.48"/><path class="cls-5" d="M268.81,16.47a4.07,4.07,0,1,1-4.07-4.06,4.07,4.07,0,0,1,4.07,4.06"/><path class="cls-5" d="M280.86,16.47a4.07,4.07,0,1,1-4.07-4.06,4.07,4.07,0,0,1,4.07,4.06"/><line class="cls-4" x1="263.26" y1="62.68" x2="275.31" y2="62.68"/><path class="cls-5" d="M267.32,62.67a4.07,4.07,0,1,1-4.06-4.06,4.07,4.07,0,0,1,4.06,4.06"/><path class="cls-5" d="M282.35,62.67a7,7,0,1,1-7-7,7.05,7.05,0,0,1,7,7"/><line class="cls-4" x1="304.7" y1="16.48" x2="328.8" y2="16.48"/><path class="cls-5" d="M308.77,16.47a4.07,4.07,0,1,1-4.07-4.06,4.07,4.07,0,0,1,4.07,4.06"/><path class="cls-5" d="M332.86,16.47a4.07,4.07,0,1,1-4.06-4.06,4.07,4.07,0,0,1,4.06,4.06"/><line class="cls-4" x1="303.21" y1="62.68" x2="327.31" y2="62.68"/><path class="cls-5" d="M307.28,62.67a4.07,4.07,0,1,1-4.07-4.06,4.07,4.07,0,0,1,4.07,4.06"/><path class="cls-5" d="M334.35,62.67a7,7,0,1,1-7-7,7.05,7.05,0,0,1,7,7"/><path class="cls-6" d="M330.18,50.31a34.52,34.52,0,0,0-1.39-22.56"/><polyline class="cls-7" points="328.81 54.29 332.95 49.42 330.22 50 328.36 47.91 328.81 54.29"/><path class="cls-6" d="M283.46,9.05A34.59,34.59,0,0,1,306,7.65"/><polyline class="cls-7" points="310 9.01 303.62 9.47 305.71 7.61 305.12 4.88 310 9.01"/><path class="cls-6" d="M263.36,31.81a34.51,34.51,0,0,0,1.39,22.56"/><polyline class="cls-7" points="264.73 27.84 260.59 32.71 263.32 32.13 265.18 34.21 264.73 27.84"/><path class="cls-6" d="M287.51,74.48a34.5,34.5,0,0,0,22.56-1.41"/><polyline class="cls-7" points="283.54 73.11 288.41 77.25 287.83 74.51 289.92 72.65 283.54 73.11"/><text class="cls-8" transform="translate(259.19 9.03)">c)</text><rect class="cls-9" x="360.19" y="16.48" width="73.18" height="49.09"/><polyline class="cls-10" points="433.37 62 433.37 65.57 429.8 65.57"/><line class="cls-11" x1="422.46" y1="65.57" x2="367.43" y2="65.57"/><polyline class="cls-10" points="363.76 65.57 360.19 65.57 360.19 62"/><line class="cls-12" x1="360.19" y1="53.61" x2="360.19" y2="24.24"/><polyline class="cls-10" points="360.19 20.05 360.19 16.48 363.76 16.48"/><line class="cls-11" x1="371.1" y1="16.48" x2="426.13" y2="16.48"/><polyline class="cls-10" points="429.8 16.48 433.37 16.48 433.37 20.05"/><line class="cls-12" x1="433.37" y1="28.44" x2="433.37" y2="57.8"/><text class="cls-8" transform="translate(360.19 9.9)">d)</text><polyline class="cls-4" points="430.78 46.14 413.52 41.02 430.78 35.9"/><path class="cls-5" d="M415,41a1.43,1.43,0,1,1-1.43-1.42A1.43,1.43,0,0,1,415,41"/><polyline class="cls-4" points="376.93 53.75 364.21 41.02 376.93 28.3"/><path class="cls-5" d="M365.63,41a1.43,1.43,0,1,1-1.42-1.42A1.43,1.43,0,0,1,365.63,41"/><path class="cls-13" d="M404.9,25.87a17.75,17.75,0,0,0-21.81,2.6"/><polyline class="cls-7" points="408.2 28.47 404.95 22.96 404.6 25.74 402.02 26.82 408.2 28.47"/><path class="cls-6" d="M408.2,53.57a17.74,17.74,0,0,1-21.8,2.61"/><polyline class="cls-7" points="383.09 53.58 389.27 55.23 386.69 56.3 386.35 59.08 383.09 53.58"/></g></g></svg>