<svg id="Layer_1" data-name="Layer 1" xmlns="http://www.w3.org/2000/svg" xmlns:xlink="http://www.w3.org/1999/xlink" viewBox="0 0 378.85 69.84"><defs><style>.cls-1,.cls-11,.cls-12,.cls-13,.cls-14,.cls-5,.cls-7{fill:none;}.cls-2{fill:#f7f6e7;}.cls-3{clip-path:url(#clip-path);}.cls-4{clip-path:url(#clip-path-2);}.cls-5{stroke:#000;stroke-width:1.78px;}.cls-11,.cls-12,.cls-13,.cls-14,.cls-5,.cls-7{stroke-miterlimit:10;}.cls-6{fill:#b4b4b4;}.cls-14,.cls-7{stroke:#ec2f2a;}.cls-11,.cls-12,.cls-13,.cls-7{stroke-width:0.59px;}.cls-8{fill:#ec2f2a;}.cls-9{isolation:isolate;font-size:9px;fill:#231f20;font-family:ArialMT, Arial;}.cls-10{fill:#fdf6b7;}.cls-11,.cls-12,.cls-13{stroke:#231f20;}.cls-12{stroke-dasharray:7.34 7.34;}.cls-13{stroke-dasharray:8.39 8.39;}.cls-14{stroke-width:2px;}</style><clipPath id="clip-path"><rect class="cls-1" x="0.64" y="2.52" width="377.13" height="67.45"/></clipPath><clipPath id="clip-path-2"><rect class="cls-1" x="1.07" y="3.26" width="375.8" height="66.28"/></clipPath></defs><rect class="cls-2" x="0.61" width="377.39" height="70.31"/><g class="cls-3"><g class="cls-4"><polyline class="cls-5" points="1.62 29.24 9.46 21.41 23.91 21.41 31.74 13.57"/><path class="cls-6" d="M10.7,21.41a1.24,1.24,0,0,1-2.48.2v-.2a1.24,1.24,0,0,1,2.48,0"/><path class="cls-6" d="M24.93,21.34a1.24,1.24,0,1,1-2.48,0,1.24,1.24,0,0,1,2.48,0h0"/><polyline class="cls-5" points="48.64 47.04 56.48 54.88 70.93 54.88 78.77 62.71"/><path class="cls-6" d="M57.72,54.88a1.24,1.24,0,1,0-1.24,1.24,1.24,1.24,0,0,0,1.24-1.24h0"/><path class="cls-6" d="M71.91,55a1.23,1.23,0,0,0-1.23-1.25,1.24,1.24,0,0,0-1.25,1.23,1.25,1.25,0,0,0,1.23,1.25h0A1.24,1.24,0,0,0,71.91,55"/><polyline class="cls-5" points="48.64 13.57 56.48 21.41 70.93 21.41 78.77 13.57"/><path class="cls-6" d="M57.72,21.41a1.24,1.24,0,1,0-1.24,1.24,1.25,1.25,0,0,0,1.24-1.24h0"/><path class="cls-6" d="M71.91,21.34a1.24,1.24,0,1,1-2.48,0,1.24,1.24,0,0,1,2.48,0h0"/><polyline class="cls-5" points="1.62 62.71 9.46 54.88 23.91 54.88 31.74 62.71"/><path class="cls-6" d="M10.7,54.88a1.24,1.24,0,0,1-2.48.2v-.2a1.24,1.24,0,0,1,2.48,0"/><path class="cls-6" d="M24.93,55A1.23,1.23,0,0,0,23.7,53.7a1.24,1.24,0,0,0-1.25,1.23,1.25,1.25,0,0,0,1.23,1.25h0A1.24,1.24,0,0,0,24.93,55"/><path class="cls-7" d="M69.18,46.17A29.89,29.89,0,0,0,68,26.6"/><polyline class="cls-8" points="67.99 49.62 71.58 45.39 69.21 45.9 67.6 44.08 67.99 49.62"/><path class="cls-7" d="M28.65,10.37A30,30,0,0,1,48.23,9.15"/><polyline class="cls-8" points="51.67 10.34 46.14 10.73 47.95 9.12 47.44 6.75 51.67 10.34"/><path class="cls-7" d="M11.21,30.12a30,30,0,0,0,1.2,19.57"/><polyline class="cls-8" points="12.4 26.67 8.8 30.9 11.17 30.39 12.79 32.2 12.4 26.67"/><path class="cls-7" d="M32.16,67.13a29.83,29.83,0,0,0,19.57-1.22"/><polyline class="cls-8" points="28.72 65.95 32.94 69.54 32.44 67.16 34.25 65.55 28.72 65.95"/><text class="cls-9" transform="translate(1.62 10.35)">a)</text><line class="cls-5" x1="162.69" y1="21.35" x2="183.59" y2="21.35"/><line class="cls-5" x1="183.59" y1="21.35" x2="194.05" y2="21.35"/><path class="cls-6" d="M166.22,21.35a3.53,3.53,0,1,1-3.54-3.52h0a3.54,3.54,0,0,1,3.53,3.52"/><path class="cls-6" d="M197.58,21.35A3.53,3.53,0,1,1,194,17.83h0a3.53,3.53,0,0,1,3.52,3.52"/><path class="cls-6" d="M187.12,21.35a3.54,3.54,0,1,1-3.54-3.52h0a3.54,3.54,0,0,1,3.53,3.52"/><line class="cls-5" x1="109.94" y1="21.35" x2="120.39" y2="21.35"/><line class="cls-5" x1="120.39" y1="21.35" x2="130.84" y2="21.35"/><path class="cls-6" d="M113.47,21.35a3.53,3.53,0,1,1-3.54-3.52h0a3.54,3.54,0,0,1,3.53,3.52"/><path class="cls-6" d="M134.37,21.35a3.53,3.53,0,1,1-3.54-3.52h0a3.54,3.54,0,0,1,3.53,3.52"/><path class="cls-6" d="M123.91,21.35a3.53,3.53,0,1,1-3.54-3.52,3.52,3.52,0,0,1,3.54,3.52"/><line class="cls-5" x1="136.07" y1="54.93" x2="115.16" y2="54.93"/><line class="cls-5" x1="115.16" y1="54.93" x2="104.71" y2="54.93"/><path class="cls-6" d="M108.22,54.93a3.53,3.53,0,1,1-3.54-3.52h.07a3.52,3.52,0,0,1,3.47,3.52"/><path class="cls-6" d="M139.59,54.93a3.53,3.53,0,1,1-3.54-3.52h0a3.52,3.52,0,0,1,3.52,3.52"/><path class="cls-6" d="M111.64,54.93a3.53,3.53,0,1,0,3.54-3.52h0a3.52,3.52,0,0,0-3.52,3.52"/><line class="cls-5" x1="178.08" y1="54.93" x2="198.98" y2="54.93"/><line class="cls-5" x1="157.18" y1="54.93" x2="178.08" y2="54.93"/><path class="cls-6" d="M160.7,54.93a3.53,3.53,0,1,1-3.54-3.52h0a3.53,3.53,0,0,1,3.52,3.52"/><path class="cls-6" d="M203.09,54.93a3.53,3.53,0,1,1-3.54-3.52h0a3.53,3.53,0,0,1,3.53,3.52"/><path class="cls-6" d="M181.61,54.93a3.53,3.53,0,1,1-3.54-3.52h0a3.53,3.53,0,0,1,3.53,3.52"/><path class="cls-7" d="M181.1,46.17a30,30,0,0,0-1.21-19.57"/><polyline class="cls-8" points="179.93 49.62 183.53 45.39 181.16 45.9 179.54 44.08 179.93 49.62"/><path class="cls-7" d="M140.59,10.37a30,30,0,0,1,19.58-1.22"/><polyline class="cls-8" points="163.61 10.34 158.08 10.73 159.89 9.12 159.38 6.75 163.61 10.34"/><path class="cls-7" d="M123.15,30.12a29.9,29.9,0,0,0,1.21,19.57"/><polyline class="cls-8" points="124.34 26.67 120.75 30.9 123.12 30.39 124.73 32.2 124.34 26.67"/><path class="cls-7" d="M144.1,67.13a29.86,29.86,0,0,0,19.58-1.22"/><polyline class="cls-8" points="140.66 65.95 144.88 69.54 144.38 67.16 146.19 65.55 140.66 65.95"/><text class="cls-9" transform="translate(101.18 10.35)">b)</text><line class="cls-5" x1="230.32" y1="16.82" x2="240.78" y2="16.82"/><path class="cls-6" d="M233.85,16.81a3.53,3.53,0,1,1-3.54-3.53h0a3.53,3.53,0,0,1,3.53,3.53"/><path class="cls-6" d="M244.31,16.81a3.53,3.53,0,1,1-3.54-3.53h0a3.54,3.54,0,0,1,3.53,3.53"/><line class="cls-5" x1="229.04" y1="56.9" x2="239.49" y2="56.9"/><path class="cls-6" d="M232.56,56.89A3.53,3.53,0,1,1,229,53.37h0a3.53,3.53,0,0,1,3.52,3.52"/><path class="cls-6" d="M245.6,56.89a6.08,6.08,0,1,1-6.07-6.07,6.07,6.07,0,0,1,6.07,6.07"/><line class="cls-5" x1="264.99" y1="16.82" x2="285.9" y2="16.82"/><path class="cls-6" d="M268.52,16.81A3.53,3.53,0,1,1,265,13.28h0a3.53,3.53,0,0,1,3.53,3.53"/><path class="cls-6" d="M289.42,16.81a3.53,3.53,0,1,1-3.54-3.53h0a3.53,3.53,0,0,1,3.52,3.53"/><line class="cls-5" x1="263.7" y1="56.9" x2="284.61" y2="56.9"/><path class="cls-6" d="M267.23,56.89a3.53,3.53,0,1,1-3.54-3.52h0a3.53,3.53,0,0,1,3.53,3.52"/><path class="cls-6" d="M290.71,56.89a6.07,6.07,0,1,1-6.07-6.07,6.07,6.07,0,0,1,6.07,6.07"/><path class="cls-7" d="M287.1,46.17a30,30,0,0,0-1.21-19.58"/><polyline class="cls-8" points="285.91 49.62 289.5 45.39 287.13 45.9 285.52 44.08 285.91 49.62"/><path class="cls-7" d="M246.56,10.37a30.06,30.06,0,0,1,19.56-1.22"/><polyline class="cls-8" points="269.59 10.34 264.05 10.73 265.87 9.12 265.36 6.75 269.59 10.34"/><path class="cls-7" d="M229.12,30.12a30,30,0,0,0,1.21,19.57"/><polyline class="cls-8" points="230.31 26.67 226.72 30.9 229.09 30.39 230.7 32.2 230.31 26.67"/><path class="cls-7" d="M250.08,67.13a29.83,29.83,0,0,0,19.57-1.22"/><polyline class="cls-8" points="246.63 65.95 250.86 69.54 250.35 67.16 252.17 65.55 246.63 65.95"/><text class="cls-9" transform="translate(225.51 10.35)">c)</text><rect class="cls-10" x="313.13" y="16.82" width="63.49" height="42.59"/><polyline class="cls-11" points="376.62 56.31 376.62 59.41 373.52 59.41"/><line class="cls-12" x1="367.16" y1="59.4" x2="319.41" y2="59.4"/><polyline class="cls-11" points="316.23 59.41 313.13 59.41 313.13 56.31"/><line class="cls-13" x1="313.13" y1="49.03" x2="313.13" y2="23.55"/><polyline class="cls-11" points="313.13 19.91 313.13 16.82 316.23 16.82"/><line class="cls-12" x1="322.6" y1="16.82" x2="370.34" y2="16.82"/><polyline class="cls-11" points="373.52 16.82 376.62 16.82 376.62 19.91"/><line class="cls-13" x1="376.62" y1="27.19" x2="376.62" y2="52.66"/><text class="cls-9" transform="translate(313.13 11.11)">d)</text><polyline class="cls-5" points="374.37 42.55 359.4 38.11 374.37 33.66"/><path class="cls-6" d="M360.68,38.09a1.24,1.24,0,0,1-1.23,1.25,1.25,1.25,0,0,1-1.25-1.23,1.24,1.24,0,0,1,1.23-1.25h0a1.24,1.24,0,0,1,1.24,1.23"/><polyline class="cls-5" points="327.65 49.15 316.62 38.11 327.65 27.07"/><path class="cls-6" d="M317.85,38.09a1.24,1.24,0,1,1-1.25-1.23h0a1.23,1.23,0,0,1,1.23,1.23"/><path class="cls-14" d="M351.92,25A15.4,15.4,0,0,0,333,27.22"/><polyline class="cls-8" points="354.78 27.22 351.96 22.44 351.66 24.85 349.42 25.79 354.78 27.22"/><path class="cls-7" d="M354.78,49a15.39,15.39,0,0,1-18.91,2.27"/><polyline class="cls-8" points="333 49 338.36 50.43 336.12 51.36 335.83 53.77 333 49"/></g></g></svg>