<svg id="Layer_1" data-name="Layer 1" xmlns="http://www.w3.org/2000/svg" xmlns:xlink="http://www.w3.org/1999/xlink" viewBox="0 0 450 470"><defs><style>.cls-1,.cls-12,.cls-20,.cls-21,.cls-51,.cls-52,.cls-8{fill:none;}.cls-2{fill:#efffeb;}.cls-3{clip-path:url(#clip-path);}.cls-4,.cls-9{font-size:9.96px;}.cls-10,.cls-4,.cls-9{fill:#262626;font-family:ArialMT, Arial;}.cls-5{letter-spacing:0.33em;}.cls-6{letter-spacing:0em;}.cls-7{fill:#fcf6bc;}.cls-12,.cls-32,.cls-51,.cls-52,.cls-7{stroke:#000;}.cls-21,.cls-32,.cls-7{stroke-miterlimit:10;}.cls-32,.cls-7{stroke-width:0.5px;}.cls-21,.cls-8{stroke:#262626;}.cls-12,.cls-20,.cls-51,.cls-52,.cls-8{stroke-linejoin:round;}.cls-8{stroke-width:0.8px;}.cls-9{letter-spacing:0.33em;}.cls-10{font-size:7.97px;}.cls-11{clip-path:url(#clip-path-2);}.cls-12,.cls-20,.cls-51,.cls-52{stroke-width:1.5px;}.cls-13{clip-path:url(#clip-path-3);}.cls-14{clip-path:url(#clip-path-4);}.cls-15{clip-path:url(#clip-path-5);}.cls-16{clip-path:url(#clip-path-6);}.cls-17{clip-path:url(#clip-path-7);}.cls-18{clip-path:url(#clip-path-8);}.cls-19{clip-path:url(#clip-path-9);}.cls-20{stroke:red;}.cls-20,.cls-52{stroke-linecap:round;}.cls-21{stroke-linecap:square;stroke-width:1.25px;}.cls-22{letter-spacing:0.07em;}.cls-23{letter-spacing:0.28em;}.cls-24{clip-path:url(#clip-path-10);}.cls-25{clip-path:url(#clip-path-11);}.cls-26{clip-path:url(#clip-path-12);}.cls-27{clip-path:url(#clip-path-13);}.cls-28{clip-path:url(#clip-path-14);}.cls-29{clip-path:url(#clip-path-15);}.cls-30{clip-path:url(#clip-path-16);}.cls-31{clip-path:url(#clip-path-17);}.cls-32{fill:#c4e0ad;}.cls-33{clip-path:url(#clip-path-19);}.cls-34{clip-path:url(#clip-path-20);}.cls-35{clip-path:url(#clip-path-21);}.cls-36{clip-path:url(#clip-path-22);}.cls-37{clip-path:url(#clip-path-23);}.cls-38{clip-path:url(#clip-path-24);}.cls-39{clip-path:url(#clip-path-25);}.cls-40{clip-path:url(#clip-path-26);}.cls-41{clip-path:url(#clip-path-28);}.cls-42{clip-path:url(#clip-path-29);}.cls-43{clip-path:url(#clip-path-30);}.cls-44{clip-path:url(#clip-path-31);}.cls-45{clip-path:url(#clip-path-32);}.cls-46{clip-path:url(#clip-path-33);}.cls-47{clip-path:url(#clip-path-34);}.cls-48{clip-path:url(#clip-path-35);}.cls-49{fill:#fff;}.cls-50{clip-path:url(#clip-path-36);}.cls-51{stroke-dasharray:5.55 2.4;}.cls-53{clip-path:url(#clip-path-38);}.cls-54{clip-path:url(#clip-path-39);}.cls-55{clip-path:url(#clip-path-40);}.cls-56{clip-path:url(#clip-path-41);}.cls-57{clip-path:url(#clip-path-42);}.cls-58{clip-path:url(#clip-path-43);}.cls-59{clip-path:url(#clip-path-44);}.cls-60{clip-path:url(#clip-path-45);}.cls-61{clip-path:url(#clip-path-46);}.cls-62{clip-path:url(#clip-path-47);}.cls-63{clip-path:url(#clip-path-48);}.cls-64{clip-path:url(#clip-path-49);}.cls-65{clip-path:url(#clip-path-50);}.cls-66{clip-path:url(#clip-path-51);}.cls-67{clip-path:url(#clip-path-52);}.cls-68{clip-path:url(#clip-path-53);}.cls-69{clip-path:url(#clip-path-54);}.cls-70{clip-path:url(#clip-path-55);}.cls-71{clip-path:url(#clip-path-56);}.cls-72{clip-path:url(#clip-path-57);}.cls-73{clip-path:url(#clip-path-58);}.cls-74{clip-path:url(#clip-path-59);}.cls-75{clip-path:url(#clip-path-60);}.cls-76{clip-path:url(#clip-path-61);}.cls-77{clip-path:url(#clip-path-62);}.cls-78{clip-path:url(#clip-path-63);}.cls-79{clip-path:url(#clip-path-64);}.cls-80{clip-path:url(#clip-path-65);}.cls-81{clip-path:url(#clip-path-66);}.cls-82{clip-path:url(#clip-path-67);}.cls-83{clip-path:url(#clip-path-68);}.cls-84{clip-path:url(#clip-path-69);}.cls-85{clip-path:url(#clip-path-70);}.cls-86{clip-path:url(#clip-path-71);}.cls-87{clip-path:url(#clip-path-72);}.cls-88{clip-path:url(#clip-path-73);}.cls-89,.cls-90{font-size:14px;font-family:Arial-BoldMT, Arial;font-weight:700;}.cls-89{fill:#231f20;}.cls-90{fill:red;}</style><clipPath id="clip-path"><rect class="cls-1" x="30.5" y="163.55" width="424.8" height="309.66"/></clipPath><clipPath id="clip-path-2"><rect class="cls-1" x="74.67" y="181.67" width="7.5" height="7.5"/></clipPath><clipPath id="clip-path-3"><rect class="cls-1" x="81.61" y="183.76" width="7.5" height="7.5"/></clipPath><clipPath id="clip-path-4"><rect class="cls-1" x="93.18" y="189.74" width="7.5" height="7.5"/></clipPath><clipPath id="clip-path-5"><rect class="cls-1" x="109.38" y="199.33" width="7.5" height="7.5"/></clipPath><clipPath id="clip-path-6"><rect class="cls-1" x="130.21" y="212.39" width="7.5" height="7.5"/></clipPath><clipPath id="clip-path-7"><rect class="cls-1" x="155.66" y="228.81" width="7.5" height="7.5"/></clipPath><clipPath id="clip-path-8"><rect class="cls-1" x="185.75" y="248.55" width="7.5" height="7.5"/></clipPath><clipPath id="clip-path-9"><rect class="cls-1" x="220.46" y="271.54" width="7.5" height="7.5"/></clipPath><clipPath id="clip-path-10"><rect class="cls-1" x="285.26" y="179.03" width="7.5" height="7.5"/></clipPath><clipPath id="clip-path-11"><rect class="cls-1" x="292.21" y="184.38" width="7.5" height="7.5"/></clipPath><clipPath id="clip-path-12"><rect class="cls-1" x="303.78" y="192.3" width="7.5" height="7.5"/></clipPath><clipPath id="clip-path-13"><rect class="cls-1" x="319.98" y="202.8" width="7.5" height="7.5"/></clipPath><clipPath id="clip-path-14"><rect class="cls-1" x="340.81" y="215.88" width="7.5" height="7.5"/></clipPath><clipPath id="clip-path-15"><rect class="cls-1" x="366.26" y="231.56" width="7.5" height="7.5"/></clipPath><clipPath id="clip-path-16"><rect class="cls-1" x="396.35" y="249.83" width="7.5" height="7.5"/></clipPath><clipPath id="clip-path-17"><rect class="cls-1" x="431.06" y="270.72" width="7.5" height="7.5"/></clipPath><clipPath id="clip-path-19"><rect class="cls-1" x="185.75" y="407.35" width="7.5" height="7.5"/></clipPath><clipPath id="clip-path-20"><rect class="cls-1" x="74.67" y="334.02" width="7.5" height="7.5"/></clipPath><clipPath id="clip-path-21"><rect class="cls-1" x="130.21" y="367.71" width="7.5" height="7.5"/></clipPath><clipPath id="clip-path-22"><rect class="cls-1" x="109.38" y="353.13" width="7.5" height="7.5"/></clipPath><clipPath id="clip-path-23"><rect class="cls-1" x="81.61" y="334.43" width="7.5" height="7.5"/></clipPath><clipPath id="clip-path-24"><rect class="cls-1" x="93.18" y="341.06" width="7.5" height="7.5"/></clipPath><clipPath id="clip-path-25"><rect class="cls-1" x="155.66" y="380.33" width="7.5" height="7.5"/></clipPath><clipPath id="clip-path-26"><rect class="cls-1" x="220.46" y="421.2" width="7.5" height="7.5"/></clipPath><clipPath id="clip-path-28"><rect class="cls-1" x="396.35" y="396.61" width="7.5" height="7.5"/></clipPath><clipPath id="clip-path-29"><rect class="cls-1" x="285.26" y="331.43" width="7.5" height="7.5"/></clipPath><clipPath id="clip-path-30"><rect class="cls-1" x="340.81" y="365.86" width="7.5" height="7.5"/></clipPath><clipPath id="clip-path-31"><rect class="cls-1" x="319.98" y="354.43" width="7.5" height="7.5"/></clipPath><clipPath id="clip-path-32"><rect class="cls-1" x="292.21" y="338.73" width="7.5" height="7.5"/></clipPath><clipPath id="clip-path-33"><rect class="cls-1" x="303.78" y="346.46" width="7.5" height="7.5"/></clipPath><clipPath id="clip-path-34"><rect class="cls-1" x="366.26" y="384.56" width="7.5" height="7.5"/></clipPath><clipPath id="clip-path-35"><rect class="cls-1" x="431.06" y="423.94" width="7.5" height="7.5"/></clipPath><clipPath id="clip-path-36"><rect class="cls-1" x="30.5" y="-5.78" width="424.8" height="151"/></clipPath><clipPath id="clip-path-38"><rect class="cls-1" x="71.13" y="159.82" width="160.38" height="101.76"/></clipPath><clipPath id="clip-path-39"><rect class="cls-1" x="74.67" y="163.34" width="7.5" height="7.5"/></clipPath><clipPath id="clip-path-40"><rect class="cls-1" x="81.61" y="165.43" width="7.5" height="7.5"/></clipPath><clipPath id="clip-path-41"><rect class="cls-1" x="93.18" y="171.41" width="7.5" height="7.5"/></clipPath><clipPath id="clip-path-42"><rect class="cls-1" x="109.38" y="181" width="7.5" height="7.5"/></clipPath><clipPath id="clip-path-43"><rect class="cls-1" x="130.21" y="194.06" width="7.5" height="7.5"/></clipPath><clipPath id="clip-path-44"><rect class="cls-1" x="155.66" y="210.48" width="7.5" height="7.5"/></clipPath><clipPath id="clip-path-45"><rect class="cls-1" x="185.75" y="230.21" width="7.5" height="7.5"/></clipPath><clipPath id="clip-path-46"><rect class="cls-1" x="220.46" y="253.21" width="7.5" height="7.5"/></clipPath><clipPath id="clip-path-47"><rect class="cls-1" x="281.73" y="159.82" width="160.38" height="101.76"/></clipPath><clipPath id="clip-path-48"><rect class="cls-1" x="285.26" y="160.69" width="7.5" height="7.5"/></clipPath><clipPath id="clip-path-49"><rect class="cls-1" x="292.21" y="166.04" width="7.5" height="7.5"/></clipPath><clipPath id="clip-path-50"><rect class="cls-1" x="303.78" y="173.96" width="7.5" height="7.5"/></clipPath><clipPath id="clip-path-51"><rect class="cls-1" x="319.98" y="184.46" width="7.5" height="7.5"/></clipPath><clipPath id="clip-path-52"><rect class="cls-1" x="340.81" y="197.55" width="7.5" height="7.5"/></clipPath><clipPath id="clip-path-53"><rect class="cls-1" x="366.26" y="213.22" width="7.5" height="7.5"/></clipPath><clipPath id="clip-path-54"><rect class="cls-1" x="396.35" y="231.5" width="7.5" height="7.5"/></clipPath><clipPath id="clip-path-55"><rect class="cls-1" x="431.06" y="252.39" width="7.5" height="7.5"/></clipPath><clipPath id="clip-path-56"><rect class="cls-1" x="71.13" y="312.22" width="160.38" height="101.76"/></clipPath><clipPath id="clip-path-57"><rect class="cls-1" x="185.75" y="389.01" width="7.5" height="7.5"/></clipPath><clipPath id="clip-path-58"><rect class="cls-1" x="74.67" y="315.69" width="7.5" height="7.5"/></clipPath><clipPath id="clip-path-59"><rect class="cls-1" x="130.21" y="349.38" width="7.5" height="7.5"/></clipPath><clipPath id="clip-path-60"><rect class="cls-1" x="109.38" y="334.8" width="7.5" height="7.5"/></clipPath><clipPath id="clip-path-61"><rect class="cls-1" x="81.61" y="316.1" width="7.5" height="7.5"/></clipPath><clipPath id="clip-path-62"><rect class="cls-1" x="93.18" y="322.73" width="7.5" height="7.5"/></clipPath><clipPath id="clip-path-63"><rect class="cls-1" x="155.66" y="362" width="7.5" height="7.5"/></clipPath><clipPath id="clip-path-64"><rect class="cls-1" x="220.46" y="402.87" width="7.5" height="7.5"/></clipPath><clipPath id="clip-path-65"><rect class="cls-1" x="281.73" y="312.22" width="160.38" height="101.76"/></clipPath><clipPath id="clip-path-66"><rect class="cls-1" x="396.35" y="378.28" width="7.5" height="7.5"/></clipPath><clipPath id="clip-path-67"><rect class="cls-1" x="285.26" y="313.09" width="7.5" height="7.5"/></clipPath><clipPath id="clip-path-68"><rect class="cls-1" x="340.81" y="347.52" width="7.5" height="7.5"/></clipPath><clipPath id="clip-path-69"><rect class="cls-1" x="319.98" y="336.1" width="7.5" height="7.5"/></clipPath><clipPath id="clip-path-70"><rect class="cls-1" x="292.21" y="320.4" width="7.5" height="7.5"/></clipPath><clipPath id="clip-path-71"><rect class="cls-1" x="303.78" y="328.12" width="7.5" height="7.5"/></clipPath><clipPath id="clip-path-72"><rect class="cls-1" x="366.26" y="366.22" width="7.5" height="7.5"/></clipPath><clipPath id="clip-path-73"><rect class="cls-1" x="431.06" y="405.61" width="7.5" height="7.5"/></clipPath></defs><rect class="cls-2" width="450" height="470"/><g class="cls-3"><text class="cls-4" transform="translate(85.5 143.93)">0</text><text class="cls-4" transform="translate(127.65 143.93)">1</text><text class="cls-4" transform="translate(169.8 143.93)">2</text><text class="cls-4" transform="translate(211.95 143.93)">3</text><text class="cls-4" transform="translate(254.1 143.93)">4</text><text class="cls-4" transform="translate(296.26 143.93)">5</text><text class="cls-4" transform="translate(338.41 143.93)">6</text><text class="cls-4" transform="translate(380.56 143.93)">7</text><text class="cls-4" transform="translate(422.71 143.93)">8</text><text class="cls-4" transform="translate(232.56 157.34)">Tim<tspan class="cls-5" x="16.6" y="0">e</tspan><tspan class="cls-6" x="25.46" y="0">(a.u.)</tspan></text><text class="cls-4" transform="translate(56.61 107.85)">6</text><text class="cls-4" transform="translate(56.61 70.85)">8</text><text class="cls-4" transform="translate(51.62 33.85)">10</text><text class="cls-4" transform="translate(45.17 119.1) rotate(-90)">Concentratio<tspan class="cls-5" x="56.49" y="0">n</tspan><tspan class="cls-6" x="65.35" y="0">(a.u.)</tspan></text></g><rect class="cls-7" x="71.13" y="178.15" width="160.38" height="101.76"/><line class="cls-8" x1="76.1" y1="279.92" x2="76.1" y2="285.92"/><text class="cls-4" transform="translate(73.61 296.33)">0</text><line class="cls-8" x1="122.39" y1="279.92" x2="122.39" y2="285.92"/><text class="cls-4" transform="translate(119.89 296.33)">2</text><line class="cls-8" x1="168.67" y1="279.92" x2="168.67" y2="285.92"/><text class="cls-4" transform="translate(166.18 296.33)">4</text><line class="cls-8" x1="214.95" y1="279.92" x2="214.95" y2="285.92"/><text class="cls-4" transform="translate(212.46 296.33)">6</text><text class="cls-9" transform="translate(118.67 311.12)">B<tspan class="cls-6" x="9.96" y="0">(m</tspan></text><text class="cls-10" transform="translate(140.42 307.5)">–2</text><text class="cls-4" transform="translate(149.39 311.12)">s</text><text class="cls-4" transform="translate(155.43 311.12)">×</text><text class="cls-4" transform="translate(165.39 311.12)">10</text><text class="cls-10" transform="translate(175.35 307.5)">9</text><text class="cls-4" transform="translate(180.08 311.12)">)</text><line class="cls-8" x1="71.13" y1="271.7" x2="65.13" y2="271.7"/><text class="cls-4" transform="translate(51.66 275.16)">–4</text><line class="cls-8" x1="71.13" y1="240.38" x2="65.13" y2="240.38"/><text class="cls-4" transform="translate(51.66 243.84)">–2</text><line class="cls-8" x1="71.13" y1="209.06" x2="65.13" y2="209.06"/><text class="cls-4" transform="translate(56.64 212.52)">0</text><line class="cls-8" x1="71.13" y1="177.74" x2="65.13" y2="177.74"/><text class="cls-4" transform="translate(56.64 181.2)">2</text><text class="cls-4" transform="translate(45.17 238.06) rotate(-90)">ln(I)</text><g class="cls-11"><path d="M78.42,188.42a3,3,0,1,0-2.13-.87,3,3,0,0,0,2.13.87"/><path class="cls-12" d="M78.42,188.42a3,3,0,1,0-2.13-.87A3,3,0,0,0,78.42,188.42Z"/></g><g class="cls-13"><path d="M85.36,190.51a3,3,0,0,0,3-3,3,3,0,0,0-5.12-2.12,3,3,0,0,0,2.12,5.12"/><path class="cls-12" d="M85.36,190.51a3,3,0,0,0,3-3,3,3,0,0,0-5.12-2.12,3,3,0,0,0,2.12,5.12Z"/></g><g class="cls-14"><path d="M96.93,196.49a3,3,0,1,0-2.12-5.12,3,3,0,0,0,0,4.24,3,3,0,0,0,2.12.88"/><path class="cls-12" d="M96.93,196.49a3,3,0,1,0-2.12-5.12,3,3,0,0,0,0,4.24A3,3,0,0,0,96.93,196.49Z"/></g><g class="cls-15"><path d="M113.13,206.08a3,3,0,0,0,3-3A3,3,0,0,0,111,201a3,3,0,0,0,2.12,5.12"/><path class="cls-12" d="M113.13,206.08a3,3,0,0,0,3-3A3,3,0,0,0,111,201a3,3,0,0,0,2.12,5.12Z"/></g><g class="cls-16"><path d="M134,219.14a3,3,0,1,0-2.12-5.12,3,3,0,0,0,0,4.24,3,3,0,0,0,2.12.88"/><path class="cls-12" d="M134,219.14a3,3,0,1,0-2.12-5.12,3,3,0,0,0,0,4.24A3,3,0,0,0,134,219.14Z"/></g><g class="cls-17"><path d="M159.41,235.56a3,3,0,0,0,2.12-5.12,3,3,0,1,0-2.12,5.12"/><path class="cls-12" d="M159.41,235.56a3,3,0,0,0,2.12-5.12,3,3,0,1,0-2.12,5.12Z"/></g><g class="cls-18"><path d="M189.5,255.3a3,3,0,1,0-2.12-.88,3,3,0,0,0,2.12.88"/><path class="cls-12" d="M189.5,255.3a3,3,0,1,0-2.12-.88A3,3,0,0,0,189.5,255.3Z"/></g><g class="cls-19"><path d="M224.21,278.29a3,3,0,1,0-2.12-.88,3,3,0,0,0,2.12.88"/><path class="cls-12" d="M224.21,278.29a3,3,0,1,0-2.12-.88A3,3,0,0,0,224.21,278.29Z"/></g><polyline class="cls-20" points="78.42 182.78 85.36 187.12 96.93 194.35 113.13 204.48 133.96 217.5 159.41 233.42 189.5 252.22 224.21 273.93"/><line class="cls-21" x1="71.13" y1="279.92" x2="71.13" y2="178.15"/><line class="cls-21" x1="231.5" y1="279.92" x2="231.5" y2="178.15"/><line class="cls-21" x1="71.13" y1="279.92" x2="231.5" y2="279.92"/><line class="cls-21" x1="71.13" y1="178.15" x2="231.5" y2="178.15"/><line class="cls-20" x1="122.62" y1="192.66" x2="142.62" y2="192.66"/><text class="cls-4" transform="translate(150.62 194.06)">D</text><text class="cls-10" transform="translate(157.82 196.16)"><tspan class="cls-22">f</tspan><tspan x="2.8" y="0">it</tspan></text><text class="cls-4" transform="translate(169.34 194.06)"><tspan class="cls-23">=</tspan><tspan x="8.58" y="0">0.92m</tspan></text><text class="cls-10" transform="translate(205.48 190.45)">2</text><text class="cls-4" transform="translate(210.21 194.06)">s</text><text class="cls-10" transform="translate(214.03 190.45)">–1</text><rect class="cls-7" x="281.73" y="178.15" width="160.38" height="101.76"/><line class="cls-8" x1="286.7" y1="279.92" x2="286.7" y2="285.92"/><text class="cls-4" transform="translate(284.21 296.33)">0</text><line class="cls-8" x1="332.98" y1="279.92" x2="332.98" y2="285.92"/><text class="cls-4" transform="translate(330.49 296.33)">2</text><line class="cls-8" x1="379.27" y1="279.92" x2="379.27" y2="285.92"/><text class="cls-4" transform="translate(376.78 296.33)">4</text><line class="cls-8" x1="425.55" y1="279.92" x2="425.55" y2="285.92"/><text class="cls-4" transform="translate(423.06 296.33)">6</text><text class="cls-9" transform="translate(329.27 311.12)">B<tspan class="cls-6" x="9.96" y="0">(m</tspan></text><text class="cls-10" transform="translate(351.02 307.5)">–2</text><text class="cls-4" transform="translate(359.99 311.12)">s</text><text class="cls-4" transform="translate(366.03 311.12)">×</text><text class="cls-4" transform="translate(375.99 311.12)">10</text><text class="cls-10" transform="translate(385.95 307.5)">9</text><text class="cls-4" transform="translate(390.68 311.12)">)</text><line class="cls-8" x1="281.73" y1="266.75" x2="275.73" y2="266.75"/><text class="cls-4" transform="translate(262.26 270.21)">–4</text><line class="cls-8" x1="281.73" y1="239.68" x2="275.73" y2="239.68"/><text class="cls-4" transform="translate(262.26 243.14)">–2</text><line class="cls-8" x1="281.73" y1="212.6" x2="275.73" y2="212.6"/><text class="cls-4" transform="translate(267.24 216.06)">0</text><line class="cls-8" x1="281.73" y1="185.52" x2="275.73" y2="185.52"/><text class="cls-4" transform="translate(267.24 188.98)">2</text><text class="cls-4" transform="translate(255.77 238.06) rotate(-90)">ln(I)</text><g class="cls-24"><path d="M289,185.78a3,3,0,0,0,3-3,3,3,0,1,0-5.13,2.12,3,3,0,0,0,2.13.88"/><path class="cls-12" d="M289,185.78a3,3,0,0,0,3-3,3,3,0,1,0-5.13,2.12A3,3,0,0,0,289,185.78Z"/></g><g class="cls-25"><path d="M296,191.13a3,3,0,1,0-2.12-.88,3,3,0,0,0,2.12.88"/><path class="cls-12" d="M296,191.13a3,3,0,1,0-2.12-.88A3,3,0,0,0,296,191.13Z"/></g><g class="cls-26"><path d="M307.53,199.05a3,3,0,0,0,2.12-5.12,3,3,0,1,0-2.12,5.12"/><path class="cls-12" d="M307.53,199.05a3,3,0,0,0,2.12-5.12,3,3,0,1,0-2.12,5.12Z"/></g><g class="cls-27"><path d="M323.73,209.55a3,3,0,0,0,2.12-5.12,3,3,0,1,0-2.12,5.12"/><path class="cls-12" d="M323.73,209.55a3,3,0,0,0,2.12-5.12,3,3,0,1,0-2.12,5.12Z"/></g><g class="cls-28"><path d="M344.56,222.63a3,3,0,0,0,3-3,3,3,0,0,0-5.12-2.12,3,3,0,0,0,2.12,5.12"/><path class="cls-12" d="M344.56,222.63a3,3,0,0,0,3-3,3,3,0,0,0-5.12-2.12,3,3,0,0,0,2.12,5.12Z"/></g><g class="cls-29"><path d="M370,238.31a3,3,0,0,0,3-3,3,3,0,0,0-5.12-2.12,3,3,0,0,0,2.12,5.12"/><path class="cls-12" d="M370,238.31a3,3,0,0,0,3-3,3,3,0,0,0-5.12-2.12,3,3,0,0,0,2.12,5.12Z"/></g><g class="cls-30"><path d="M400.1,256.58a3,3,0,0,0,3-3,3,3,0,0,0-5.12-2.12,3,3,0,0,0,2.12,5.12"/><path class="cls-12" d="M400.1,256.58a3,3,0,0,0,3-3,3,3,0,0,0-5.12-2.12,3,3,0,0,0,2.12,5.12Z"/></g><g class="cls-31"><path d="M434.81,277.47a3,3,0,0,0,2.12-.88,3,3,0,1,0-4.24,0,3,3,0,0,0,2.12.88"/><path class="cls-12" d="M434.81,277.47a3,3,0,0,0,2.12-.88,3,3,0,1,0-4.24,0A3,3,0,0,0,434.81,277.47Z"/></g><polyline class="cls-20" points="289.01 184.1 295.96 188.44 307.53 195.68 323.73 205.81 344.56 218.84 370.01 234.76 400.1 253.58 434.81 275.29"/><line class="cls-21" x1="281.73" y1="279.92" x2="281.73" y2="178.15"/><line class="cls-21" x1="442.1" y1="279.92" x2="442.1" y2="178.15"/><line class="cls-21" x1="281.73" y1="279.92" x2="442.1" y2="279.92"/><line class="cls-21" x1="281.73" y1="178.15" x2="442.1" y2="178.15"/><line class="cls-20" x1="333.22" y1="192.66" x2="353.22" y2="192.66"/><text class="cls-4" transform="translate(361.22 194.06)">D</text><text class="cls-10" transform="translate(368.42 196.16)"><tspan class="cls-22">f</tspan><tspan x="2.8" y="0">it</tspan></text><text class="cls-4" transform="translate(379.94 194.06)"><tspan class="cls-23">=</tspan><tspan x="8.58" y="0">1.07m</tspan></text><text class="cls-10" transform="translate(416.08 190.45)">2</text><text class="cls-4" transform="translate(420.81 194.06)">s</text><text class="cls-10" transform="translate(424.63 190.45)">–1</text><rect class="cls-32" x="71.13" y="330.55" width="160.38" height="101.76"/><line class="cls-8" x1="76.1" y1="432.32" x2="76.1" y2="438.32"/><text class="cls-4" transform="translate(73.61 448.73)">0</text><line class="cls-8" x1="122.39" y1="432.32" x2="122.39" y2="438.32"/><text class="cls-4" transform="translate(119.89 448.73)">2</text><line class="cls-8" x1="168.67" y1="432.32" x2="168.67" y2="438.32"/><text class="cls-4" transform="translate(166.18 448.73)">4</text><line class="cls-8" x1="214.95" y1="432.32" x2="214.95" y2="438.32"/><text class="cls-4" transform="translate(212.46 448.73)">6</text><text class="cls-9" transform="translate(118.67 463.52)">B<tspan class="cls-6" x="9.96" y="0">(m</tspan></text><text class="cls-10" transform="translate(140.42 459.9)">–2</text><text class="cls-4" transform="translate(149.39 463.52)">s</text><g class="cls-3"><text class="cls-4" transform="translate(155.42 463.52)">×</text></g><text class="cls-4" transform="translate(165.38 463.52)">10</text><text class="cls-10" transform="translate(175.35 459.9)">9</text><text class="cls-4" transform="translate(180.08 463.52)">)</text><line class="cls-8" x1="71.13" y1="421.57" x2="65.13" y2="421.57"/><text class="cls-4" transform="translate(51.66 425.03)">–4</text><line class="cls-8" x1="71.13" y1="392.04" x2="65.13" y2="392.04"/><text class="cls-4" transform="translate(51.66 395.5)">–2</text><line class="cls-8" x1="71.13" y1="362.52" x2="65.13" y2="362.52"/><text class="cls-4" transform="translate(56.64 365.98)">0</text><line class="cls-8" x1="71.13" y1="332.99" x2="65.13" y2="332.99"/><text class="cls-4" transform="translate(56.64 336.45)">2</text><text class="cls-4" transform="translate(45.17 390.46) rotate(-90)">ln(I)</text><g class="cls-33"><path d="M189.5,414.1a3,3,0,0,0,2.12-5.12,3,3,0,1,0-2.12,5.12"/><path class="cls-12" d="M189.5,414.1a3,3,0,0,0,2.12-5.12,3,3,0,1,0-2.12,5.12Z"/></g><g class="cls-34"><path d="M78.42,340.77a3,3,0,0,0,2.12-5.12,3,3,0,0,0-5.12,2.12,3,3,0,0,0,3,3"/><path class="cls-12" d="M78.42,340.77a3,3,0,0,0,2.12-5.12,3,3,0,0,0-5.12,2.12,3,3,0,0,0,3,3Z"/></g><g class="cls-35"><path d="M134,374.46a3,3,0,0,0,2.12-5.12,3,3,0,1,0-2.12,5.12"/><path class="cls-12" d="M134,374.46a3,3,0,0,0,2.12-5.12,3,3,0,1,0-2.12,5.12Z"/></g><g class="cls-36"><path d="M113.13,359.88a3,3,0,1,0-2.12-5.12,3,3,0,0,0,0,4.24,3,3,0,0,0,2.12.88"/><path class="cls-12" d="M113.13,359.88a3,3,0,1,0-2.12-5.12,3,3,0,0,0,0,4.24A3,3,0,0,0,113.13,359.88Z"/></g><g class="cls-37"><path d="M85.36,341.19a3,3,0,1,0-2.12-.88,3,3,0,0,0,2.12.88"/><path class="cls-12" d="M85.36,341.19a3,3,0,1,0-2.12-.88A3,3,0,0,0,85.36,341.19Z"/></g><g class="cls-38"><path d="M96.93,347.81a3,3,0,0,0,3-3,3,3,0,0,0-5.12-2.12,3,3,0,0,0,2.12,5.12"/><path class="cls-12" d="M96.93,347.81a3,3,0,0,0,3-3,3,3,0,0,0-5.12-2.12,3,3,0,0,0,2.12,5.12Z"/></g><g class="cls-39"><path d="M159.41,387.08a3,3,0,0,0,2.12-5.12,3,3,0,1,0-2.12,5.12"/><path class="cls-12" d="M159.41,387.08a3,3,0,0,0,2.12-5.12,3,3,0,1,0-2.12,5.12Z"/></g><g class="cls-40"><path d="M224.21,428a3,3,0,0,0,2.12-.88,3,3,0,1,0-4.24,0,3,3,0,0,0,2.12.88"/><path class="cls-12" d="M224.21,428a3,3,0,0,0,2.12-.88,3,3,0,1,0-4.24,0A3,3,0,0,0,224.21,428Z"/></g><polyline class="cls-20" points="189.5 405.66 78.42 335.18 133.96 370.42 113.13 357.2 85.36 339.58 96.93 346.93 159.41 386.57 224.21 427.69"/><line class="cls-21" x1="71.13" y1="432.32" x2="71.13" y2="330.55"/><line class="cls-21" x1="231.5" y1="432.32" x2="231.5" y2="330.55"/><line class="cls-21" x1="71.13" y1="432.32" x2="231.5" y2="432.32"/><line class="cls-21" x1="71.13" y1="330.55" x2="231.5" y2="330.55"/><line class="cls-20" x1="122.62" y1="345.06" x2="142.62" y2="345.06"/><text class="cls-4" transform="translate(150.62 346.46)">D</text><text class="cls-10" transform="translate(157.82 348.56)"><tspan class="cls-22">f</tspan><tspan x="2.8" y="0">it</tspan></text><text class="cls-4" transform="translate(169.34 346.46)"><tspan class="cls-23">=</tspan><tspan x="8.58" y="0">0.99m</tspan></text><text class="cls-10" transform="translate(205.48 342.85)">2</text><text class="cls-4" transform="translate(210.21 346.46)">s</text><text class="cls-10" transform="translate(214.03 342.85)">–1</text><rect class="cls-32" x="281.73" y="330.55" width="160.38" height="101.76"/><line class="cls-8" x1="286.7" y1="432.32" x2="286.7" y2="438.32"/><text class="cls-4" transform="translate(284.21 448.73)">0</text><line class="cls-8" x1="332.98" y1="432.32" x2="332.98" y2="438.32"/><text class="cls-4" transform="translate(330.49 448.73)">2</text><line class="cls-8" x1="379.27" y1="432.32" x2="379.27" y2="438.32"/><text class="cls-4" transform="translate(376.78 448.73)">4</text><line class="cls-8" x1="425.55" y1="432.32" x2="425.55" y2="438.32"/><text class="cls-4" transform="translate(423.06 448.73)">6</text><text class="cls-9" transform="translate(329.27 463.52)">B<tspan class="cls-6" x="9.96" y="0">(m</tspan></text><text class="cls-10" transform="translate(351.02 459.9)">–2</text><text class="cls-4" transform="translate(359.99 463.52)">s</text><g class="cls-3"><text class="cls-4" transform="translate(366.02 463.52)">×</text></g><text class="cls-4" transform="translate(375.98 463.52)">10</text><text class="cls-10" transform="translate(385.95 459.9)">9</text><text class="cls-4" transform="translate(390.68 463.52)">)</text><line class="cls-8" x1="281.73" y1="419.79" x2="275.73" y2="419.79"/><text class="cls-4" transform="translate(262.26 423.25)">–4</text><line class="cls-8" x1="281.73" y1="392.08" x2="275.73" y2="392.08"/><text class="cls-4" transform="translate(262.26 395.54)">–2</text><line class="cls-8" x1="281.73" y1="364.38" x2="275.73" y2="364.38"/><text class="cls-4" transform="translate(267.24 367.84)">0</text><line class="cls-8" x1="281.73" y1="336.67" x2="275.73" y2="336.67"/><text class="cls-4" transform="translate(267.24 340.13)">2</text><text class="cls-4" transform="translate(255.77 390.46) rotate(-90)">ln(I)</text><g class="cls-41"><path d="M400.1,403.36a3,3,0,1,0-2.12-5.12,3,3,0,0,0,0,4.24,3,3,0,0,0,2.12.88"/><path class="cls-12" d="M400.1,403.36a3,3,0,1,0-2.12-5.12,3,3,0,0,0,0,4.24A3,3,0,0,0,400.1,403.36Z"/></g><g class="cls-42"><path d="M289,338.18a3,3,0,0,0,3-3,3,3,0,1,0-5.13,2.12,3,3,0,0,0,2.13.88"/><path class="cls-12" d="M289,338.18a3,3,0,0,0,3-3,3,3,0,1,0-5.13,2.12A3,3,0,0,0,289,338.18Z"/></g><g class="cls-43"><path d="M344.56,372.61a3,3,0,0,0,2.12-5.12,3,3,0,1,0-2.12,5.12"/><path class="cls-12" d="M344.56,372.61a3,3,0,0,0,2.12-5.12,3,3,0,1,0-2.12,5.12Z"/></g><g class="cls-44"><path d="M323.73,361.18a3,3,0,0,0,2.12-.87,3,3,0,0,0-2.12-5.13,3,3,0,1,0,0,6"/><path class="cls-12" d="M323.73,361.18a3,3,0,0,0,2.12-.87,3,3,0,0,0-2.12-5.13,3,3,0,1,0,0,6Z"/></g><g class="cls-45"><path d="M296,345.48a3,3,0,1,0-2.12-5.12,3,3,0,0,0,0,4.24,3,3,0,0,0,2.12.88"/><path class="cls-12" d="M296,345.48a3,3,0,1,0-2.12-5.12,3,3,0,0,0,0,4.24A3,3,0,0,0,296,345.48Z"/></g><g class="cls-46"><path d="M307.53,353.21a3,3,0,0,0,2.12-5.12,3,3,0,1,0-2.12,5.12"/><path class="cls-12" d="M307.53,353.21a3,3,0,0,0,2.12-5.12,3,3,0,1,0-2.12,5.12Z"/></g><g class="cls-47"><path d="M370,391.31a3,3,0,1,0-2.12-5.13,3,3,0,0,0,2.12,5.13"/><path class="cls-12" d="M370,391.31a3,3,0,1,0-2.12-5.13,3,3,0,0,0,2.12,5.13Z"/></g><g class="cls-48"><path d="M434.81,430.69a3,3,0,1,0-2.12-.88,3,3,0,0,0,2.12.88"/><path class="cls-12" d="M434.81,430.69a3,3,0,1,0-2.12-.88A3,3,0,0,0,434.81,430.69Z"/></g><polyline class="cls-20" points="400.1 404.49 289.01 337.12 344.56 370.8 323.73 358.17 295.96 341.33 307.53 348.34 370.01 386.24 434.81 425.54"/><line class="cls-21" x1="281.73" y1="432.32" x2="281.73" y2="330.55"/><line class="cls-21" x1="442.1" y1="432.32" x2="442.1" y2="330.55"/><line class="cls-21" x1="281.73" y1="432.32" x2="442.1" y2="432.32"/><line class="cls-21" x1="281.73" y1="330.55" x2="442.1" y2="330.55"/><line class="cls-20" x1="333.22" y1="345.06" x2="353.22" y2="345.06"/><text class="cls-4" transform="translate(361.22 346.46)">D</text><text class="cls-10" transform="translate(368.42 348.56)"><tspan class="cls-22">f</tspan><tspan x="2.8" y="0">it</tspan></text><text class="cls-4" transform="translate(379.94 346.46)"><tspan class="cls-23">=</tspan><tspan x="8.58" y="0">1.01m</tspan></text><text class="cls-10" transform="translate(416.08 342.85)">2</text><text class="cls-4" transform="translate(420.81 346.46)">s</text><text class="cls-10" transform="translate(424.63 342.85)">–1</text><rect class="cls-49" x="71.13" y="7.42" width="370.98" height="101.76"/><line class="cls-8" x1="87.99" y1="109.18" x2="87.99" y2="115.18"/><text class="cls-4" transform="translate(85.5 125.6)">0</text><line class="cls-8" x1="130.14" y1="109.18" x2="130.14" y2="115.18"/><text class="cls-4" transform="translate(127.65 125.6)">1</text><line class="cls-8" x1="172.3" y1="109.18" x2="172.3" y2="115.18"/><text class="cls-4" transform="translate(169.81 125.6)">2</text><line class="cls-8" x1="214.46" y1="109.18" x2="214.46" y2="115.18"/><text class="cls-4" transform="translate(211.97 125.6)">3</text><line class="cls-8" x1="256.61" y1="109.18" x2="256.61" y2="115.18"/><text class="cls-4" transform="translate(254.12 125.6)">4</text><line class="cls-8" x1="298.77" y1="109.18" x2="298.77" y2="115.18"/><text class="cls-4" transform="translate(296.28 125.6)">5</text><line class="cls-8" x1="340.93" y1="109.18" x2="340.93" y2="115.18"/><text class="cls-4" transform="translate(338.43 125.6)">6</text><line class="cls-8" x1="383.08" y1="109.18" x2="383.08" y2="115.18"/><text class="cls-4" transform="translate(380.59 125.6)">7</text><line class="cls-8" x1="425.24" y1="109.18" x2="425.24" y2="115.18"/><text class="cls-4" transform="translate(422.75 125.6)">8</text><text class="cls-4" transform="translate(232.59 139.01)">Tim<tspan class="cls-5" x="16.6" y="0">e</tspan><tspan class="cls-6" x="25.46" y="0">(a.u.)</tspan></text><line class="cls-8" x1="71.13" y1="86.05" x2="65.13" y2="86.05"/><text class="cls-4" transform="translate(56.64 89.51)">6</text><line class="cls-8" x1="71.13" y1="49.05" x2="65.13" y2="49.05"/><text class="cls-4" transform="translate(56.64 52.51)">8</text><line class="cls-8" x1="71.13" y1="12.04" x2="65.13" y2="12.04"/><text class="cls-4" transform="translate(51.66 15.5)">10</text><g class="cls-50"><text class="cls-4" transform="translate(45.17 100.77) rotate(-90)">Concentratio<tspan class="cls-5" x="56.49" y="0">n</tspan><tspan class="cls-6" x="65.35" y="0">(a.u.)</tspan></text></g><polyline class="cls-51" points="87.99 12.04 91.39 13.53 94.8 14.99 98.21 16.42 101.61 17.84 105.02 19.23 108.43 20.59 111.83 21.94 115.24 23.26 118.65 24.57 122.05 25.85 125.46 27.11 128.87 28.35 132.27 29.58 135.68 30.78 139.09 31.96 142.49 33.13 145.9 34.27 149.31 35.4 152.71 36.51 156.12 37.6 159.53 38.67 162.93 39.73 166.34 40.77 169.75 41.79 173.15 42.79 176.56 43.78 179.97 44.76 183.37 45.72 186.78 46.66 190.19 47.59 193.59 48.5 197 49.4 200.41 50.28 203.81 51.16 207.22 52.01 210.62 52.85 214.03 53.68 217.44 54.5 220.84 55.3 224.25 56.09 227.66 56.87 231.06 57.63 234.47 58.38 237.88 59.13 241.28 59.85 244.69 60.57 248.1 61.27 251.5 61.97 254.91 62.65 258.32 63.32 261.72 63.98 265.13 64.64 268.54 65.28 271.94 65.91 275.35 66.52 278.76 67.13 282.16 67.73 285.57 68.32 288.98 68.91 292.38 69.48 295.79 70.04 299.19 70.59 302.6 71.14 306.01 71.67 309.42 72.2 312.82 72.72 316.23 73.23 319.63 73.73 323.04 74.22 326.45 74.71 329.85 75.19 333.26 75.66 336.67 76.13 340.07 76.58 343.48 77.03 346.89 77.47 350.29 77.9 353.7 78.33 357.11 78.75 360.51 79.17 363.92 79.57 367.33 79.97 370.73 80.37 374.14 80.75 377.55 81.14 380.95 81.51 384.36 81.88 387.77 82.25 391.17 82.6 394.58 82.95 397.99 83.3 401.39 83.64 404.8 83.98 408.2 84.31 411.61 84.63 415.02 84.95 418.43 85.27 421.83 85.57 425.24 85.88"/><polyline class="cls-52" points="87.99 104.56 91.39 103.07 94.8 101.61 98.21 100.18 101.61 98.77 105.02 97.38 108.43 96.01 111.83 94.66 115.24 93.34 118.65 92.03 122.05 90.75 125.46 89.49 128.87 88.25 132.27 87.03 135.68 85.82 139.09 84.64 142.49 83.48 145.9 82.33 149.31 81.2 152.71 80.1 156.12 79.01 159.53 77.93 162.93 76.88 166.34 75.84 169.75 74.81 173.15 73.81 176.56 72.82 179.97 71.84 183.37 70.88 186.78 69.94 190.19 69.01 193.59 68.1 197 67.2 200.41 66.32 203.81 65.45 207.22 64.59 210.62 63.75 214.03 62.92 217.44 62.1 220.84 61.3 224.25 60.51 227.66 59.73 231.06 58.97 234.47 58.22 237.88 57.48 241.28 56.75 244.69 56.03 248.1 55.33 251.5 54.63 254.91 53.95 258.32 53.28 261.72 52.62 265.13 51.97 268.54 51.33 271.94 50.7 275.35 50.08 278.76 49.47 282.16 48.87 285.57 48.28 288.98 47.7 292.38 47.13 295.79 46.56 299.19 46.01 302.6 45.47 306.01 44.93 309.42 44.4 312.82 43.88 316.23 43.37 319.63 42.87 323.04 42.38 326.45 41.89 329.85 41.41 333.26 40.94 336.67 40.48 340.07 40.02 343.48 39.57 346.89 39.13 350.29 38.7 353.7 38.27 357.11 37.85 360.51 37.44 363.92 37.03 367.33 36.63 370.73 36.23 374.14 35.85 377.55 35.47 380.95 35.09 384.36 34.72 387.77 34.36 391.17 34 394.58 33.65 397.99 33.3 401.39 32.96 404.8 32.63 408.2 32.3 411.61 31.97 415.02 31.65 418.43 31.34 421.83 31.03 425.24 30.72"/><line class="cls-21" x1="71.13" y1="109.18" x2="71.13" y2="7.42"/><line class="cls-21" x1="442.1" y1="109.18" x2="442.1" y2="7.42"/><line class="cls-21" x1="71.13" y1="109.18" x2="442.1" y2="109.18"/><line class="cls-21" x1="71.13" y1="7.42" x2="442.1" y2="7.42"/><g class="cls-50"><text class="cls-4" transform="translate(73.61 278)">0</text><text class="cls-4" transform="translate(119.9 278)">2</text><text class="cls-4" transform="translate(166.18 278)">4</text><text class="cls-4" transform="translate(212.47 278)">6</text><text class="cls-9" transform="translate(118.68 292.79)">B<tspan class="cls-6" x="9.96" y="0">(m</tspan></text><text class="cls-10" transform="translate(140.42 289.17)">–2</text><text class="cls-4" transform="translate(149.39 292.78)">s</text><text class="cls-4" transform="translate(155.43 292.78)">×</text><text class="cls-4" transform="translate(165.39 292.78)">10</text><text class="cls-10" transform="translate(175.35 289.17)">9</text><text class="cls-4" transform="translate(180.08 292.78)">)</text><text class="cls-4" transform="translate(51.66 256.83)">–4</text><text class="cls-4" transform="translate(51.66 225.51)">–2</text><text class="cls-4" transform="translate(56.64 194.18)">0</text><text class="cls-4" transform="translate(56.64 162.86)">2</text><text class="cls-4" transform="translate(45.17 219.72) rotate(-90)">ln(I)</text><g class="cls-53"><g class="cls-54"><path d="M78.42,170.09a3,3,0,0,0,2.12-.88,3,3,0,0,0,0-4.24,3,3,0,0,0-4.25,0,3,3,0,0,0,0,4.24,3,3,0,0,0,2.13.88"/><path class="cls-12" d="M78.42,170.09a3,3,0,0,0,2.12-.88,3,3,0,0,0,0-4.24,3,3,0,0,0-4.25,0,3,3,0,0,0,0,4.24A3,3,0,0,0,78.42,170.09Z"/></g><g class="cls-55"><path d="M85.36,172.18a3,3,0,1,0-2.12-5.12,3,3,0,0,0,0,4.24,3,3,0,0,0,2.12.88"/><path class="cls-12" d="M85.36,172.18a3,3,0,1,0-2.12-5.12,3,3,0,0,0,0,4.24A3,3,0,0,0,85.36,172.18Z"/></g><g class="cls-56"><path d="M96.93,178.16A3,3,0,0,0,99.05,173a3,3,0,1,0-2.12,5.12"/><path class="cls-12" d="M96.93,178.16A3,3,0,0,0,99.05,173a3,3,0,1,0-2.12,5.12Z"/></g><g class="cls-57"><path d="M113.13,187.75a3,3,0,1,0-2.12-5.12,3,3,0,0,0,0,4.24,3,3,0,0,0,2.12.88"/><path class="cls-12" d="M113.13,187.75a3,3,0,1,0-2.12-5.12,3,3,0,0,0,0,4.24A3,3,0,0,0,113.13,187.75Z"/></g><g class="cls-58"><path d="M134,200.81a3,3,0,1,0-2.12-.88,3,3,0,0,0,2.12.88"/><path class="cls-12" d="M134,200.81a3,3,0,1,0-2.12-.88A3,3,0,0,0,134,200.81Z"/></g><g class="cls-59"><path d="M159.41,217.23a3,3,0,0,0,2.12-.88,3,3,0,0,0,0-4.24,3,3,0,1,0-2.12,5.12"/><path class="cls-12" d="M159.41,217.23a3,3,0,0,0,2.12-.88,3,3,0,0,0,0-4.24,3,3,0,1,0-2.12,5.12Z"/></g><g class="cls-60"><path d="M189.5,237a3,3,0,0,0,3-3,3,3,0,0,0-5.12-2.12A3,3,0,0,0,189.5,237"/><path class="cls-12" d="M189.5,237a3,3,0,0,0,3-3,3,3,0,0,0-5.12-2.12A3,3,0,0,0,189.5,237Z"/></g><g class="cls-61"><path d="M224.21,260a3,3,0,0,0,2.12-5.12,3,3,0,0,0-4.24,0,3,3,0,0,0,2.12,5.12"/><path class="cls-12" d="M224.21,260a3,3,0,0,0,2.12-5.12,3,3,0,0,0-4.24,0,3,3,0,0,0,2.12,5.12Z"/></g></g><text class="cls-4" transform="translate(150.62 175.73)">D</text><text class="cls-10" transform="translate(157.82 177.83)"><tspan class="cls-22">f</tspan><tspan x="2.8" y="0">it</tspan></text><text class="cls-4" transform="translate(169.34 175.73)"><tspan class="cls-23">=</tspan><tspan x="8.58" y="0">0.92m</tspan></text><text class="cls-10" transform="translate(205.48 172.11)">2</text><text class="cls-4" transform="translate(210.21 175.73)">s</text><text class="cls-10" transform="translate(214.03 172.11)">–1</text><text class="cls-4" transform="translate(284.21 278)">0</text><text class="cls-4" transform="translate(330.5 278)">2</text><text class="cls-4" transform="translate(376.78 278)">4</text><text class="cls-4" transform="translate(423.07 278)">6</text><text class="cls-9" transform="translate(329.28 292.79)">B<tspan class="cls-6" x="9.96" y="0">(m</tspan></text><text class="cls-10" transform="translate(351.02 289.17)">–2</text><text class="cls-4" transform="translate(359.99 292.78)">s</text><text class="cls-4" transform="translate(366.03 292.78)">×</text><text class="cls-4" transform="translate(375.99 292.78)">10</text><text class="cls-10" transform="translate(385.95 289.17)">9</text><text class="cls-4" transform="translate(390.68 292.78)">)</text><text class="cls-4" transform="translate(262.26 251.88)">–4</text><text class="cls-4" transform="translate(262.26 224.8)">–2</text><text class="cls-4" transform="translate(267.24 197.72)">0</text><text class="cls-4" transform="translate(267.24 170.64)">2</text><text class="cls-4" transform="translate(255.77 219.72) rotate(-90)">ln(I)</text><g class="cls-62"><g class="cls-63"><path d="M289,167.44a3,3,0,1,0-2.13-.87,3,3,0,0,0,2.13.87"/><path class="cls-12" d="M289,167.44a3,3,0,1,0-2.13-.87A3,3,0,0,0,289,167.44Z"/></g><g class="cls-64"><path d="M296,172.79a3,3,0,0,0,3-3,3,3,0,0,0-5.12-2.12,3,3,0,0,0,2.12,5.12"/><path class="cls-12" d="M296,172.79a3,3,0,0,0,3-3,3,3,0,0,0-5.12-2.12,3,3,0,0,0,2.12,5.12Z"/></g><g class="cls-65"><path d="M307.53,180.71a3,3,0,0,0,2.12-.87,3,3,0,0,0-2.12-5.13,3,3,0,1,0,0,6"/><path class="cls-12" d="M307.53,180.71a3,3,0,0,0,2.12-.87,3,3,0,0,0-2.12-5.13,3,3,0,1,0,0,6Z"/></g><g class="cls-66"><path d="M323.73,191.21a3,3,0,0,0,2.12-.87,3,3,0,0,0-2.12-5.13,3,3,0,1,0,0,6"/><path class="cls-12" d="M323.73,191.21a3,3,0,0,0,2.12-.87,3,3,0,0,0-2.12-5.13,3,3,0,1,0,0,6Z"/></g><g class="cls-67"><path d="M344.56,204.3a3,3,0,0,0,2.12-5.12,3,3,0,1,0-2.12,5.12"/><path class="cls-12" d="M344.56,204.3a3,3,0,0,0,2.12-5.12,3,3,0,1,0-2.12,5.12Z"/></g><g class="cls-68"><path d="M370,220a3,3,0,0,0,2.12-5.12A3,3,0,1,0,370,220"/><path class="cls-12" d="M370,220a3,3,0,0,0,2.12-5.12A3,3,0,1,0,370,220Z"/></g><g class="cls-69"><path d="M400.1,238.25a3,3,0,1,0-2.12-5.12,3,3,0,0,0,0,4.24,3,3,0,0,0,2.12.88"/><path class="cls-12" d="M400.1,238.25a3,3,0,1,0-2.12-5.12,3,3,0,0,0,0,4.24A3,3,0,0,0,400.1,238.25Z"/></g><g class="cls-70"><path d="M434.81,259.14a3,3,0,1,0-2.12-.88,3,3,0,0,0,2.12.88"/><path class="cls-12" d="M434.81,259.14a3,3,0,1,0-2.12-.88A3,3,0,0,0,434.81,259.14Z"/></g></g><text class="cls-4" transform="translate(361.22 175.73)">D</text><text class="cls-10" transform="translate(368.42 177.83)"><tspan class="cls-22">f</tspan><tspan x="2.8" y="0">it</tspan></text><text class="cls-4" transform="translate(379.94 175.73)"><tspan class="cls-23">=</tspan><tspan x="8.58" y="0">1.07m</tspan></text><text class="cls-10" transform="translate(416.08 172.11)">2</text><text class="cls-4" transform="translate(420.81 175.73)">s</text><text class="cls-10" transform="translate(424.63 172.11)">–1</text><text class="cls-4" transform="translate(73.61 430.4)">0</text><text class="cls-4" transform="translate(119.9 430.4)">2</text><text class="cls-4" transform="translate(166.18 430.4)">4</text><text class="cls-4" transform="translate(212.47 430.4)">6</text><text class="cls-9" transform="translate(118.68 445.19)">B<tspan class="cls-6" x="9.96" y="0">(m</tspan></text><text class="cls-10" transform="translate(140.42 441.57)">–2</text><text class="cls-4" transform="translate(149.39 445.18)">s</text><text class="cls-4" transform="translate(155.43 445.18)">×</text><text class="cls-4" transform="translate(165.39 445.18)">10</text><text class="cls-10" transform="translate(175.35 441.57)">9</text><text class="cls-4" transform="translate(180.08 445.18)">)</text><text class="cls-4" transform="translate(51.66 406.7)">–4</text><text class="cls-4" transform="translate(51.66 377.17)">–2</text><text class="cls-4" transform="translate(56.64 347.64)">0</text><text class="cls-4" transform="translate(56.64 318.11)">2</text><text class="cls-4" transform="translate(45.17 372.12) rotate(-90)">ln(I)</text><g class="cls-71"><g class="cls-72"><path d="M189.5,395.76a3,3,0,0,0,3-3,3,3,0,0,0-5.12-2.12,3,3,0,0,0,2.12,5.12"/><path class="cls-12" d="M189.5,395.76a3,3,0,0,0,3-3,3,3,0,0,0-5.12-2.12,3,3,0,0,0,2.12,5.12Z"/></g><g class="cls-73"><path d="M78.42,322.44a3,3,0,0,0,2.12-.88,3,3,0,0,0,0-4.24,3,3,0,0,0-4.25,0,3,3,0,0,0,0,4.24,3,3,0,0,0,2.13.88"/><path class="cls-12" d="M78.42,322.44a3,3,0,0,0,2.12-.88,3,3,0,0,0,0-4.24,3,3,0,0,0-4.25,0,3,3,0,0,0,0,4.24A3,3,0,0,0,78.42,322.44Z"/></g><g class="cls-74"><path d="M134,356.13a3,3,0,1,0-2.12-.88,3,3,0,0,0,2.12.88"/><path class="cls-12" d="M134,356.13a3,3,0,1,0-2.12-.88A3,3,0,0,0,134,356.13Z"/></g><g class="cls-75"><path d="M113.13,341.55a3,3,0,0,0,2.12-5.12,3,3,0,1,0-2.12,5.12"/><path class="cls-12" d="M113.13,341.55a3,3,0,0,0,2.12-5.12,3,3,0,1,0-2.12,5.12Z"/></g><g class="cls-76"><path d="M85.36,322.85a3,3,0,0,0,3-3,3,3,0,0,0-5.12-2.12,3,3,0,0,0,2.12,5.12"/><path class="cls-12" d="M85.36,322.85a3,3,0,0,0,3-3,3,3,0,0,0-5.12-2.12,3,3,0,0,0,2.12,5.12Z"/></g><g class="cls-77"><path d="M96.93,329.48a3,3,0,0,0,2.12-5.12,3,3,0,1,0-2.12,5.12"/><path class="cls-12" d="M96.93,329.48a3,3,0,0,0,2.12-5.12,3,3,0,1,0-2.12,5.12Z"/></g><g class="cls-78"><path d="M159.41,368.75a3,3,0,0,0,3-3,3,3,0,0,0-5.12-2.12,3,3,0,0,0,2.12,5.12"/><path class="cls-12" d="M159.41,368.75a3,3,0,0,0,3-3,3,3,0,0,0-5.12-2.12,3,3,0,0,0,2.12,5.12Z"/></g><g class="cls-79"><path d="M224.21,409.62a3,3,0,0,0,2.12-5.12,3,3,0,0,0-4.24,0,3,3,0,0,0,2.12,5.12"/><path class="cls-12" d="M224.21,409.62a3,3,0,0,0,2.12-5.12,3,3,0,0,0-4.24,0,3,3,0,0,0,2.12,5.12Z"/></g></g><text class="cls-4" transform="translate(150.62 328.13)">D</text><text class="cls-10" transform="translate(157.82 330.23)"><tspan class="cls-22">f</tspan><tspan x="2.8" y="0">it</tspan></text><text class="cls-4" transform="translate(169.34 328.13)"><tspan class="cls-23">=</tspan><tspan x="8.58" y="0">0.99m</tspan></text><text class="cls-10" transform="translate(205.48 324.51)">2</text><text class="cls-4" transform="translate(210.21 328.13)">s</text><text class="cls-10" transform="translate(214.03 324.51)">–1</text><text class="cls-4" transform="translate(284.21 430.4)">0</text><text class="cls-4" transform="translate(330.5 430.4)">2</text><text class="cls-4" transform="translate(376.78 430.4)">4</text><text class="cls-4" transform="translate(423.07 430.4)">6</text><text class="cls-9" transform="translate(329.28 445.19)">B<tspan class="cls-6" x="9.96" y="0">(m</tspan></text><text class="cls-10" transform="translate(351.02 441.57)">–2</text><text class="cls-4" transform="translate(359.99 445.18)">s</text><text class="cls-4" transform="translate(366.03 445.18)">×</text><text class="cls-4" transform="translate(375.99 445.18)">10</text><text class="cls-10" transform="translate(385.95 441.57)">9</text><text class="cls-4" transform="translate(390.68 445.18)">)</text><text class="cls-4" transform="translate(262.26 404.92)">–4</text><text class="cls-4" transform="translate(262.26 377.21)">–2</text><text class="cls-4" transform="translate(267.24 349.5)">0</text><text class="cls-4" transform="translate(267.24 321.8)">2</text><text class="cls-4" transform="translate(255.77 372.12) rotate(-90)">ln(I)</text><g class="cls-80"><g class="cls-81"><path d="M400.1,385a3,3,0,0,0,2.12-5.12A3,3,0,1,0,400.1,385"/><path class="cls-12" d="M400.1,385a3,3,0,0,0,2.12-5.12A3,3,0,1,0,400.1,385Z"/></g><g class="cls-82"><path d="M289,319.84a3,3,0,1,0-2.13-.87,3,3,0,0,0,2.13.87"/><path class="cls-12" d="M289,319.84a3,3,0,1,0-2.13-.87A3,3,0,0,0,289,319.84Z"/></g><g class="cls-83"><path d="M344.56,354.27a3,3,0,0,0,3-3,3,3,0,0,0-5.12-2.12,3,3,0,0,0,2.12,5.12"/><path class="cls-12" d="M344.56,354.27a3,3,0,0,0,3-3,3,3,0,0,0-5.12-2.12,3,3,0,0,0,2.12,5.12Z"/></g><g class="cls-84"><path d="M323.73,342.85a3,3,0,1,0-2.12-5.12,3,3,0,0,0,0,4.24,3,3,0,0,0,2.12.88"/><path class="cls-12" d="M323.73,342.85a3,3,0,1,0-2.12-5.12,3,3,0,0,0,0,4.24A3,3,0,0,0,323.73,342.85Z"/></g><g class="cls-85"><path d="M296,327.15a3,3,0,0,0,2.12-5.12,3,3,0,1,0-2.12,5.12"/><path class="cls-12" d="M296,327.15a3,3,0,0,0,2.12-5.12,3,3,0,1,0-2.12,5.12Z"/></g><g class="cls-86"><path d="M307.53,334.87a3,3,0,0,0,2.12-.87,3,3,0,0,0-2.12-5.13,3,3,0,1,0,0,6"/><path class="cls-12" d="M307.53,334.87a3,3,0,0,0,2.12-.87,3,3,0,0,0-2.12-5.13,3,3,0,1,0,0,6Z"/></g><g class="cls-87"><path d="M370,373a3,3,0,0,0,2.12-5.12A3,3,0,1,0,370,373"/><path class="cls-12" d="M370,373a3,3,0,0,0,2.12-5.12A3,3,0,1,0,370,373Z"/></g><g class="cls-88"><path d="M434.81,412.36a3,3,0,0,0,2.12-5.12,3,3,0,0,0-4.24,0,3,3,0,0,0,2.12,5.12"/><path class="cls-12" d="M434.81,412.36a3,3,0,0,0,2.12-5.12,3,3,0,0,0-4.24,0,3,3,0,0,0,2.12,5.12Z"/></g></g><text class="cls-4" transform="translate(361.22 328.13)">D</text><text class="cls-10" transform="translate(368.42 330.23)"><tspan class="cls-22">f</tspan><tspan x="2.8" y="0">it</tspan></text><text class="cls-4" transform="translate(379.94 328.13)"><tspan class="cls-23">=</tspan><tspan x="8.58" y="0">1.01m</tspan></text><text class="cls-10" transform="translate(416.08 324.51)">2</text><text class="cls-4" transform="translate(420.81 328.13)">s</text><text class="cls-10" transform="translate(424.63 324.51)">–1</text></g><text class="cls-89" transform="translate(84.5 38.89)">[X]</text><text class="cls-90" transform="translate(119.87 159.55)">Diffusion (X)</text><text class="cls-90" transform="translate(323.87 159.55)">Diffusion (Y)</text><text class="cls-89" transform="translate(84.49 84.22)">[Y]</text><text class="cls-90" transform="translate(14.88 265.44) rotate(-90)">Increasing<tspan x="3.51" y="16.8">gradients</tspan></text><text class="cls-90" transform="translate(14.88 425.71) rotate(-90)">Randomised<tspan x="10.5" y="16.8">gradients</tspan></text></svg>