<svg id="Layer_1" data-name="Layer 1" xmlns="http://www.w3.org/2000/svg" xmlns:xlink="http://www.w3.org/1999/xlink" viewBox="0 0 850 317"><defs><style>.cls-1,.cls-13,.cls-21,.cls-22,.cls-51,.cls-52,.cls-9{fill:none;}.cls-2{fill:#efffeb;}.cls-3{fill:#fff;}.cls-4{clip-path:url(#clip-path);}.cls-10,.cls-5{font-size:9.96px;}.cls-10,.cls-11,.cls-5{fill:#262626;font-family:ArialMT, Arial;}.cls-6{letter-spacing:0.33em;}.cls-7{letter-spacing:0em;}.cls-8{fill:#fcf6bc;}.cls-13,.cls-34,.cls-51,.cls-52,.cls-8{stroke:#000;}.cls-22,.cls-34,.cls-8{stroke-miterlimit:10;}.cls-34,.cls-8{stroke-width:0.5px;}.cls-22,.cls-9{stroke:#262626;}.cls-13,.cls-21,.cls-51,.cls-52,.cls-9{stroke-linejoin:round;}.cls-9{stroke-width:0.8px;}.cls-10{letter-spacing:0.33em;}.cls-11{font-size:7.97px;}.cls-12{clip-path:url(#clip-path-2);}.cls-13,.cls-21,.cls-51,.cls-52{stroke-width:1.5px;}.cls-14{clip-path:url(#clip-path-3);}.cls-15{clip-path:url(#clip-path-4);}.cls-16{clip-path:url(#clip-path-5);}.cls-17{clip-path:url(#clip-path-6);}.cls-18{clip-path:url(#clip-path-7);}.cls-19{clip-path:url(#clip-path-8);}.cls-20{clip-path:url(#clip-path-9);}.cls-21{stroke:red;}.cls-21,.cls-52{stroke-linecap:round;}.cls-22{stroke-linecap:square;stroke-width:1.25px;}.cls-23{letter-spacing:0.07em;}.cls-24{letter-spacing:0.28em;}.cls-25,.cls-53,.cls-54,.cls-55{font-family:Arial-BoldMT, Arial;font-weight:700;}.cls-26{clip-path:url(#clip-path-10);}.cls-27{clip-path:url(#clip-path-11);}.cls-28{clip-path:url(#clip-path-12);}.cls-29{clip-path:url(#clip-path-13);}.cls-30{clip-path:url(#clip-path-14);}.cls-31{clip-path:url(#clip-path-15);}.cls-32{clip-path:url(#clip-path-16);}.cls-33{clip-path:url(#clip-path-17);}.cls-34{fill:#c4e0ad;}.cls-35{clip-path:url(#clip-path-18);}.cls-36{clip-path:url(#clip-path-19);}.cls-37{clip-path:url(#clip-path-20);}.cls-38{clip-path:url(#clip-path-21);}.cls-39{clip-path:url(#clip-path-22);}.cls-40{clip-path:url(#clip-path-23);}.cls-41{clip-path:url(#clip-path-24);}.cls-42{clip-path:url(#clip-path-25);}.cls-43{clip-path:url(#clip-path-26);}.cls-44{clip-path:url(#clip-path-27);}.cls-45{clip-path:url(#clip-path-28);}.cls-46{clip-path:url(#clip-path-29);}.cls-47{clip-path:url(#clip-path-30);}.cls-48{clip-path:url(#clip-path-31);}.cls-49{clip-path:url(#clip-path-32);}.cls-50{clip-path:url(#clip-path-33);}.cls-51{stroke-dasharray:5.55 2.4;}.cls-53{font-size:14px;fill:#231f20;}.cls-54{font-size:12px;}.cls-54,.cls-55{fill:red;}.cls-55{font-size:16px;}</style><clipPath id="clip-path"><rect class="cls-1" x="436.5" y="7.55" width="424.8" height="309.66"/></clipPath><clipPath id="clip-path-2"><rect class="cls-1" x="480.67" y="25.67" width="7.5" height="7.5"/></clipPath><clipPath id="clip-path-3"><rect class="cls-1" x="487.61" y="27.76" width="7.5" height="7.5"/></clipPath><clipPath id="clip-path-4"><rect class="cls-1" x="499.18" y="33.74" width="7.5" height="7.5"/></clipPath><clipPath id="clip-path-5"><rect class="cls-1" x="515.38" y="43.33" width="7.5" height="7.5"/></clipPath><clipPath id="clip-path-6"><rect class="cls-1" x="536.21" y="56.39" width="7.5" height="7.5"/></clipPath><clipPath id="clip-path-7"><rect class="cls-1" x="561.66" y="72.81" width="7.5" height="7.5"/></clipPath><clipPath id="clip-path-8"><rect class="cls-1" x="591.75" y="92.55" width="7.5" height="7.5"/></clipPath><clipPath id="clip-path-9"><rect class="cls-1" x="626.46" y="115.54" width="7.5" height="7.5"/></clipPath><clipPath id="clip-path-10"><rect class="cls-1" x="691.26" y="23.03" width="7.5" height="7.5"/></clipPath><clipPath id="clip-path-11"><rect class="cls-1" x="698.21" y="28.38" width="7.5" height="7.5"/></clipPath><clipPath id="clip-path-12"><rect class="cls-1" x="709.78" y="36.3" width="7.5" height="7.5"/></clipPath><clipPath id="clip-path-13"><rect class="cls-1" x="725.98" y="46.8" width="7.5" height="7.5"/></clipPath><clipPath id="clip-path-14"><rect class="cls-1" x="746.81" y="59.88" width="7.5" height="7.5"/></clipPath><clipPath id="clip-path-15"><rect class="cls-1" x="772.26" y="75.56" width="7.5" height="7.5"/></clipPath><clipPath id="clip-path-16"><rect class="cls-1" x="802.35" y="93.83" width="7.5" height="7.5"/></clipPath><clipPath id="clip-path-17"><rect class="cls-1" x="837.06" y="114.72" width="7.5" height="7.5"/></clipPath><clipPath id="clip-path-18"><rect class="cls-1" x="591.75" y="251.35" width="7.5" height="7.5"/></clipPath><clipPath id="clip-path-19"><rect class="cls-1" x="480.67" y="178.02" width="7.5" height="7.5"/></clipPath><clipPath id="clip-path-20"><rect class="cls-1" x="536.21" y="211.71" width="7.5" height="7.5"/></clipPath><clipPath id="clip-path-21"><rect class="cls-1" x="515.38" y="197.13" width="7.5" height="7.5"/></clipPath><clipPath id="clip-path-22"><rect class="cls-1" x="487.61" y="178.43" width="7.5" height="7.5"/></clipPath><clipPath id="clip-path-23"><rect class="cls-1" x="499.18" y="185.06" width="7.5" height="7.5"/></clipPath><clipPath id="clip-path-24"><rect class="cls-1" x="561.66" y="224.33" width="7.5" height="7.5"/></clipPath><clipPath id="clip-path-25"><rect class="cls-1" x="626.46" y="265.2" width="7.5" height="7.5"/></clipPath><clipPath id="clip-path-26"><rect class="cls-1" x="802.35" y="240.61" width="7.5" height="7.5"/></clipPath><clipPath id="clip-path-27"><rect class="cls-1" x="691.26" y="175.43" width="7.5" height="7.5"/></clipPath><clipPath id="clip-path-28"><rect class="cls-1" x="746.81" y="209.86" width="7.5" height="7.5"/></clipPath><clipPath id="clip-path-29"><rect class="cls-1" x="725.98" y="198.43" width="7.5" height="7.5"/></clipPath><clipPath id="clip-path-30"><rect class="cls-1" x="698.21" y="182.73" width="7.5" height="7.5"/></clipPath><clipPath id="clip-path-31"><rect class="cls-1" x="709.78" y="190.46" width="7.5" height="7.5"/></clipPath><clipPath id="clip-path-32"><rect class="cls-1" x="772.26" y="228.56" width="7.5" height="7.5"/></clipPath><clipPath id="clip-path-33"><rect class="cls-1" x="837.06" y="267.94" width="7.5" height="7.5"/></clipPath></defs><rect class="cls-2" width="851" height="317"/><rect class="cls-3" x="29" y="55" width="371" height="185"/><g class="cls-4"><text class="cls-5" transform="translate(43.5 157.93)">0</text><text class="cls-5" transform="translate(85.65 157.93)">1</text><text class="cls-5" transform="translate(127.8 157.93)">2</text><text class="cls-5" transform="translate(169.95 157.93)">3</text><text class="cls-5" transform="translate(212.1 157.93)">4</text><text class="cls-5" transform="translate(254.26 157.93)">5</text><text class="cls-5" transform="translate(296.41 157.93)">6</text><text class="cls-5" transform="translate(338.56 157.93)">7</text><text class="cls-5" transform="translate(380.71 157.93)">8</text><text class="cls-5" transform="translate(232.56 25.34)">Tim<tspan class="cls-6" x="16.6" y="0">e</tspan><tspan class="cls-7" x="25.46" y="0">(a.u.)</tspan></text><text class="cls-5" transform="translate(14.61 121.85)">6</text><text class="cls-5" transform="translate(14.61 84.85)">8</text><text class="cls-5" transform="translate(9.62 47.85)">10</text><text class="cls-5" transform="translate(3.17 133.1) rotate(-90)">Concentratio<tspan class="cls-6" x="56.49" y="0">n</tspan><tspan class="cls-7" x="65.35" y="0">(a.u.)</tspan></text></g><rect class="cls-8" x="477.13" y="22.15" width="160.38" height="101.76"/><line class="cls-9" x1="482.1" y1="123.92" x2="482.1" y2="129.92"/><text class="cls-5" transform="translate(479.61 140.33)">0</text><line class="cls-9" x1="528.39" y1="123.92" x2="528.39" y2="129.92"/><text class="cls-5" transform="translate(525.89 140.33)">2</text><line class="cls-9" x1="574.67" y1="123.92" x2="574.67" y2="129.92"/><text class="cls-5" transform="translate(572.18 140.33)">4</text><line class="cls-9" x1="620.95" y1="123.92" x2="620.95" y2="129.92"/><text class="cls-5" transform="translate(618.46 140.33)">6</text><text class="cls-10" transform="translate(524.67 155.12)">B<tspan class="cls-7" x="9.96" y="0">(m</tspan></text><text class="cls-11" transform="translate(546.42 151.5)">–2</text><text class="cls-5" transform="translate(555.39 155.12)">s</text><text class="cls-5" transform="translate(562.43 155.12)">×</text><text class="cls-5" transform="translate(569.39 155.12)">10</text><text class="cls-11" transform="translate(581.35 151.5)">9</text><text class="cls-5" transform="translate(586.08 155.12)">)</text><line class="cls-9" x1="477.13" y1="115.7" x2="471.13" y2="115.7"/><text class="cls-5" transform="translate(457.66 119.16)">–4</text><line class="cls-9" x1="477.13" y1="84.38" x2="471.13" y2="84.38"/><text class="cls-5" transform="translate(457.66 87.84)">–2</text><line class="cls-9" x1="477.13" y1="53.06" x2="471.13" y2="53.06"/><text class="cls-5" transform="translate(462.64 56.52)">0</text><line class="cls-9" x1="477.13" y1="21.74" x2="471.13" y2="21.74"/><text class="cls-5" transform="translate(462.64 25.2)">2</text><text class="cls-5" transform="translate(451.17 82.06) rotate(-90)">ln(I)</text><g class="cls-12"><path d="M484.42,32.42a3,3,0,1,0-2.13-.87,3,3,0,0,0,2.13.87"/><path class="cls-13" d="M484.42,32.42a3,3,0,1,0-2.13-.87A3,3,0,0,0,484.42,32.42Z"/></g><g class="cls-14"><path d="M491.36,34.51a3,3,0,0,0,3-3,3,3,0,0,0-5.12-2.12,3,3,0,0,0,2.12,5.12"/><path class="cls-13" d="M491.36,34.51a3,3,0,0,0,3-3,3,3,0,0,0-5.12-2.12,3,3,0,0,0,2.12,5.12Z"/></g><g class="cls-15"><path d="M502.93,40.49a3,3,0,1,0-2.12-5.12,3,3,0,0,0,0,4.24,3,3,0,0,0,2.12.88"/><path class="cls-13" d="M502.93,40.49a3,3,0,1,0-2.12-5.12,3,3,0,0,0,0,4.24A3,3,0,0,0,502.93,40.49Z"/></g><g class="cls-16"><path d="M519.13,50.08a3,3,0,0,0,3-3A3,3,0,0,0,517,45a3,3,0,0,0,2.12,5.12"/><path class="cls-13" d="M519.13,50.08a3,3,0,0,0,3-3A3,3,0,0,0,517,45a3,3,0,0,0,2.12,5.12Z"/></g><g class="cls-17"><path d="M540,63.14A3,3,0,1,0,537.84,58a3,3,0,0,0,0,4.24,3,3,0,0,0,2.12.88"/><path class="cls-13" d="M540,63.14A3,3,0,1,0,537.84,58a3,3,0,0,0,0,4.24A3,3,0,0,0,540,63.14Z"/></g><g class="cls-18"><path d="M565.41,79.56a3,3,0,0,0,2.12-5.12,3,3,0,1,0-2.12,5.12"/><path class="cls-13" d="M565.41,79.56a3,3,0,0,0,2.12-5.12,3,3,0,1,0-2.12,5.12Z"/></g><g class="cls-19"><path d="M595.5,99.3a3,3,0,1,0-2.12-.88,3,3,0,0,0,2.12.88"/><path class="cls-13" d="M595.5,99.3a3,3,0,1,0-2.12-.88A3,3,0,0,0,595.5,99.3Z"/></g><g class="cls-20"><path d="M630.21,122.29a3,3,0,1,0-2.12-.88,3,3,0,0,0,2.12.88"/><path class="cls-13" d="M630.21,122.29a3,3,0,1,0-2.12-.88A3,3,0,0,0,630.21,122.29Z"/></g><polyline class="cls-21" points="484.42 26.78 491.36 31.12 502.93 38.35 519.13 48.48 539.96 61.5 565.41 77.42 595.5 96.22 630.21 117.93"/><line class="cls-22" x1="477.13" y1="123.92" x2="477.13" y2="22.15"/><line class="cls-22" x1="637.5" y1="123.92" x2="637.5" y2="22.15"/><line class="cls-22" x1="477.13" y1="123.92" x2="637.5" y2="123.92"/><line class="cls-22" x1="477.13" y1="22.15" x2="637.5" y2="22.15"/><line class="cls-21" x1="528.62" y1="36.66" x2="548.62" y2="36.66"/><text class="cls-5" transform="translate(556.62 38.06)">D</text><text class="cls-11" transform="translate(563.82 40.16)"><tspan class="cls-23">f</tspan><tspan x="2.8" y="0">it</tspan></text><text class="cls-5" transform="translate(575.34 38.06)"><tspan class="cls-24">=</tspan><tspan class="cls-25" x="8.58" y="0">0.92</tspan><tspan x="27.97" y="0">m</tspan></text><text class="cls-11" transform="translate(611.48 34.45)">2</text><text class="cls-5" transform="translate(616.21 38.06)">s</text><text class="cls-11" transform="translate(620.03 34.45)">–1</text><rect class="cls-8" x="687.73" y="22.15" width="160.38" height="101.76"/><line class="cls-9" x1="692.7" y1="123.92" x2="692.7" y2="129.92"/><text class="cls-5" transform="translate(690.21 140.33)">0</text><line class="cls-9" x1="738.98" y1="123.92" x2="738.98" y2="129.92"/><text class="cls-5" transform="translate(736.49 140.33)">2</text><line class="cls-9" x1="785.27" y1="123.92" x2="785.27" y2="129.92"/><text class="cls-5" transform="translate(782.78 140.33)">4</text><line class="cls-9" x1="831.55" y1="123.92" x2="831.55" y2="129.92"/><text class="cls-5" transform="translate(829.06 140.33)">6</text><text class="cls-10" transform="translate(735.27 155.12)">B<tspan class="cls-7" x="9.96" y="0">(m</tspan></text><text class="cls-11" transform="translate(757.02 151.5)">–2</text><text class="cls-5" transform="translate(765.99 155.12)">s</text><text class="cls-5" transform="translate(773.03 155.12)">×</text><text class="cls-5" transform="translate(562.43 309.12)">×</text><text class="cls-5" transform="translate(773.03 309.12)">×</text><text class="cls-5" transform="translate(779.99 155.12)">10</text><text class="cls-11" transform="translate(791.95 151.5)">9</text><text class="cls-5" transform="translate(796.68 155.12)">)</text><line class="cls-9" x1="687.73" y1="110.75" x2="681.73" y2="110.75"/><text class="cls-5" transform="translate(668.26 114.21)">–4</text><line class="cls-9" x1="687.73" y1="83.68" x2="681.73" y2="83.68"/><text class="cls-5" transform="translate(668.26 87.14)">–2</text><line class="cls-9" x1="687.73" y1="56.6" x2="681.73" y2="56.6"/><text class="cls-5" transform="translate(673.24 60.06)">0</text><line class="cls-9" x1="687.73" y1="29.52" x2="681.73" y2="29.52"/><text class="cls-5" transform="translate(673.24 32.98)">2</text><text class="cls-5" transform="translate(661.77 82.06) rotate(-90)">ln(I)</text><g class="cls-26"><path d="M695,29.78a3,3,0,0,0,3-3,3,3,0,1,0-5.13,2.12,3,3,0,0,0,2.13.88"/><path class="cls-13" d="M695,29.78a3,3,0,0,0,3-3,3,3,0,1,0-5.13,2.12A3,3,0,0,0,695,29.78Z"/></g><g class="cls-27"><path d="M702,35.13a3,3,0,1,0-2.12-.88,3,3,0,0,0,2.12.88"/><path class="cls-13" d="M702,35.13a3,3,0,1,0-2.12-.88A3,3,0,0,0,702,35.13Z"/></g><g class="cls-28"><path d="M713.53,43.05a3,3,0,0,0,2.12-5.12,3,3,0,1,0-2.12,5.12"/><path class="cls-13" d="M713.53,43.05a3,3,0,0,0,2.12-5.12,3,3,0,1,0-2.12,5.12Z"/></g><g class="cls-29"><path d="M729.73,53.55a3,3,0,0,0,2.12-5.12,3,3,0,1,0-2.12,5.12"/><path class="cls-13" d="M729.73,53.55a3,3,0,0,0,2.12-5.12,3,3,0,1,0-2.12,5.12Z"/></g><g class="cls-30"><path d="M750.56,66.63a3,3,0,0,0,3-3,3,3,0,0,0-5.12-2.12,3,3,0,0,0,2.12,5.12"/><path class="cls-13" d="M750.56,66.63a3,3,0,0,0,3-3,3,3,0,0,0-5.12-2.12,3,3,0,0,0,2.12,5.12Z"/></g><g class="cls-31"><path d="M776,82.31a3,3,0,0,0,3-3,3,3,0,0,0-5.12-2.12A3,3,0,0,0,776,82.31"/><path class="cls-13" d="M776,82.31a3,3,0,0,0,3-3,3,3,0,0,0-5.12-2.12A3,3,0,0,0,776,82.31Z"/></g><g class="cls-32"><path d="M806.1,100.58a3,3,0,0,0,3-3A3,3,0,0,0,804,95.46a3,3,0,0,0,2.12,5.12"/><path class="cls-13" d="M806.1,100.58a3,3,0,0,0,3-3A3,3,0,0,0,804,95.46a3,3,0,0,0,2.12,5.12Z"/></g><g class="cls-33"><path d="M840.81,121.47a3,3,0,0,0,2.12-.88,3,3,0,1,0-4.24,0,3,3,0,0,0,2.12.88"/><path class="cls-13" d="M840.81,121.47a3,3,0,0,0,2.12-.88,3,3,0,1,0-4.24,0A3,3,0,0,0,840.81,121.47Z"/></g><polyline class="cls-21" points="695.01 28.1 701.96 32.44 713.53 39.68 729.73 49.81 750.56 62.84 776.01 78.76 806.1 97.58 840.81 119.29"/><line class="cls-22" x1="687.73" y1="123.92" x2="687.73" y2="22.15"/><line class="cls-22" x1="848.1" y1="123.92" x2="848.1" y2="22.15"/><line class="cls-22" x1="687.73" y1="123.92" x2="848.1" y2="123.92"/><line class="cls-22" x1="687.73" y1="22.15" x2="848.1" y2="22.15"/><line class="cls-21" x1="739.22" y1="36.66" x2="759.22" y2="36.66"/><text class="cls-5" transform="translate(767.22 38.06)">D</text><text class="cls-11" transform="translate(774.42 40.16)"><tspan class="cls-23">f</tspan><tspan x="2.8" y="0">it</tspan></text><text class="cls-5" transform="translate(785.94 38.06)"><tspan class="cls-24">=</tspan><tspan class="cls-25" x="8.58" y="0">1.07</tspan><tspan x="27.97" y="0">m</tspan></text><text class="cls-11" transform="translate(822.08 34.45)">2</text><text class="cls-5" transform="translate(826.81 38.06)">s</text><text class="cls-11" transform="translate(830.63 34.45)">–1</text><rect class="cls-34" x="477.13" y="174.55" width="160.38" height="101.76"/><line class="cls-9" x1="482.1" y1="276.32" x2="482.1" y2="282.32"/><text class="cls-5" transform="translate(479.61 292.73)">0</text><line class="cls-9" x1="528.39" y1="276.32" x2="528.39" y2="282.32"/><text class="cls-5" transform="translate(525.89 292.73)">2</text><line class="cls-9" x1="574.67" y1="276.32" x2="574.67" y2="282.32"/><text class="cls-5" transform="translate(572.18 292.73)">4</text><line class="cls-9" x1="620.95" y1="276.32" x2="620.95" y2="282.32"/><text class="cls-5" transform="translate(618.46 292.73)">6</text><text class="cls-10" transform="translate(524.67 307.52)">B<tspan class="cls-7" x="9.96" y="0">(m</tspan></text><text class="cls-11" transform="translate(546.42 303.9)">–2</text><text class="cls-5" transform="translate(555.39 307.52)">s</text><text class="cls-5" transform="translate(569.38 307.52)">10</text><text class="cls-11" transform="translate(581.35 303.9)">9</text><text class="cls-5" transform="translate(586.08 307.52)">)</text><line class="cls-9" x1="477.13" y1="265.57" x2="471.13" y2="265.57"/><text class="cls-5" transform="translate(457.66 269.03)">–4</text><line class="cls-9" x1="477.13" y1="236.04" x2="471.13" y2="236.04"/><text class="cls-5" transform="translate(457.66 239.5)">–2</text><line class="cls-9" x1="477.13" y1="206.52" x2="471.13" y2="206.52"/><text class="cls-5" transform="translate(462.64 209.98)">0</text><line class="cls-9" x1="477.13" y1="176.99" x2="471.13" y2="176.99"/><text class="cls-5" transform="translate(462.64 180.45)">2</text><text class="cls-5" transform="translate(451.17 234.46) rotate(-90)">ln(I)</text><g class="cls-35"><path d="M595.5,258.1a3,3,0,0,0,2.12-5.12,3,3,0,1,0-2.12,5.12"/><path class="cls-13" d="M595.5,258.1a3,3,0,0,0,2.12-5.12,3,3,0,1,0-2.12,5.12Z"/></g><g class="cls-36"><path d="M484.42,184.77a3,3,0,0,0,2.12-5.12,3,3,0,0,0-5.12,2.12,3,3,0,0,0,3,3"/><path class="cls-13" d="M484.42,184.77a3,3,0,0,0,2.12-5.12,3,3,0,0,0-5.12,2.12,3,3,0,0,0,3,3Z"/></g><g class="cls-37"><path d="M540,218.46a3,3,0,0,0,2.12-5.12,3,3,0,1,0-2.12,5.12"/><path class="cls-13" d="M540,218.46a3,3,0,0,0,2.12-5.12,3,3,0,1,0-2.12,5.12Z"/></g><g class="cls-38"><path d="M519.13,203.88a3,3,0,1,0-2.12-5.12,3,3,0,0,0,0,4.24,3,3,0,0,0,2.12.88"/><path class="cls-13" d="M519.13,203.88a3,3,0,1,0-2.12-5.12,3,3,0,0,0,0,4.24A3,3,0,0,0,519.13,203.88Z"/></g><g class="cls-39"><path d="M491.36,185.19a3,3,0,1,0-2.12-.88,3,3,0,0,0,2.12.88"/><path class="cls-13" d="M491.36,185.19a3,3,0,1,0-2.12-.88A3,3,0,0,0,491.36,185.19Z"/></g><g class="cls-40"><path d="M502.93,191.81a3,3,0,0,0,3-3,3,3,0,0,0-5.12-2.12,3,3,0,0,0,2.12,5.12"/><path class="cls-13" d="M502.93,191.81a3,3,0,0,0,3-3,3,3,0,0,0-5.12-2.12,3,3,0,0,0,2.12,5.12Z"/></g><g class="cls-41"><path d="M565.41,231.08a3,3,0,0,0,2.12-5.12,3,3,0,1,0-2.12,5.12"/><path class="cls-13" d="M565.41,231.08a3,3,0,0,0,2.12-5.12,3,3,0,1,0-2.12,5.12Z"/></g><g class="cls-42"><path d="M630.21,272a3,3,0,0,0,2.12-.88,3,3,0,1,0-4.24,0,3,3,0,0,0,2.12.88"/><path class="cls-13" d="M630.21,272a3,3,0,0,0,2.12-.88,3,3,0,1,0-4.24,0A3,3,0,0,0,630.21,272Z"/></g><polyline class="cls-21" points="595.5 249.66 484.42 179.18 539.96 214.42 519.13 201.21 491.36 183.58 502.93 190.93 565.41 230.57 630.21 271.69"/><line class="cls-22" x1="477.13" y1="276.32" x2="477.13" y2="174.55"/><line class="cls-22" x1="637.5" y1="276.32" x2="637.5" y2="174.55"/><line class="cls-22" x1="477.13" y1="276.32" x2="637.5" y2="276.32"/><line class="cls-22" x1="477.13" y1="174.55" x2="637.5" y2="174.55"/><line class="cls-21" x1="528.62" y1="189.06" x2="548.62" y2="189.06"/><text class="cls-5" transform="translate(556.62 190.46)">D</text><text class="cls-11" transform="translate(563.82 192.56)"><tspan class="cls-23">f</tspan><tspan x="2.8" y="0">it</tspan></text><text class="cls-5" transform="translate(575.34 190.46)"><tspan class="cls-24">=</tspan><tspan class="cls-25" x="8.58" y="0">0.99</tspan><tspan x="27.97" y="0">m</tspan></text><text class="cls-11" transform="translate(611.48 186.85)">2</text><text class="cls-5" transform="translate(616.21 190.46)">s</text><text class="cls-11" transform="translate(620.03 186.85)">–1</text><rect class="cls-34" x="687.73" y="174.55" width="160.38" height="101.76"/><line class="cls-9" x1="692.7" y1="276.32" x2="692.7" y2="282.32"/><text class="cls-5" transform="translate(690.21 292.73)">0</text><line class="cls-9" x1="738.98" y1="276.32" x2="738.98" y2="282.32"/><text class="cls-5" transform="translate(736.49 292.73)">2</text><line class="cls-9" x1="785.27" y1="276.32" x2="785.27" y2="282.32"/><text class="cls-5" transform="translate(782.78 292.73)">4</text><line class="cls-9" x1="831.55" y1="276.32" x2="831.55" y2="282.32"/><text class="cls-5" transform="translate(829.06 292.73)">6</text><text class="cls-10" transform="translate(735.27 307.52)">B<tspan class="cls-7" x="9.96" y="0">(m</tspan></text><text class="cls-11" transform="translate(757.02 303.9)">–2</text><text class="cls-5" transform="translate(765.99 307.52)">s</text><text class="cls-5" transform="translate(779.98 307.52)">10</text><text class="cls-11" transform="translate(791.95 303.9)">9</text><text class="cls-5" transform="translate(796.68 307.52)">)</text><line class="cls-9" x1="687.73" y1="263.79" x2="681.73" y2="263.79"/><text class="cls-5" transform="translate(668.26 267.25)">–4</text><line class="cls-9" x1="687.73" y1="236.08" x2="681.73" y2="236.08"/><text class="cls-5" transform="translate(668.26 239.54)">–2</text><line class="cls-9" x1="687.73" y1="208.38" x2="681.73" y2="208.38"/><text class="cls-5" transform="translate(673.24 211.84)">0</text><line class="cls-9" x1="687.73" y1="180.67" x2="681.73" y2="180.67"/><text class="cls-5" transform="translate(673.24 184.13)">2</text><text class="cls-5" transform="translate(661.77 234.45) rotate(-90)">ln(I)</text><g class="cls-43"><path d="M806.1,247.36a3,3,0,1,0-2.12-5.12,3,3,0,0,0,0,4.24,3,3,0,0,0,2.12.88"/><path class="cls-13" d="M806.1,247.36a3,3,0,1,0-2.12-5.12,3,3,0,0,0,0,4.24A3,3,0,0,0,806.1,247.36Z"/></g><g class="cls-44"><path d="M695,182.18a3,3,0,0,0,3-3,3,3,0,1,0-5.13,2.12,3,3,0,0,0,2.13.88"/><path class="cls-13" d="M695,182.18a3,3,0,0,0,3-3,3,3,0,1,0-5.13,2.12A3,3,0,0,0,695,182.18Z"/></g><g class="cls-45"><path d="M750.56,216.61a3,3,0,0,0,2.12-5.12,3,3,0,1,0-2.12,5.12"/><path class="cls-13" d="M750.56,216.61a3,3,0,0,0,2.12-5.12,3,3,0,1,0-2.12,5.12Z"/></g><g class="cls-46"><path d="M729.73,205.18a3,3,0,0,0,2.12-.87,3,3,0,0,0-2.12-5.13,3,3,0,1,0,0,6"/><path class="cls-13" d="M729.73,205.18a3,3,0,0,0,2.12-.87,3,3,0,0,0-2.12-5.13,3,3,0,1,0,0,6Z"/></g><g class="cls-47"><path d="M702,189.48a3,3,0,1,0-2.12-5.12,3,3,0,0,0,0,4.24,3,3,0,0,0,2.12.88"/><path class="cls-13" d="M702,189.48a3,3,0,1,0-2.12-5.12,3,3,0,0,0,0,4.24A3,3,0,0,0,702,189.48Z"/></g><g class="cls-48"><path d="M713.53,197.21a3,3,0,0,0,2.12-5.12,3,3,0,1,0-2.12,5.12"/><path class="cls-13" d="M713.53,197.21a3,3,0,0,0,2.12-5.12,3,3,0,1,0-2.12,5.12Z"/></g><g class="cls-49"><path d="M776,235.31a3,3,0,1,0-2.12-5.13,3,3,0,0,0,2.12,5.13"/><path class="cls-13" d="M776,235.31a3,3,0,1,0-2.12-5.13,3,3,0,0,0,2.12,5.13Z"/></g><g class="cls-50"><path d="M840.81,274.69a3,3,0,1,0-2.12-.88,3,3,0,0,0,2.12.88"/><path class="cls-13" d="M840.81,274.69a3,3,0,1,0-2.12-.88A3,3,0,0,0,840.81,274.69Z"/></g><polyline class="cls-21" points="806.1 248.49 695.01 181.12 750.56 214.8 729.73 202.17 701.96 185.33 713.53 192.34 776.01 230.24 840.81 269.54"/><line class="cls-22" x1="687.73" y1="276.32" x2="687.73" y2="174.55"/><line class="cls-22" x1="848.1" y1="276.32" x2="848.1" y2="174.55"/><line class="cls-22" x1="687.73" y1="276.32" x2="848.1" y2="276.32"/><line class="cls-22" x1="687.73" y1="174.55" x2="848.1" y2="174.55"/><line class="cls-21" x1="739.22" y1="189.06" x2="759.22" y2="189.06"/><text class="cls-5" transform="translate(767.22 190.46)">D</text><text class="cls-11" transform="translate(774.42 192.56)"><tspan class="cls-23">f</tspan><tspan x="2.8" y="0">it</tspan></text><text class="cls-5" transform="translate(785.94 190.46)"><tspan class="cls-24">=</tspan><tspan class="cls-25" x="8.58" y="0">1.01</tspan><tspan x="27.97" y="0">m</tspan></text><text class="cls-11" transform="translate(822.08 186.85)">2</text><text class="cls-5" transform="translate(826.81 190.46)">s</text><text class="cls-11" transform="translate(830.63 186.85)">–1</text><line class="cls-9" x1="45.99" y1="240.18" x2="45.99" y2="246.18"/><text class="cls-5" transform="translate(43.5 256.6)">0</text><line class="cls-9" x1="88.14" y1="240.18" x2="88.14" y2="246.18"/><text class="cls-5" transform="translate(85.65 256.6)">1</text><line class="cls-9" x1="130.3" y1="240.18" x2="130.3" y2="246.18"/><text class="cls-5" transform="translate(127.81 256.6)">2</text><line class="cls-9" x1="172.46" y1="240.18" x2="172.46" y2="246.18"/><text class="cls-5" transform="translate(169.97 256.6)">3</text><line class="cls-9" x1="214.61" y1="240.18" x2="214.61" y2="246.18"/><text class="cls-5" transform="translate(212.12 256.6)">4</text><line class="cls-9" x1="256.77" y1="240.18" x2="256.77" y2="246.18"/><text class="cls-5" transform="translate(254.28 256.6)">5</text><line class="cls-9" x1="298.93" y1="240.18" x2="298.93" y2="246.18"/><text class="cls-5" transform="translate(296.43 256.6)">6</text><line class="cls-9" x1="341.08" y1="240.18" x2="341.08" y2="246.18"/><text class="cls-5" transform="translate(338.59 256.6)">7</text><line class="cls-9" x1="383.24" y1="240.18" x2="383.24" y2="246.18"/><text class="cls-5" transform="translate(380.75 256.6)">8</text><text class="cls-5" transform="translate(190.59 270.01)">Tim<tspan class="cls-6" x="16.6" y="0">e</tspan><tspan class="cls-7" x="25.46" y="0">(a.u.)</tspan></text><line class="cls-9" x1="29.13" y1="197.87" x2="23.13" y2="197.87"/><text class="cls-5" transform="translate(14.64 197.51)">6</text><line class="cls-9" x1="29.13" y1="130.17" x2="23.13" y2="130.17"/><text class="cls-5" transform="translate(14.64 130.51)">8</text><line class="cls-9" x1="29.13" y1="62.46" x2="23.13" y2="62.46"/><text class="cls-5" transform="translate(9.66 62.5)">10</text><polyline class="cls-51" points="45.99 62.46 49.4 65.18 52.8 67.85 56.21 70.47 59.61 73.06 63.02 75.6 66.43 78.11 69.83 80.57 73.24 82.99 76.65 85.38 80.05 87.72 83.46 90.03 86.87 92.3 90.27 94.54 93.68 96.74 97.09 98.9 100.49 101.03 103.9 103.13 107.31 105.19 110.71 107.22 114.12 109.21 117.53 111.18 120.93 113.11 124.34 115.01 127.75 116.88 131.15 118.72 134.56 120.53 137.97 122.32 141.37 124.07 144.78 125.8 148.19 127.49 151.59 129.16 155 130.81 158.41 132.43 161.81 134.02 165.22 135.59 168.62 137.13 172.03 138.64 175.44 140.13 178.84 141.6 182.25 143.05 185.66 144.47 189.06 145.87 192.47 147.24 195.88 148.6 199.28 149.93 202.69 151.24 206.1 152.53 209.5 153.8 212.91 155.05 216.32 156.28 219.72 157.49 223.13 158.68 226.54 159.85 229.94 161 233.35 162.14 236.76 163.25 240.16 164.35 243.57 165.43 246.97 166.49 250.38 167.54 253.79 168.57 257.19 169.58 260.6 170.58 264.01 171.56 267.42 172.52 270.82 173.47 274.23 174.4 277.63 175.32 281.04 176.23 284.45 177.12 287.85 177.99 291.26 178.85 294.67 179.7 298.07 180.53 301.48 181.36 304.89 182.16 308.29 182.96 311.7 183.74 315.11 184.51 318.51 185.26 321.92 186.01 325.33 186.74 328.73 187.47 332.14 188.17 335.55 188.87 338.95 189.56 342.36 190.23 345.77 190.9 349.17 191.55 352.58 192.2 355.99 192.83 359.39 193.45 362.8 194.07 366.2 194.67 369.61 195.27 373.02 195.85 376.43 196.43 379.83 196.99 383.24 197.55"/><polyline class="cls-52" points="45.99 231.72 49.4 229.01 52.8 226.34 56.21 223.71 59.61 221.13 63.02 218.58 66.43 216.08 69.83 213.62 73.24 211.19 76.65 208.81 80.05 206.46 83.46 204.15 86.87 201.88 90.27 199.65 93.68 197.45 97.09 195.28 100.49 193.15 103.9 191.06 107.31 189 110.71 186.97 114.12 184.97 117.53 183.01 120.93 181.08 124.34 179.17 127.75 177.3 131.15 175.46 134.56 173.65 137.97 171.87 141.37 170.11 144.78 168.39 148.19 166.69 151.59 165.02 155 163.38 158.41 161.76 161.81 160.17 165.22 158.6 168.62 157.06 172.03 155.54 175.44 154.05 178.84 152.58 182.25 151.14 185.66 149.71 189.06 148.32 192.47 146.94 195.88 145.59 199.28 144.25 202.69 142.94 206.1 141.65 209.5 140.38 212.91 139.13 216.32 137.9 219.72 136.69 223.13 135.5 226.54 134.33 229.94 133.18 233.35 132.05 236.76 130.93 240.16 129.83 243.57 128.75 246.97 127.69 250.38 126.64 253.79 125.62 257.19 124.6 260.6 123.61 264.01 122.63 267.42 121.66 270.82 120.71 274.23 119.78 277.63 118.86 281.04 117.96 284.45 117.07 287.85 116.19 291.26 115.33 294.67 114.48 298.07 113.65 301.48 112.83 304.89 112.02 308.29 111.23 311.7 110.44 315.11 109.68 318.51 108.92 321.92 108.17 325.33 107.44 328.73 106.72 332.14 106.01 335.55 105.31 338.95 104.63 342.36 103.95 345.77 103.29 349.17 102.63 352.58 101.99 355.99 101.35 359.39 100.73 362.8 100.12 366.2 99.51 369.61 98.92 373.02 98.33 376.43 97.76 379.83 97.19 383.24 96.64"/><line class="cls-22" x1="29.13" y1="240.18" x2="29.13" y2="54.5"/><line class="cls-22" x1="29.13" y1="240.18" x2="400.1" y2="240.18"/><text class="cls-53" transform="translate(42.5 91.89)">[X]</text><text class="cls-54" transform="translate(525.87 13.55)">Diffusion (X)</text><text class="cls-55" transform="translate(181.87 77.55)">X → Y</text><text class="cls-54" transform="translate(729.87 13.55)">Diffusion (Y)</text><text class="cls-53" transform="translate(42.49 215.22)">[Y]</text><text class="cls-54" transform="translate(424.88 104.44) rotate(-90)">Increasing<tspan x="3.01" y="14.4">gradients</tspan></text><text class="cls-54" transform="translate(424.88 263.71) rotate(-90)">Randomised<tspan x="9" y="14.4">gradients</tspan></text></svg>